<svg width="28" height="8" viewBox="0 0 28 8" fill="none" xmlns="http://www.w3.org/2000/svg">
<path d="M12.4305 4.63448C12.2103 4.41064 11.933 4.23882 11.6328 4.13478C11.331 4.03074 11.0047 3.99764 10.6883 4.03547C10.4648 4.06227 10.2494 4.12532 10.0471 4.2199C9.96558 4.25773 9.8677 4.22463 9.82855 4.14739C9.81713 4.12374 9.81224 4.1001 9.81224 4.07488C9.81224 4.02601 9.83671 3.97872 9.88075 3.94719C10.0586 3.82424 10.1972 3.65714 10.2821 3.46325C10.406 3.18266 10.4077 2.87212 10.2886 2.58837C10.1695 2.30621 9.94437 2.08394 9.654 1.96571C9.37341 1.85064 9.06346 1.84433 8.77798 1.94837C8.76493 1.95468 8.75188 1.95941 8.73883 1.96256C8.65889 1.98778 8.56917 1.94837 8.53654 1.87113C8.5186 1.827 8.52186 1.7797 8.54307 1.7403C8.5447 1.7198 8.54633 1.69931 8.54633 1.67882C8.55938 1.37931 8.50229 1.07665 8.37831 0.802364C8.28043 0.581675 8.1385 0.379901 7.96558 0.206502C7.90849 0.272709 7.84323 0.332611 7.76982 0.381478C7.63769 0.47133 7.48434 0.531231 7.32447 0.554877C7.1646 0.578522 6.99984 0.564335 6.8465 0.515468C6.70783 0.47133 6.58385 0.40197 6.47456 0.307389C6.46803 0.301084 6.46151 0.296355 6.45661 0.290049C6.3571 0.20335 6.24454 0.135566 6.12056 0.0866995C5.977 0.0283744 5.82366 0 5.66868 0C5.51371 0 5.36036 0.0299507 5.21681 0.0866995C5.07325 0.145025 4.94275 0.226995 4.83345 0.334187C4.72252 0.441379 4.63606 0.565911 4.57733 0.70463C4.51697 0.84335 4.48761 0.991527 4.48761 1.14128C4.48761 1.29103 4.5186 1.43921 4.57733 1.57793C4.62301 1.68355 4.68337 1.78286 4.76004 1.86956C4.81713 1.93734 4.80735 2.03665 4.73883 2.09182C4.68337 2.13596 4.60669 2.13911 4.54797 2.10443C4.54144 2.10128 4.53329 2.09655 4.52676 2.09182C4.41583 2.00985 4.29185 1.94837 4.15971 1.90897C4.00311 1.86167 3.83997 1.84749 3.67684 1.86483C3.51371 1.88217 3.35874 1.93261 3.21681 2.01143C3.07489 2.09182 2.95417 2.19744 2.85629 2.32512C2.76004 2.45281 2.69153 2.59626 2.65564 2.75232C2.61975 2.9068 2.61812 3.06443 2.64911 3.22049C2.68011 3.37655 2.74536 3.52158 2.83834 3.65241C2.93296 3.78325 3.05042 3.89044 3.19071 3.97399C3.23312 3.99921 3.25922 4.0402 3.26738 4.08591C3.27391 4.12059 3.26901 4.15685 3.25107 4.18995C3.20865 4.26719 3.10914 4.29557 3.03084 4.25458C2.75678 4.11271 2.44683 4.03074 2.13525 4.0197C1.82366 4.00867 1.50882 4.067 1.22334 4.18837C0.937857 4.30975 0.68174 4.49734 0.481088 4.72749C0.280435 4.95763 0.135248 5.23507 0.0602071 5.5267C-0.0148336 5.81832 -0.0197276 6.12887 0.0455252 6.42364C0.110778 6.71842 0.247809 6.99901 0.440305 7.23547C0.6328 7.47192 0.884024 7.66581 1.16461 7.79665C1.4452 7.92749 1.75841 7.99527 2.06999 7.99212C2.08794 7.99212 2.10588 7.99527 2.1222 8H10.8938C10.9101 7.99527 10.9264 7.99212 10.9444 7.99212C11.2641 7.99212 11.5838 7.91803 11.8693 7.77931C12.1548 7.64059 12.406 7.43566 12.5969 7.1866C12.7878 6.93911 12.9166 6.64591 12.9705 6.34167C13.0243 6.03744 13.0047 5.72059 12.9101 5.42424C12.8171 5.13261 12.6507 4.85832 12.4305 4.63448Z" fill="#9F7C36"/>
<path d="M27.4305 4.63448C27.2103 4.41064 26.933 4.23882 26.6328 4.13478C26.331 4.03074 26.0047 3.99764 25.6883 4.03547C25.4648 4.06227 25.2494 4.12532 25.0471 4.2199C24.9656 4.25773 24.8677 4.22463 24.8285 4.14739C24.8171 4.12374 24.8122 4.1001 24.8122 4.07488C24.8122 4.02601 24.8367 3.97872 24.8808 3.94719C25.0586 3.82424 25.1972 3.65714 25.2821 3.46325C25.406 3.18266 25.4077 2.87212 25.2886 2.58837C25.1695 2.30621 24.9444 2.08394 24.654 1.96571C24.3734 1.85064 24.0635 1.84433 23.778 1.94837C23.7649 1.95468 23.7519 1.95941 23.7388 1.96256C23.6589 1.98778 23.5692 1.94837 23.5365 1.87113C23.5186 1.827 23.5219 1.7797 23.5431 1.7403C23.5447 1.7198 23.5463 1.69931 23.5463 1.67882C23.5594 1.37931 23.5023 1.07665 23.3783 0.802364C23.2804 0.581675 23.1385 0.379901 22.9656 0.206502C22.9085 0.272709 22.8432 0.332611 22.7698 0.381478C22.6377 0.47133 22.4843 0.531231 22.3245 0.554877C22.1646 0.578522 21.9998 0.564335 21.8465 0.515468C21.7078 0.47133 21.5839 0.40197 21.4746 0.307389C21.468 0.301084 21.4615 0.296355 21.4566 0.290049C21.3571 0.20335 21.2445 0.135566 21.1206 0.0866995C20.977 0.0283744 20.8237 0 20.6687 0C20.5137 0 20.3604 0.0299507 20.2168 0.0866995C20.0733 0.145025 19.9427 0.226995 19.8334 0.334187C19.7225 0.441379 19.6361 0.565911 19.5773 0.70463C19.517 0.84335 19.4876 0.991527 19.4876 1.14128C19.4876 1.29103 19.5186 1.43921 19.5773 1.57793C19.623 1.68355 19.6834 1.78286 19.76 1.86956C19.8171 1.93734 19.8073 2.03665 19.7388 2.09182C19.6834 2.13596 19.6067 2.13911 19.548 2.10443C19.5414 2.10128 19.5333 2.09655 19.5268 2.09182C19.4158 2.00985 19.2919 1.94837 19.1597 1.90897C19.0031 1.86167 18.84 1.84749 18.6768 1.86483C18.5137 1.88217 18.3587 1.93261 18.2168 2.01143C18.0749 2.09182 17.9542 2.19744 17.8563 2.32512C17.76 2.45281 17.6915 2.59626 17.6556 2.75232C17.6197 2.9068 17.6181 3.06443 17.6491 3.22049C17.6801 3.37655 17.7454 3.52158 17.8383 3.65241C17.933 3.78325 18.0504 3.89044 18.1907 3.97399C18.2331 3.99921 18.2592 4.0402 18.2674 4.08591C18.2739 4.12059 18.269 4.15685 18.2511 4.18995C18.2087 4.26719 18.1091 4.29557 18.0308 4.25458C17.7568 4.11271 17.4468 4.03074 17.1352 4.0197C16.8237 4.00867 16.5088 4.067 16.2233 4.18837C15.9379 4.30975 15.6817 4.49734 15.4811 4.72749C15.2804 4.95763 15.1352 5.23507 15.0602 5.5267C14.9852 5.81832 14.9803 6.12887 15.0455 6.42364C15.1108 6.71842 15.2478 6.99901 15.4403 7.23547C15.6328 7.47192 15.884 7.66581 16.1646 7.79665C16.4452 7.92749 16.7584 7.99527 17.07 7.99212C17.0879 7.99212 17.1059 7.99527 17.1222 8H25.8938C25.9101 7.99527 25.9264 7.99212 25.9444 7.99212C26.2641 7.99212 26.5838 7.91803 26.8693 7.77931C27.1548 7.64059 27.406 7.43566 27.5969 7.1866C27.7878 6.93911 27.9166 6.64591 27.9705 6.34167C28.0243 6.03744 28.0047 5.72059 27.9101 5.42424C27.8171 5.13261 27.6507 4.85832 27.4305 4.63448Z" fill="#EEA46B"/>
</svg>
