<svg width="77" height="67" viewBox="0 0 77 67" fill="none" xmlns="http://www.w3.org/2000/svg">
<circle cx="28" cy="5" r="5" fill="#C4C4C4"/>
<circle cx="50" cy="6" r="5" fill="#C4C4C4"/>
<circle cx="35.5" cy="4.5" r="4.5" fill="#C4C4C4"/>
<circle cx="38" cy="10" r="3" fill="#C4C4C4"/>
<circle cx="50" cy="12" r="3" fill="#C4C4C4"/>
<circle cx="54" cy="11" r="3" fill="#C4C4C4"/>
<circle cx="57" cy="7" r="3" fill="#C4C4C4"/>
<circle cx="24" cy="10" r="3" fill="#C4C4C4"/>
<circle cx="23" cy="6" r="3" fill="#C4C4C4"/>
<circle cx="20" cy="9" r="3" fill="#C4C4C4"/>
<circle cx="31" cy="11" r="5" fill="#C4C4C4"/>
<circle cx="4.5" cy="4.5" r="4.5" transform="matrix(-1 0 0 1 47 1)" fill="#C4C4C4"/>
<circle cx="4.5" cy="4.5" r="4.5" transform="matrix(-1 0 0 1 48 6)" fill="#C4C4C4"/>
<path d="M5.18457 38.1445H2.20605L1.53711 40H0.570312L3.28516 32.8906H4.10547L6.8252 40H5.86328L5.18457 38.1445ZM2.48926 37.373H4.90625L3.69531 34.0479L2.48926 37.373ZM13.1973 38.5986C13.1973 38.3545 13.1045 38.1657 12.9189 38.0322C12.7367 37.8955 12.416 37.7783 11.957 37.6807C11.5013 37.583 11.1383 37.4658 10.8682 37.3291C10.6012 37.1924 10.4027 37.0296 10.2725 36.8408C10.1455 36.652 10.082 36.4274 10.082 36.167C10.082 35.734 10.2643 35.3678 10.6289 35.0684C10.9967 34.7689 11.4655 34.6191 12.0352 34.6191C12.6341 34.6191 13.1191 34.7738 13.4902 35.083C13.8646 35.3923 14.0518 35.7878 14.0518 36.2695H13.1436C13.1436 36.0221 13.0378 35.8089 12.8262 35.6299C12.6178 35.4508 12.3542 35.3613 12.0352 35.3613C11.7064 35.3613 11.4492 35.4329 11.2637 35.5762C11.0781 35.7194 10.9854 35.9066 10.9854 36.1377C10.9854 36.3558 11.0716 36.5202 11.2441 36.6309C11.4167 36.7415 11.7275 36.8473 12.1768 36.9482C12.6292 37.0492 12.9954 37.1696 13.2754 37.3096C13.5553 37.4495 13.762 37.6188 13.8955 37.8174C14.0322 38.0127 14.1006 38.252 14.1006 38.5352C14.1006 39.0072 13.9118 39.3864 13.5342 39.6729C13.1566 39.9561 12.6667 40.0977 12.0645 40.0977C11.6413 40.0977 11.2669 40.0228 10.9414 39.873C10.6159 39.7233 10.3604 39.515 10.1748 39.248C9.99251 38.9779 9.90137 38.6865 9.90137 38.374H10.8047C10.821 38.6768 10.9414 38.9176 11.166 39.0967C11.3939 39.2725 11.6934 39.3604 12.0645 39.3604C12.4062 39.3604 12.6797 39.292 12.8848 39.1553C13.0931 39.0153 13.1973 38.8298 13.1973 38.5986ZM18.5391 40C18.487 39.8958 18.4447 39.7103 18.4121 39.4434C17.9922 39.8796 17.4909 40.0977 16.9082 40.0977C16.3874 40.0977 15.9593 39.9512 15.624 39.6582C15.292 39.362 15.126 38.9876 15.126 38.5352C15.126 37.985 15.3343 37.5586 15.751 37.2559C16.1709 36.9499 16.7601 36.7969 17.5186 36.7969H18.3975V36.3818C18.3975 36.0661 18.3031 35.8154 18.1143 35.6299C17.9255 35.4411 17.6471 35.3467 17.2793 35.3467C16.957 35.3467 16.6868 35.4281 16.4688 35.5908C16.2507 35.7536 16.1416 35.9505 16.1416 36.1816H15.2334C15.2334 35.918 15.3262 35.6641 15.5117 35.4199C15.7005 35.1725 15.9544 34.9772 16.2734 34.834C16.5957 34.6908 16.9489 34.6191 17.333 34.6191C17.9417 34.6191 18.4186 34.7721 18.7637 35.0781C19.1087 35.3809 19.2878 35.7992 19.3008 36.333V38.7646C19.3008 39.2497 19.3626 39.6354 19.4863 39.9219V40H18.5391ZM17.04 39.3115C17.3232 39.3115 17.5918 39.2383 17.8457 39.0918C18.0996 38.9453 18.2835 38.7549 18.3975 38.5205V37.4365H17.6895C16.5827 37.4365 16.0293 37.7604 16.0293 38.4082C16.0293 38.6914 16.1237 38.9128 16.3125 39.0723C16.5013 39.2318 16.7438 39.3115 17.04 39.3115ZM23.9785 39.4775C23.627 39.891 23.111 40.0977 22.4307 40.0977C21.8675 40.0977 21.4378 39.9349 21.1416 39.6094C20.8486 39.2806 20.7005 38.7956 20.6973 38.1543V34.7168H21.6006V38.1299C21.6006 38.9307 21.9261 39.3311 22.5771 39.3311C23.2673 39.3311 23.7262 39.0739 23.9541 38.5596V34.7168H24.8574V40H23.998L23.9785 39.4775ZM29.3105 38.5986C29.3105 38.3545 29.2178 38.1657 29.0322 38.0322C28.8499 37.8955 28.5293 37.7783 28.0703 37.6807C27.6146 37.583 27.2516 37.4658 26.9814 37.3291C26.7145 37.1924 26.516 37.0296 26.3857 36.8408C26.2588 36.652 26.1953 36.4274 26.1953 36.167C26.1953 35.734 26.3776 35.3678 26.7422 35.0684C27.11 34.7689 27.5788 34.6191 28.1484 34.6191C28.7474 34.6191 29.2324 34.7738 29.6035 35.083C29.9779 35.3923 30.165 35.7878 30.165 36.2695H29.2568C29.2568 36.0221 29.151 35.8089 28.9395 35.6299C28.7311 35.4508 28.4674 35.3613 28.1484 35.3613C27.8197 35.3613 27.5625 35.4329 27.377 35.5762C27.1914 35.7194 27.0986 35.9066 27.0986 36.1377C27.0986 36.3558 27.1849 36.5202 27.3574 36.6309C27.5299 36.7415 27.8408 36.8473 28.29 36.9482C28.7425 37.0492 29.1087 37.1696 29.3887 37.3096C29.6686 37.4495 29.8753 37.6188 30.0088 37.8174C30.1455 38.0127 30.2139 38.252 30.2139 38.5352C30.2139 39.0072 30.0251 39.3864 29.6475 39.6729C29.2699 39.9561 28.7799 40.0977 28.1777 40.0977C27.7546 40.0977 27.3802 40.0228 27.0547 39.873C26.7292 39.7233 26.4736 39.515 26.2881 39.248C26.1058 38.9779 26.0146 38.6865 26.0146 38.374H26.918C26.9342 38.6768 27.0547 38.9176 27.2793 39.0967C27.5072 39.2725 27.8066 39.3604 28.1777 39.3604C28.5195 39.3604 28.793 39.292 28.998 39.1553C29.2064 39.0153 29.3105 38.8298 29.3105 38.5986ZM34.6523 40C34.6003 39.8958 34.5579 39.7103 34.5254 39.4434C34.1055 39.8796 33.6042 40.0977 33.0215 40.0977C32.5007 40.0977 32.0726 39.9512 31.7373 39.6582C31.4053 39.362 31.2393 38.9876 31.2393 38.5352C31.2393 37.985 31.4476 37.5586 31.8643 37.2559C32.2842 36.9499 32.8734 36.7969 33.6318 36.7969H34.5107V36.3818C34.5107 36.0661 34.4163 35.8154 34.2275 35.6299C34.0387 35.4411 33.7604 35.3467 33.3926 35.3467C33.0703 35.3467 32.8001 35.4281 32.582 35.5908C32.3639 35.7536 32.2549 35.9505 32.2549 36.1816H31.3467C31.3467 35.918 31.4395 35.6641 31.625 35.4199C31.8138 35.1725 32.0677 34.9772 32.3867 34.834C32.709 34.6908 33.0622 34.6191 33.4463 34.6191C34.055 34.6191 34.5319 34.7721 34.877 35.0781C35.222 35.3809 35.401 35.7992 35.4141 36.333V38.7646C35.4141 39.2497 35.4759 39.6354 35.5996 39.9219V40H34.6523ZM33.1533 39.3115C33.4365 39.3115 33.7051 39.2383 33.959 39.0918C34.2129 38.9453 34.3968 38.7549 34.5107 38.5205V37.4365H33.8027C32.696 37.4365 32.1426 37.7604 32.1426 38.4082C32.1426 38.6914 32.237 38.9128 32.4258 39.0723C32.6146 39.2318 32.8571 39.3115 33.1533 39.3115ZM36.6152 37.3145C36.6152 36.4909 36.8057 35.8366 37.1865 35.3516C37.5674 34.8633 38.0719 34.6191 38.7002 34.6191C39.3447 34.6191 39.8477 34.847 40.209 35.3027L40.2529 34.7168H41.0781V39.873C41.0781 40.5566 40.8747 41.0954 40.4678 41.4893C40.0641 41.8831 39.5205 42.0801 38.8369 42.0801C38.4561 42.0801 38.0833 41.9987 37.7188 41.8359C37.3542 41.6732 37.0758 41.4502 36.8838 41.167L37.3525 40.625C37.7399 41.1035 38.2135 41.3428 38.7734 41.3428C39.2129 41.3428 39.5547 41.2191 39.7988 40.9717C40.0462 40.7243 40.1699 40.376 40.1699 39.9268V39.4727C39.8086 39.8893 39.3154 40.0977 38.6904 40.0977C38.0719 40.0977 37.5706 39.8486 37.1865 39.3506C36.8057 38.8525 36.6152 38.1738 36.6152 37.3145ZM37.5234 37.417C37.5234 38.0127 37.6455 38.4814 37.8896 38.8232C38.1338 39.1618 38.4756 39.3311 38.915 39.3311C39.4847 39.3311 39.903 39.0723 40.1699 38.5547V36.1426C39.8932 35.638 39.4782 35.3857 38.9248 35.3857C38.4854 35.3857 38.1419 35.5566 37.8945 35.8984C37.6471 36.2402 37.5234 36.7464 37.5234 37.417ZM44.6377 40.0977C43.9215 40.0977 43.3389 39.8633 42.8896 39.3945C42.4404 38.9225 42.2158 38.2926 42.2158 37.5049V37.3389C42.2158 36.8148 42.3151 36.3477 42.5137 35.9375C42.7155 35.5241 42.9954 35.2018 43.3535 34.9707C43.7148 34.7363 44.1055 34.6191 44.5254 34.6191C45.2122 34.6191 45.7461 34.8454 46.127 35.2979C46.5078 35.7503 46.6982 36.3981 46.6982 37.2412V37.6172H43.1191C43.1322 38.138 43.2835 38.5596 43.5732 38.8818C43.8662 39.2008 44.2373 39.3604 44.6865 39.3604C45.0055 39.3604 45.2757 39.2952 45.4971 39.165C45.7184 39.0348 45.9121 38.8623 46.0781 38.6475L46.6299 39.0771C46.1872 39.7575 45.5231 40.0977 44.6377 40.0977ZM44.5254 35.3613C44.1608 35.3613 43.8548 35.4948 43.6074 35.7617C43.36 36.0254 43.207 36.3965 43.1484 36.875H45.7949V36.8066C45.7689 36.3477 45.6452 35.9928 45.4238 35.7422C45.2025 35.4883 44.903 35.3613 44.5254 35.3613ZM53.3047 38.5986C53.3047 38.3545 53.2119 38.1657 53.0264 38.0322C52.8441 37.8955 52.5234 37.7783 52.0645 37.6807C51.6087 37.583 51.2458 37.4658 50.9756 37.3291C50.7087 37.1924 50.5101 37.0296 50.3799 36.8408C50.2529 36.652 50.1895 36.4274 50.1895 36.167C50.1895 35.734 50.3717 35.3678 50.7363 35.0684C51.1042 34.7689 51.5729 34.6191 52.1426 34.6191C52.7415 34.6191 53.2266 34.7738 53.5977 35.083C53.972 35.3923 54.1592 35.7878 54.1592 36.2695H53.251C53.251 36.0221 53.1452 35.8089 52.9336 35.6299C52.7253 35.4508 52.4616 35.3613 52.1426 35.3613C51.8138 35.3613 51.5566 35.4329 51.3711 35.5762C51.1855 35.7194 51.0928 35.9066 51.0928 36.1377C51.0928 36.3558 51.179 36.5202 51.3516 36.6309C51.5241 36.7415 51.835 36.8473 52.2842 36.9482C52.7367 37.0492 53.1029 37.1696 53.3828 37.3096C53.6628 37.4495 53.8695 37.6188 54.0029 37.8174C54.1396 38.0127 54.208 38.252 54.208 38.5352C54.208 39.0072 54.0192 39.3864 53.6416 39.6729C53.264 39.9561 52.7741 40.0977 52.1719 40.0977C51.7487 40.0977 51.3743 40.0228 51.0488 39.873C50.7233 39.7233 50.4678 39.515 50.2822 39.248C50.0999 38.9779 50.0088 38.6865 50.0088 38.374H50.9121C50.9284 38.6768 51.0488 38.9176 51.2734 39.0967C51.5013 39.2725 51.8008 39.3604 52.1719 39.3604C52.5137 39.3604 52.7871 39.292 52.9922 39.1553C53.2005 39.0153 53.3047 38.8298 53.3047 38.5986ZM56.2881 35.3564C56.6885 34.8649 57.2093 34.6191 57.8506 34.6191C58.9671 34.6191 59.5303 35.249 59.54 36.5088V40H58.6367V36.5039C58.6335 36.123 58.5456 35.8415 58.373 35.6592C58.2038 35.4769 57.9385 35.3857 57.5771 35.3857C57.2842 35.3857 57.027 35.4639 56.8057 35.6201C56.5843 35.7764 56.4118 35.9814 56.2881 36.2354V40H55.3848V32.5H56.2881V35.3564ZM64.1543 40C64.1022 39.8958 64.0599 39.7103 64.0273 39.4434C63.6074 39.8796 63.1061 40.0977 62.5234 40.0977C62.0026 40.0977 61.5745 39.9512 61.2393 39.6582C60.9072 39.362 60.7412 38.9876 60.7412 38.5352C60.7412 37.985 60.9495 37.5586 61.3662 37.2559C61.7861 36.9499 62.3753 36.7969 63.1338 36.7969H64.0127V36.3818C64.0127 36.0661 63.9183 35.8154 63.7295 35.6299C63.5407 35.4411 63.2624 35.3467 62.8945 35.3467C62.5723 35.3467 62.3021 35.4281 62.084 35.5908C61.8659 35.7536 61.7568 35.9505 61.7568 36.1816H60.8486C60.8486 35.918 60.9414 35.6641 61.127 35.4199C61.3158 35.1725 61.5697 34.9772 61.8887 34.834C62.2109 34.6908 62.5641 34.6191 62.9482 34.6191C63.557 34.6191 64.0339 34.7721 64.3789 35.0781C64.724 35.3809 64.903 35.7992 64.916 36.333V38.7646C64.916 39.2497 64.9779 39.6354 65.1016 39.9219V40H64.1543ZM62.6553 39.3115C62.9385 39.3115 63.207 39.2383 63.4609 39.0918C63.7148 38.9453 63.8988 38.7549 64.0127 38.5205V37.4365H63.3047C62.1979 37.4365 61.6445 37.7604 61.6445 38.4082C61.6445 38.6914 61.7389 38.9128 61.9277 39.0723C62.1165 39.2318 62.359 39.3115 62.6553 39.3115ZM70.7949 37.417C70.7949 38.221 70.611 38.8688 70.2432 39.3604C69.8753 39.8519 69.3773 40.0977 68.749 40.0977C68.1077 40.0977 67.6032 39.8942 67.2354 39.4873V42.0312H66.332V34.7168H67.1572L67.2012 35.3027C67.569 34.847 68.0801 34.6191 68.7344 34.6191C69.3691 34.6191 69.8704 34.8584 70.2383 35.3369C70.6094 35.8154 70.7949 36.4811 70.7949 37.334V37.417ZM69.8916 37.3145C69.8916 36.7188 69.7646 36.2484 69.5107 35.9033C69.2568 35.5583 68.9085 35.3857 68.4658 35.3857C67.9189 35.3857 67.5088 35.6283 67.2354 36.1133V38.6377C67.5055 39.1195 67.9189 39.3604 68.4756 39.3604C68.9085 39.3604 69.252 39.1895 69.5059 38.8477C69.763 38.5026 69.8916 37.9915 69.8916 37.3145ZM74.1396 40.0977C73.4235 40.0977 72.8408 39.8633 72.3916 39.3945C71.9424 38.9225 71.7178 38.2926 71.7178 37.5049V37.3389C71.7178 36.8148 71.8171 36.3477 72.0156 35.9375C72.2174 35.5241 72.4974 35.2018 72.8555 34.9707C73.2168 34.7363 73.6074 34.6191 74.0273 34.6191C74.7142 34.6191 75.248 34.8454 75.6289 35.2979C76.0098 35.7503 76.2002 36.3981 76.2002 37.2412V37.6172H72.6211C72.6341 38.138 72.7855 38.5596 73.0752 38.8818C73.3682 39.2008 73.7393 39.3604 74.1885 39.3604C74.5075 39.3604 74.7777 39.2952 74.999 39.165C75.2204 39.0348 75.4141 38.8623 75.5801 38.6475L76.1318 39.0771C75.6891 39.7575 75.0251 40.0977 74.1396 40.0977ZM74.0273 35.3613C73.6628 35.3613 73.3568 35.4948 73.1094 35.7617C72.862 36.0254 72.709 36.3965 72.6504 36.875H75.2969V36.8066C75.2708 36.3477 75.1471 35.9928 74.9258 35.7422C74.7044 35.4883 74.4049 35.3613 74.0273 35.3613ZM13.3779 50.7549L14.3936 46.7168H15.2969L13.7588 52H13.0264L11.7422 47.9961L10.4922 52H9.75977L8.22656 46.7168H9.125L10.165 50.6719L11.3955 46.7168H12.123L13.3779 50.7549ZM17.2012 52H16.2979V46.7168H17.2012V52ZM16.2246 45.3154C16.2246 45.1689 16.2686 45.0452 16.3564 44.9443C16.4476 44.8434 16.5811 44.793 16.7568 44.793C16.9326 44.793 17.0661 44.8434 17.1572 44.9443C17.2484 45.0452 17.2939 45.1689 17.2939 45.3154C17.2939 45.4619 17.2484 45.584 17.1572 45.6816C17.0661 45.7793 16.9326 45.8281 16.7568 45.8281C16.5811 45.8281 16.4476 45.7793 16.3564 45.6816C16.2686 45.584 16.2246 45.4619 16.2246 45.3154ZM19.877 45.4375V46.7168H20.8633V47.415H19.877V50.6914C19.877 50.903 19.9209 51.0625 20.0088 51.1699C20.0967 51.2741 20.2464 51.3262 20.458 51.3262C20.5622 51.3262 20.7054 51.3066 20.8877 51.2676V52C20.6501 52.0651 20.4189 52.0977 20.1943 52.0977C19.7907 52.0977 19.4863 51.9756 19.2812 51.7314C19.0762 51.4873 18.9736 51.1406 18.9736 50.6914V47.415H18.0117V46.7168H18.9736V45.4375H19.877ZM22.8262 47.3564C23.2266 46.8649 23.7474 46.6191 24.3887 46.6191C25.5052 46.6191 26.0684 47.249 26.0781 48.5088V52H25.1748V48.5039C25.1715 48.123 25.0837 47.8415 24.9111 47.6592C24.7419 47.4769 24.4766 47.3857 24.1152 47.3857C23.8223 47.3857 23.5651 47.4639 23.3438 47.6201C23.1224 47.7764 22.9499 47.9814 22.8262 48.2354V52H21.9229V44.5H22.8262V47.3564ZM32.0303 51.3604C32.3525 51.3604 32.6341 51.2627 32.875 51.0674C33.1159 50.8721 33.2493 50.6279 33.2754 50.335H34.1299C34.1136 50.6377 34.0094 50.9258 33.8174 51.1992C33.6253 51.4727 33.3682 51.6908 33.0459 51.8535C32.7269 52.0163 32.3883 52.0977 32.0303 52.0977C31.3109 52.0977 30.738 51.8584 30.3115 51.3799C29.8883 50.8981 29.6768 50.2406 29.6768 49.4072V49.2559C29.6768 48.7415 29.7712 48.2842 29.96 47.8838C30.1488 47.4834 30.4189 47.1725 30.7705 46.9512C31.1253 46.7298 31.5436 46.6191 32.0254 46.6191C32.6178 46.6191 33.1094 46.7965 33.5 47.1514C33.8939 47.5062 34.1038 47.9668 34.1299 48.5332H33.2754C33.2493 48.1914 33.1191 47.9115 32.8848 47.6934C32.6536 47.472 32.3672 47.3613 32.0254 47.3613C31.5664 47.3613 31.21 47.5273 30.9561 47.8594C30.7054 48.1882 30.5801 48.665 30.5801 49.29V49.4609C30.5801 50.0697 30.7054 50.5384 30.9561 50.8672C31.2067 51.196 31.5648 51.3604 32.0303 51.3604ZM37.6992 47.5273C37.5625 47.5046 37.4144 47.4932 37.2549 47.4932C36.6624 47.4932 36.2604 47.7454 36.0488 48.25V52H35.1455V46.7168H36.0244L36.0391 47.3271C36.3353 46.8551 36.7552 46.6191 37.2988 46.6191C37.4746 46.6191 37.6081 46.6419 37.6992 46.6875V47.5273ZM41.6006 52C41.5485 51.8958 41.5062 51.7103 41.4736 51.4434C41.0537 51.8796 40.5524 52.0977 39.9697 52.0977C39.4489 52.0977 39.0208 51.9512 38.6855 51.6582C38.3535 51.362 38.1875 50.9876 38.1875 50.5352C38.1875 49.985 38.3958 49.5586 38.8125 49.2559C39.2324 48.9499 39.8216 48.7969 40.5801 48.7969H41.459V48.3818C41.459 48.0661 41.3646 47.8154 41.1758 47.6299C40.987 47.4411 40.7087 47.3467 40.3408 47.3467C40.0186 47.3467 39.7484 47.4281 39.5303 47.5908C39.3122 47.7536 39.2031 47.9505 39.2031 48.1816H38.2949C38.2949 47.918 38.3877 47.6641 38.5732 47.4199C38.762 47.1725 39.016 46.9772 39.335 46.834C39.6572 46.6908 40.0104 46.6191 40.3945 46.6191C41.0033 46.6191 41.4801 46.7721 41.8252 47.0781C42.1702 47.3809 42.3493 47.7992 42.3623 48.333V50.7646C42.3623 51.2497 42.4242 51.6354 42.5479 51.9219V52H41.6006ZM40.1016 51.3115C40.3848 51.3115 40.6533 51.2383 40.9072 51.0918C41.1611 50.9453 41.3451 50.7549 41.459 50.5205V49.4365H40.751C39.6442 49.4365 39.0908 49.7604 39.0908 50.4082C39.0908 50.6914 39.1852 50.9128 39.374 51.0723C39.5628 51.2318 39.8053 51.3115 40.1016 51.3115ZM45.8975 51.3604C46.2197 51.3604 46.5013 51.2627 46.7422 51.0674C46.9831 50.8721 47.1165 50.6279 47.1426 50.335H47.9971C47.9808 50.6377 47.8766 50.9258 47.6846 51.1992C47.4925 51.4727 47.2354 51.6908 46.9131 51.8535C46.5941 52.0163 46.2555 52.0977 45.8975 52.0977C45.1781 52.0977 44.6051 51.8584 44.1787 51.3799C43.7555 50.8981 43.5439 50.2406 43.5439 49.4072V49.2559C43.5439 48.7415 43.6383 48.2842 43.8271 47.8838C44.016 47.4834 44.2861 47.1725 44.6377 46.9512C44.9925 46.7298 45.4108 46.6191 45.8926 46.6191C46.485 46.6191 46.9766 46.7965 47.3672 47.1514C47.7611 47.5062 47.971 47.9668 47.9971 48.5332H47.1426C47.1165 48.1914 46.9863 47.9115 46.752 47.6934C46.5208 47.472 46.2344 47.3613 45.8926 47.3613C45.4336 47.3613 45.0771 47.5273 44.8232 47.8594C44.5726 48.1882 44.4473 48.665 44.4473 49.29V49.4609C44.4473 50.0697 44.5726 50.5384 44.8232 50.8672C45.0739 51.196 45.432 51.3604 45.8975 51.3604ZM50.4873 49.5537L49.9209 50.1445V52H49.0176V44.5H49.9209V49.0361L50.4043 48.4551L52.0498 46.7168H53.1484L51.0928 48.9238L53.3877 52H52.3281L50.4873 49.5537ZM57.1572 50.5986C57.1572 50.3545 57.0645 50.1657 56.8789 50.0322C56.6966 49.8955 56.376 49.7783 55.917 49.6807C55.4613 49.583 55.0983 49.4658 54.8281 49.3291C54.5612 49.1924 54.3626 49.0296 54.2324 48.8408C54.1055 48.652 54.042 48.4274 54.042 48.167C54.042 47.734 54.2243 47.3678 54.5889 47.0684C54.9567 46.7689 55.4255 46.6191 55.9951 46.6191C56.5941 46.6191 57.0791 46.7738 57.4502 47.083C57.8245 47.3923 58.0117 47.7878 58.0117 48.2695H57.1035C57.1035 48.0221 56.9977 47.8089 56.7861 47.6299C56.5778 47.4508 56.3141 47.3613 55.9951 47.3613C55.6663 47.3613 55.4092 47.4329 55.2236 47.5762C55.0381 47.7194 54.9453 47.9066 54.9453 48.1377C54.9453 48.3558 55.0316 48.5202 55.2041 48.6309C55.3766 48.7415 55.6875 48.8473 56.1367 48.9482C56.5892 49.0492 56.9554 49.1696 57.2354 49.3096C57.5153 49.4495 57.722 49.6188 57.8555 49.8174C57.9922 50.0127 58.0605 50.252 58.0605 50.5352C58.0605 51.0072 57.8717 51.3864 57.4941 51.6729C57.1165 51.9561 56.6266 52.0977 56.0244 52.0977C55.6012 52.0977 55.2269 52.0228 54.9014 51.873C54.5758 51.7233 54.3203 51.515 54.1348 51.248C53.9525 50.9779 53.8613 50.6865 53.8613 50.374H54.7646C54.7809 50.6768 54.9014 50.9176 55.126 51.0967C55.3538 51.2725 55.6533 51.3604 56.0244 51.3604C56.3662 51.3604 56.6396 51.292 56.8447 51.1553C57.0531 51.0153 57.1572 50.8298 57.1572 50.5986ZM62.6992 52H61.7959V46.7168H62.6992V52ZM61.7227 45.3154C61.7227 45.1689 61.7666 45.0452 61.8545 44.9443C61.9456 44.8434 62.0791 44.793 62.2549 44.793C62.4307 44.793 62.5641 44.8434 62.6553 44.9443C62.7464 45.0452 62.792 45.1689 62.792 45.3154C62.792 45.4619 62.7464 45.584 62.6553 45.6816C62.5641 45.7793 62.4307 45.8281 62.2549 45.8281C62.0791 45.8281 61.9456 45.7793 61.8545 45.6816C61.7666 45.584 61.7227 45.4619 61.7227 45.3154ZM65.0039 46.7168L65.0332 47.3809C65.4368 46.873 65.9642 46.6191 66.6152 46.6191C67.7318 46.6191 68.2949 47.249 68.3047 48.5088V52H67.4014V48.5039C67.3981 48.123 67.3102 47.8415 67.1377 47.6592C66.9684 47.4769 66.7031 47.3857 66.3418 47.3857C66.0488 47.3857 65.7917 47.4639 65.5703 47.6201C65.349 47.7764 65.1764 47.9814 65.0527 48.2354V52H64.1494V46.7168H65.0039ZM15.3311 57.4375V58.7168H16.3174V59.415H15.3311V62.6914C15.3311 62.903 15.375 63.0625 15.4629 63.1699C15.5508 63.2741 15.7005 63.3262 15.9121 63.3262C16.0163 63.3262 16.1595 63.3066 16.3418 63.2676V64C16.1042 64.0651 15.873 64.0977 15.6484 64.0977C15.2448 64.0977 14.9404 63.9756 14.7354 63.7314C14.5303 63.4873 14.4277 63.1406 14.4277 62.6914V59.415H13.4658V58.7168H14.4277V57.4375H15.3311ZM18.2803 59.3564C18.6807 58.8649 19.2015 58.6191 19.8428 58.6191C20.9593 58.6191 21.5225 59.249 21.5322 60.5088V64H20.6289V60.5039C20.6257 60.123 20.5378 59.8415 20.3652 59.6592C20.196 59.4769 19.9307 59.3857 19.5693 59.3857C19.2764 59.3857 19.0192 59.4639 18.7979 59.6201C18.5765 59.7764 18.404 59.9814 18.2803 60.2354V64H17.377V56.5H18.2803V59.3564ZM25.0771 64.0977C24.361 64.0977 23.7783 63.8633 23.3291 63.3945C22.8799 62.9225 22.6553 62.2926 22.6553 61.5049V61.3389C22.6553 60.8148 22.7546 60.3477 22.9531 59.9375C23.1549 59.5241 23.4349 59.2018 23.793 58.9707C24.1543 58.7363 24.5449 58.6191 24.9648 58.6191C25.6517 58.6191 26.1855 58.8454 26.5664 59.2979C26.9473 59.7503 27.1377 60.3981 27.1377 61.2412V61.6172H23.5586C23.5716 62.138 23.723 62.5596 24.0127 62.8818C24.3057 63.2008 24.6768 63.3604 25.126 63.3604C25.445 63.3604 25.7152 63.2952 25.9365 63.165C26.1579 63.0348 26.3516 62.8623 26.5176 62.6475L27.0693 63.0771C26.6266 63.7575 25.9626 64.0977 25.0771 64.0977ZM24.9648 59.3613C24.6003 59.3613 24.2943 59.4948 24.0469 59.7617C23.7995 60.0254 23.6465 60.3965 23.5879 60.875H26.2344V60.8066C26.2083 60.3477 26.0846 59.9928 25.8633 59.7422C25.6419 59.4883 25.3424 59.3613 24.9648 59.3613ZM33.7441 62.5986C33.7441 62.3545 33.6514 62.1657 33.4658 62.0322C33.2835 61.8955 32.9629 61.7783 32.5039 61.6807C32.0482 61.583 31.6852 61.4658 31.415 61.3291C31.1481 61.1924 30.9495 61.0296 30.8193 60.8408C30.6924 60.652 30.6289 60.4274 30.6289 60.167C30.6289 59.734 30.8112 59.3678 31.1758 59.0684C31.5436 58.7689 32.0124 58.6191 32.582 58.6191C33.181 58.6191 33.666 58.7738 34.0371 59.083C34.4115 59.3923 34.5986 59.7878 34.5986 60.2695H33.6904C33.6904 60.0221 33.5846 59.8089 33.373 59.6299C33.1647 59.4508 32.901 59.3613 32.582 59.3613C32.2533 59.3613 31.9961 59.4329 31.8105 59.5762C31.625 59.7194 31.5322 59.9066 31.5322 60.1377C31.5322 60.3558 31.6185 60.5202 31.791 60.6309C31.9635 60.7415 32.2744 60.8473 32.7236 60.9482C33.1761 61.0492 33.5423 61.1696 33.8223 61.3096C34.1022 61.4495 34.3089 61.6188 34.4424 61.8174C34.5791 62.0127 34.6475 62.252 34.6475 62.5352C34.6475 63.0072 34.4587 63.3864 34.0811 63.6729C33.7035 63.9561 33.2135 64.0977 32.6113 64.0977C32.1882 64.0977 31.8138 64.0228 31.4883 63.873C31.1628 63.7233 30.9072 63.515 30.7217 63.248C30.5394 62.9779 30.4482 62.6865 30.4482 62.374H31.3516C31.3678 62.6768 31.4883 62.9176 31.7129 63.0967C31.9408 63.2725 32.2402 63.3604 32.6113 63.3604C32.9531 63.3604 33.2266 63.292 33.4316 63.1553C33.64 63.0153 33.7441 62.8298 33.7441 62.5986ZM39.0859 63.4775C38.7344 63.891 38.2184 64.0977 37.5381 64.0977C36.9749 64.0977 36.5452 63.9349 36.249 63.6094C35.9561 63.2806 35.8079 62.7956 35.8047 62.1543V58.7168H36.708V62.1299C36.708 62.9307 37.0335 63.3311 37.6846 63.3311C38.3747 63.3311 38.8337 63.0739 39.0615 62.5596V58.7168H39.9648V64H39.1055L39.0859 63.4775ZM43.8955 59.5273C43.7588 59.5046 43.6107 59.4932 43.4512 59.4932C42.8587 59.4932 42.4567 59.7454 42.2451 60.25V64H41.3418V58.7168H42.2207L42.2354 59.3271C42.5316 58.8551 42.9515 58.6191 43.4951 58.6191C43.6709 58.6191 43.8044 58.6419 43.8955 58.6875V59.5273ZM45.2529 64V59.415H44.418V58.7168H45.2529V58.1748C45.2529 57.6084 45.4043 57.1706 45.707 56.8613C46.0098 56.5521 46.4378 56.3975 46.9912 56.3975C47.1995 56.3975 47.4062 56.4251 47.6113 56.4805L47.5625 57.2129C47.4095 57.1836 47.2467 57.1689 47.0742 57.1689C46.7812 57.1689 46.555 57.2552 46.3955 57.4277C46.236 57.597 46.1562 57.8411 46.1562 58.1602V58.7168H47.2842V59.415H46.1562V64H45.2529ZM51.5469 64C51.4948 63.8958 51.4525 63.7103 51.4199 63.4434C51 63.8796 50.4987 64.0977 49.916 64.0977C49.3952 64.0977 48.9671 63.9512 48.6318 63.6582C48.2998 63.362 48.1338 62.9876 48.1338 62.5352C48.1338 61.985 48.3421 61.5586 48.7588 61.2559C49.1787 60.9499 49.7679 60.7969 50.5264 60.7969H51.4053V60.3818C51.4053 60.0661 51.3109 59.8154 51.1221 59.6299C50.9333 59.4411 50.6549 59.3467 50.2871 59.3467C49.9648 59.3467 49.6947 59.4281 49.4766 59.5908C49.2585 59.7536 49.1494 59.9505 49.1494 60.1816H48.2412C48.2412 59.918 48.334 59.6641 48.5195 59.4199C48.7083 59.1725 48.9622 58.9772 49.2812 58.834C49.6035 58.6908 49.9567 58.6191 50.3408 58.6191C50.9495 58.6191 51.4264 58.7721 51.7715 59.0781C52.1165 59.3809 52.2956 59.7992 52.3086 60.333V62.7646C52.3086 63.2497 52.3704 63.6354 52.4941 63.9219V64H51.5469ZM50.0479 63.3115C50.3311 63.3115 50.5996 63.2383 50.8535 63.0918C51.1074 62.9453 51.2913 62.7549 51.4053 62.5205V61.4365H50.6973C49.5905 61.4365 49.0371 61.7604 49.0371 62.4082C49.0371 62.6914 49.1315 62.9128 49.3203 63.0723C49.5091 63.2318 49.7516 63.3115 50.0479 63.3115ZM55.8438 63.3604C56.166 63.3604 56.4476 63.2627 56.6885 63.0674C56.9294 62.8721 57.0628 62.6279 57.0889 62.335H57.9434C57.9271 62.6377 57.8229 62.9258 57.6309 63.1992C57.4388 63.4727 57.1816 63.6908 56.8594 63.8535C56.5404 64.0163 56.2018 64.0977 55.8438 64.0977C55.1243 64.0977 54.5514 63.8584 54.125 63.3799C53.7018 62.8981 53.4902 62.2406 53.4902 61.4072V61.2559C53.4902 60.7415 53.5846 60.2842 53.7734 59.8838C53.9622 59.4834 54.2324 59.1725 54.584 58.9512C54.9388 58.7298 55.3571 58.6191 55.8389 58.6191C56.4313 58.6191 56.9229 58.7965 57.3135 59.1514C57.7074 59.5062 57.9173 59.9668 57.9434 60.5332H57.0889C57.0628 60.1914 56.9326 59.9115 56.6982 59.6934C56.4671 59.472 56.1807 59.3613 55.8389 59.3613C55.3799 59.3613 55.0234 59.5273 54.7695 59.8594C54.5189 60.1882 54.3936 60.665 54.3936 61.29V61.4609C54.3936 62.0697 54.5189 62.5384 54.7695 62.8672C55.0202 63.196 55.3783 63.3604 55.8438 63.3604ZM61.1514 64.0977C60.4352 64.0977 59.8525 63.8633 59.4033 63.3945C58.9541 62.9225 58.7295 62.2926 58.7295 61.5049V61.3389C58.7295 60.8148 58.8288 60.3477 59.0273 59.9375C59.2292 59.5241 59.5091 59.2018 59.8672 58.9707C60.2285 58.7363 60.6191 58.6191 61.0391 58.6191C61.7259 58.6191 62.2598 58.8454 62.6406 59.2979C63.0215 59.7503 63.2119 60.3981 63.2119 61.2412V61.6172H59.6328C59.6458 62.138 59.7972 62.5596 60.0869 62.8818C60.3799 63.2008 60.751 63.3604 61.2002 63.3604C61.5192 63.3604 61.7894 63.2952 62.0107 63.165C62.2321 63.0348 62.4258 62.8623 62.5918 62.6475L63.1436 63.0771C62.7008 63.7575 62.0368 64.0977 61.1514 64.0977ZM61.0391 59.3613C60.6745 59.3613 60.3685 59.4948 60.1211 59.7617C59.8737 60.0254 59.7207 60.3965 59.6621 60.875H62.3086V60.8066C62.2826 60.3477 62.1589 59.9928 61.9375 59.7422C61.7161 59.4883 61.4167 59.3613 61.0391 59.3613Z" fill="#666666"/>
</svg>
