<svg width="77" height="47" viewBox="0 0 77 47" fill="none" xmlns="http://www.w3.org/2000/svg">
<path d="M50.8172 9.84828C50.3598 9.37261 49.7838 9.00749 49.1604 8.7864C48.5336 8.56532 47.856 8.49498 47.1987 8.57537C46.7345 8.63231 46.2873 8.7663 45.8671 8.96729C45.6977 9.04768 45.4945 8.97734 45.4131 8.8132C45.3894 8.76296 45.3793 8.71271 45.3793 8.65911C45.3793 8.55527 45.4301 8.45478 45.5216 8.38778C45.8909 8.1265 46.1789 7.77143 46.355 7.35941C46.6125 6.76315 46.6159 6.10325 46.3686 5.5003C46.1213 4.90069 45.6537 4.42837 45.0506 4.17714C44.4679 3.93261 43.8241 3.91921 43.2312 4.1403C43.2041 4.15369 43.177 4.16374 43.1499 4.17044C42.9839 4.22404 42.7975 4.1403 42.7297 3.97616C42.6925 3.88236 42.6993 3.78187 42.7433 3.69813C42.7467 3.65458 42.7501 3.61103 42.7501 3.56749C42.7772 2.93103 42.6586 2.28788 42.4011 1.70502C42.1978 1.23606 41.903 0.807291 41.5439 0.438818C41.4253 0.579507 41.2898 0.706798 41.1373 0.81064C40.8629 1.00158 40.5444 1.12887 40.2124 1.17911C39.8803 1.22936 39.5381 1.19921 39.2196 1.09537C38.9317 1.00158 38.6742 0.854187 38.4472 0.653202C38.4336 0.639803 38.42 0.629754 38.4099 0.616355C38.2032 0.432118 37.9694 0.288079 37.7119 0.184236C37.4138 0.0602956 37.0953 0 36.7734 0C36.4515 0 36.1331 0.0636453 35.8349 0.184236C35.5368 0.308177 35.2657 0.482364 35.0387 0.710148C34.8083 0.937931 34.6287 1.20256 34.5068 1.49734C34.3814 1.79212 34.3204 2.10699 34.3204 2.42522C34.3204 2.74345 34.3848 3.05832 34.5068 3.3531C34.6016 3.57754 34.727 3.78857 34.8862 3.97281C35.0048 4.11685 34.9845 4.32788 34.8422 4.44512C34.727 4.53892 34.5678 4.54562 34.4458 4.47192C34.4322 4.46522 34.4153 4.45517 34.4017 4.44512C34.1713 4.27094 33.9138 4.1403 33.6394 4.05655C33.3141 3.95606 32.9753 3.92591 32.6365 3.96276C32.2977 3.99961 31.9758 4.1068 31.6811 4.27429C31.3863 4.44512 31.1356 4.66956 30.9323 4.94089C30.7324 5.21222 30.5901 5.51704 30.5156 5.84867C30.441 6.17695 30.4376 6.51192 30.502 6.84355C30.5664 7.17517 30.7019 7.48335 30.895 7.76138C31.0915 8.03941 31.3355 8.26719 31.6269 8.44473C31.7149 8.49832 31.7692 8.58542 31.7861 8.68256C31.7997 8.75626 31.7895 8.8333 31.7522 8.90365C31.6641 9.06778 31.4575 9.12808 31.2948 9.04098C30.7256 8.73951 30.0819 8.56532 29.4347 8.54187C28.7876 8.51842 28.1337 8.64236 27.5408 8.9003C26.9479 9.15823 26.4159 9.55685 25.9992 10.0459C25.5824 10.535 25.2809 11.1245 25.125 11.7442C24.9692 12.3639 24.959 13.0238 25.0946 13.6502C25.2301 14.2766 25.5147 14.8729 25.9145 15.3754C26.3143 15.8778 26.836 16.2899 27.4188 16.5679C28.0016 16.8459 28.6521 16.99 29.2992 16.9833C29.3365 16.9833 29.3738 16.99 29.4076 17H47.6256C47.6595 16.99 47.6933 16.9833 47.7306 16.9833C48.3947 16.9833 49.0588 16.8258 49.6517 16.531C50.2446 16.2363 50.7664 15.8008 51.1628 15.2715C51.5592 14.7456 51.8269 14.1226 51.9387 13.4761C52.0505 12.8296 52.0098 12.1563 51.8133 11.5265C51.6202 10.9068 51.2746 10.3239 50.8172 9.84828Z" fill="#C4C4C4"/>
<path d="M32.6211 40.6748C32.6211 41.3714 32.5039 41.9801 32.2695 42.501C32.0352 43.0186 31.7031 43.4141 31.2734 43.6875C30.8438 43.9609 30.3424 44.0977 29.7695 44.0977C29.2096 44.0977 28.7132 43.9609 28.2803 43.6875C27.8473 43.4108 27.5104 43.0186 27.2695 42.5107C27.0319 41.9997 26.9098 41.4089 26.9033 40.7383V40.2256C26.9033 39.542 27.0221 38.9382 27.2598 38.4141C27.4974 37.89 27.8327 37.4896 28.2656 37.2129C28.7018 36.9329 29.1999 36.793 29.7598 36.793C30.3294 36.793 30.8307 36.9313 31.2637 37.208C31.6999 37.4814 32.0352 37.8802 32.2695 38.4043C32.5039 38.9251 32.6211 39.5322 32.6211 40.2256V40.6748ZM31.6885 40.2158C31.6885 39.3727 31.5192 38.7266 31.1807 38.2773C30.8421 37.8249 30.3685 37.5986 29.7598 37.5986C29.1673 37.5986 28.7002 37.8249 28.3584 38.2773C28.0199 38.7266 27.8457 39.3516 27.8359 40.1523V40.6748C27.8359 41.4919 28.0068 42.1348 28.3486 42.6035C28.6937 43.069 29.1673 43.3018 29.7695 43.3018C30.375 43.3018 30.8438 43.082 31.1758 42.6426C31.5078 42.1999 31.6787 41.5667 31.6885 40.7432V40.2158ZM35.1113 37.4375V38.7168H36.0977V39.415H35.1113V42.6914C35.1113 42.903 35.1553 43.0625 35.2432 43.1699C35.3311 43.2741 35.4808 43.3262 35.6924 43.3262C35.7965 43.3262 35.9398 43.3066 36.1221 43.2676V44C35.8844 44.0651 35.6533 44.0977 35.4287 44.0977C35.0251 44.0977 34.7207 43.9756 34.5156 43.7314C34.3105 43.4873 34.208 43.1406 34.208 42.6914V39.415H33.2461V38.7168H34.208V37.4375H35.1113ZM38.0605 39.3564C38.4609 38.8649 38.9818 38.6191 39.623 38.6191C40.7396 38.6191 41.3027 39.249 41.3125 40.5088V44H40.4092V40.5039C40.4059 40.123 40.318 39.8415 40.1455 39.6592C39.9762 39.4769 39.7109 39.3857 39.3496 39.3857C39.0566 39.3857 38.7995 39.4639 38.5781 39.6201C38.3568 39.7764 38.1842 39.9814 38.0605 40.2354V44H37.1572V36.5H38.0605V39.3564ZM44.8574 44.0977C44.1413 44.0977 43.5586 43.8633 43.1094 43.3945C42.6602 42.9225 42.4355 42.2926 42.4355 41.5049V41.3389C42.4355 40.8148 42.5348 40.3477 42.7334 39.9375C42.9352 39.5241 43.2152 39.2018 43.5732 38.9707C43.9346 38.7363 44.3252 38.6191 44.7451 38.6191C45.432 38.6191 45.9658 38.8454 46.3467 39.2979C46.7275 39.7503 46.918 40.3981 46.918 41.2412V41.6172H43.3389C43.3519 42.138 43.5033 42.5596 43.793 42.8818C44.0859 43.2008 44.457 43.3604 44.9062 43.3604C45.2253 43.3604 45.4954 43.2952 45.7168 43.165C45.9382 43.0348 46.1318 42.8623 46.2979 42.6475L46.8496 43.0771C46.4069 43.7575 45.7428 44.0977 44.8574 44.0977ZM44.7451 39.3613C44.3805 39.3613 44.0745 39.4948 43.8271 39.7617C43.5798 40.0254 43.4268 40.3965 43.3682 40.875H46.0146V40.8066C45.9886 40.3477 45.8649 39.9928 45.6436 39.7422C45.4222 39.4883 45.1227 39.3613 44.7451 39.3613ZM50.5215 39.5273C50.3848 39.5046 50.2367 39.4932 50.0771 39.4932C49.4847 39.4932 49.0827 39.7454 48.8711 40.25V44H47.9678V38.7168H48.8467L48.8613 39.3271C49.1576 38.8551 49.5775 38.6191 50.1211 38.6191C50.2969 38.6191 50.4303 38.6419 50.5215 38.6875V39.5273Z" fill="#666666"/>
</svg>
