<svg width="77" height="59" viewBox="0 0 77 59" fill="none" xmlns="http://www.w3.org/2000/svg">
<circle cx="25" cy="5" r="5" fill="#C4C4C4"/>
<circle cx="53" cy="6" r="5" fill="#C4C4C4"/>
<circle cx="34.5" cy="5.5" r="4.5" fill="#C4C4C4"/>
<circle cx="39" cy="12" r="3" fill="#C4C4C4"/>
<circle cx="54" cy="13" r="3" fill="#C4C4C4"/>
<circle cx="22" cy="12" r="3" fill="#C4C4C4"/>
<circle cx="31" cy="14" r="5" fill="#C4C4C4"/>
<circle cx="4.5" cy="4.5" r="4.5" transform="matrix(-1 0 0 1 48 1)" fill="#C4C4C4"/>
<circle cx="4.5" cy="4.5" r="4.5" transform="matrix(-1 0 0 1 51 9)" fill="#C4C4C4"/>
<path d="M15.8535 43.2334H19.2227V44H14.9111V36.8906H15.8535V43.2334ZM23.1973 43.4775C22.8457 43.891 22.3298 44.0977 21.6494 44.0977C21.0863 44.0977 20.6566 43.9349 20.3604 43.6094C20.0674 43.2806 19.9193 42.7956 19.916 42.1543V38.7168H20.8193V42.1299C20.8193 42.9307 21.1449 43.3311 21.7959 43.3311C22.486 43.3311 22.945 43.0739 23.1729 42.5596V38.7168H24.0762V44H23.2168L23.1973 43.4775ZM26.3027 38.7168L26.3271 39.3027C26.7145 38.847 27.237 38.6191 27.8945 38.6191C28.6335 38.6191 29.1364 38.9023 29.4033 39.4688C29.5791 39.2148 29.807 39.0098 30.0869 38.8535C30.3701 38.6973 30.7038 38.6191 31.0879 38.6191C32.2467 38.6191 32.8359 39.2327 32.8555 40.46V44H31.9521V40.5137C31.9521 40.1361 31.8659 39.8545 31.6934 39.6689C31.5208 39.4801 31.2311 39.3857 30.8242 39.3857C30.4889 39.3857 30.2106 39.4867 29.9893 39.6885C29.7679 39.887 29.6393 40.1556 29.6035 40.4941V44H28.6953V40.5381C28.6953 39.7699 28.3193 39.3857 27.5674 39.3857C26.9749 39.3857 26.5697 39.638 26.3516 40.1426V44H25.4482V38.7168H26.3027ZM38.6855 41.417C38.6855 42.221 38.5016 42.8688 38.1338 43.3604C37.766 43.8519 37.2679 44.0977 36.6396 44.0977C35.9984 44.0977 35.4938 43.8942 35.126 43.4873V46.0312H34.2227V38.7168H35.0479L35.0918 39.3027C35.4596 38.847 35.9707 38.6191 36.625 38.6191C37.2598 38.6191 37.7611 38.8584 38.1289 39.3369C38.5 39.8154 38.6855 40.4811 38.6855 41.334V41.417ZM37.7822 41.3145C37.7822 40.7188 37.6553 40.2484 37.4014 39.9033C37.1475 39.5583 36.7992 39.3857 36.3564 39.3857C35.8096 39.3857 35.3994 39.6283 35.126 40.1133V42.6377C35.3962 43.1195 35.8096 43.3604 36.3662 43.3604C36.7992 43.3604 37.1426 43.1895 37.3965 42.8477C37.6536 42.5026 37.7822 41.9915 37.7822 41.3145ZM41.5078 42.6768L42.7383 38.7168H43.7051L41.5811 44.8154C41.2523 45.6943 40.7298 46.1338 40.0137 46.1338L39.8428 46.1191L39.5059 46.0557V45.3232L39.75 45.3428C40.056 45.3428 40.2936 45.2809 40.4629 45.1572C40.6354 45.0335 40.777 44.8073 40.8877 44.4785L41.0879 43.9414L39.2031 38.7168H40.1895L41.5078 42.6768ZM50.2578 44C50.2057 43.8958 50.1634 43.7103 50.1309 43.4434C49.7109 43.8796 49.2096 44.0977 48.627 44.0977C48.1061 44.0977 47.6781 43.9512 47.3428 43.6582C47.0107 43.362 46.8447 42.9876 46.8447 42.5352C46.8447 41.985 47.0531 41.5586 47.4697 41.2559C47.8896 40.9499 48.4788 40.7969 49.2373 40.7969H50.1162V40.3818C50.1162 40.0661 50.0218 39.8154 49.833 39.6299C49.6442 39.4411 49.3659 39.3467 48.998 39.3467C48.6758 39.3467 48.4056 39.4281 48.1875 39.5908C47.9694 39.7536 47.8604 39.9505 47.8604 40.1816H46.9521C46.9521 39.918 47.0449 39.6641 47.2305 39.4199C47.4193 39.1725 47.6732 38.9772 47.9922 38.834C48.3145 38.6908 48.6676 38.6191 49.0518 38.6191C49.6605 38.6191 50.1374 38.7721 50.4824 39.0781C50.8275 39.3809 51.0065 39.7992 51.0195 40.333V42.7646C51.0195 43.2497 51.0814 43.6354 51.2051 43.9219V44H50.2578ZM48.7588 43.3115C49.042 43.3115 49.3105 43.2383 49.5645 43.0918C49.8184 42.9453 50.0023 42.7549 50.1162 42.5205V41.4365H49.4082C48.3014 41.4365 47.748 41.7604 47.748 42.4082C47.748 42.6914 47.8424 42.9128 48.0312 43.0723C48.2201 43.2318 48.4626 43.3115 48.7588 43.3115ZM53.29 38.7168L53.3193 39.3809C53.723 38.873 54.2503 38.6191 54.9014 38.6191C56.0179 38.6191 56.5811 39.249 56.5908 40.5088V44H55.6875V40.5039C55.6842 40.123 55.5964 39.8415 55.4238 39.6592C55.2546 39.4769 54.9893 39.3857 54.6279 39.3857C54.335 39.3857 54.0778 39.4639 53.8564 39.6201C53.6351 39.7764 53.4626 39.9814 53.3389 40.2354V44H52.4355V38.7168H53.29ZM57.7334 41.3145C57.7334 40.5039 57.9255 39.8529 58.3096 39.3613C58.6937 38.8665 59.1966 38.6191 59.8184 38.6191C60.4368 38.6191 60.9268 38.8307 61.2881 39.2539V36.5H62.1914V44H61.3613L61.3174 43.4336C60.9561 43.8763 60.4531 44.0977 59.8086 44.0977C59.1966 44.0977 58.6969 43.847 58.3096 43.3457C57.9255 42.8444 57.7334 42.1901 57.7334 41.3828V41.3145ZM58.6367 41.417C58.6367 42.016 58.7604 42.4847 59.0078 42.8232C59.2552 43.1618 59.597 43.3311 60.0332 43.3311C60.6061 43.3311 61.0244 43.0739 61.2881 42.5596V40.1328C61.0179 39.6348 60.6029 39.3857 60.043 39.3857C59.6003 39.3857 59.2552 39.5566 59.0078 39.8984C58.7604 40.2402 58.6367 40.7464 58.6367 41.417ZM14.6377 54.5986C14.6377 54.3545 14.5449 54.1657 14.3594 54.0322C14.1771 53.8955 13.8564 53.7783 13.3975 53.6807C12.9417 53.583 12.5788 53.4658 12.3086 53.3291C12.0417 53.1924 11.8431 53.0296 11.7129 52.8408C11.5859 52.652 11.5225 52.4274 11.5225 52.167C11.5225 51.734 11.7048 51.3678 12.0693 51.0684C12.4372 50.7689 12.9059 50.6191 13.4756 50.6191C14.0745 50.6191 14.5596 50.7738 14.9307 51.083C15.305 51.3923 15.4922 51.7878 15.4922 52.2695H14.584C14.584 52.0221 14.4782 51.8089 14.2666 51.6299C14.0583 51.4508 13.7946 51.3613 13.4756 51.3613C13.1468 51.3613 12.8896 51.4329 12.7041 51.5762C12.5186 51.7194 12.4258 51.9066 12.4258 52.1377C12.4258 52.3558 12.512 52.5202 12.6846 52.6309C12.8571 52.7415 13.168 52.8473 13.6172 52.9482C14.0697 53.0492 14.4359 53.1696 14.7158 53.3096C14.9958 53.4495 15.2025 53.6188 15.3359 53.8174C15.4727 54.0127 15.541 54.252 15.541 54.5352C15.541 55.0072 15.3522 55.3864 14.9746 55.6729C14.597 55.9561 14.1071 56.0977 13.5049 56.0977C13.0817 56.0977 12.7074 56.0228 12.3818 55.873C12.0563 55.7233 11.8008 55.515 11.6152 55.248C11.4329 54.9779 11.3418 54.6865 11.3418 54.374H12.2451C12.2614 54.6768 12.3818 54.9176 12.6064 55.0967C12.8343 55.2725 13.1338 55.3604 13.5049 55.3604C13.8467 55.3604 14.1201 55.292 14.3252 55.1553C14.5335 55.0153 14.6377 54.8298 14.6377 54.5986ZM19.9795 56C19.9274 55.8958 19.8851 55.7103 19.8525 55.4434C19.4326 55.8796 18.9313 56.0977 18.3486 56.0977C17.8278 56.0977 17.3997 55.9512 17.0645 55.6582C16.7324 55.362 16.5664 54.9876 16.5664 54.5352C16.5664 53.985 16.7747 53.5586 17.1914 53.2559C17.6113 52.9499 18.2005 52.7969 18.959 52.7969H19.8379V52.3818C19.8379 52.0661 19.7435 51.8154 19.5547 51.6299C19.3659 51.4411 19.0876 51.3467 18.7197 51.3467C18.3975 51.3467 18.1273 51.4281 17.9092 51.5908C17.6911 51.7536 17.582 51.9505 17.582 52.1816H16.6738C16.6738 51.918 16.7666 51.6641 16.9521 51.4199C17.141 51.1725 17.3949 50.9772 17.7139 50.834C18.0361 50.6908 18.3893 50.6191 18.7734 50.6191C19.3822 50.6191 19.859 50.7721 20.2041 51.0781C20.5492 51.3809 20.7282 51.7992 20.7412 52.333V54.7646C20.7412 55.2497 20.8031 55.6354 20.9268 55.9219V56H19.9795ZM18.4805 55.3115C18.7637 55.3115 19.0322 55.2383 19.2861 55.0918C19.54 54.9453 19.724 54.7549 19.8379 54.5205V53.4365H19.1299C18.0231 53.4365 17.4697 53.7604 17.4697 54.4082C17.4697 54.6914 17.5641 54.9128 17.7529 55.0723C17.9417 55.2318 18.1842 55.3115 18.4805 55.3115ZM25.4189 55.4775C25.0674 55.891 24.5514 56.0977 23.8711 56.0977C23.3079 56.0977 22.8783 55.9349 22.582 55.6094C22.2891 55.2806 22.141 54.7956 22.1377 54.1543V50.7168H23.041V54.1299C23.041 54.9307 23.3665 55.3311 24.0176 55.3311C24.7077 55.3311 25.1667 55.0739 25.3945 54.5596V50.7168H26.2979V56H25.4385L25.4189 55.4775ZM30.751 54.5986C30.751 54.3545 30.6582 54.1657 30.4727 54.0322C30.2904 53.8955 29.9697 53.7783 29.5107 53.6807C29.055 53.583 28.6921 53.4658 28.4219 53.3291C28.1549 53.1924 27.9564 53.0296 27.8262 52.8408C27.6992 52.652 27.6357 52.4274 27.6357 52.167C27.6357 51.734 27.818 51.3678 28.1826 51.0684C28.5505 50.7689 29.0192 50.6191 29.5889 50.6191C30.1878 50.6191 30.6729 50.7738 31.0439 51.083C31.4183 51.3923 31.6055 51.7878 31.6055 52.2695H30.6973C30.6973 52.0221 30.5915 51.8089 30.3799 51.6299C30.1715 51.4508 29.9079 51.3613 29.5889 51.3613C29.2601 51.3613 29.0029 51.4329 28.8174 51.5762C28.6318 51.7194 28.5391 51.9066 28.5391 52.1377C28.5391 52.3558 28.6253 52.5202 28.7979 52.6309C28.9704 52.7415 29.2812 52.8473 29.7305 52.9482C30.1829 53.0492 30.5492 53.1696 30.8291 53.3096C31.109 53.4495 31.3158 53.6188 31.4492 53.8174C31.5859 54.0127 31.6543 54.252 31.6543 54.5352C31.6543 55.0072 31.4655 55.3864 31.0879 55.6729C30.7103 55.9561 30.2204 56.0977 29.6182 56.0977C29.195 56.0977 28.8206 56.0228 28.4951 55.873C28.1696 55.7233 27.9141 55.515 27.7285 55.248C27.5462 54.9779 27.4551 54.6865 27.4551 54.374H28.3584C28.3747 54.6768 28.4951 54.9176 28.7197 55.0967C28.9476 55.2725 29.2471 55.3604 29.6182 55.3604C29.96 55.3604 30.2334 55.292 30.4385 55.1553C30.6468 55.0153 30.751 54.8298 30.751 54.5986ZM36.0928 56C36.0407 55.8958 35.9984 55.7103 35.9658 55.4434C35.5459 55.8796 35.0446 56.0977 34.4619 56.0977C33.9411 56.0977 33.513 55.9512 33.1777 55.6582C32.8457 55.362 32.6797 54.9876 32.6797 54.5352C32.6797 53.985 32.888 53.5586 33.3047 53.2559C33.7246 52.9499 34.3138 52.7969 35.0723 52.7969H35.9512V52.3818C35.9512 52.0661 35.8568 51.8154 35.668 51.6299C35.4792 51.4411 35.2008 51.3467 34.833 51.3467C34.5107 51.3467 34.2406 51.4281 34.0225 51.5908C33.8044 51.7536 33.6953 51.9505 33.6953 52.1816H32.7871C32.7871 51.918 32.8799 51.6641 33.0654 51.4199C33.2542 51.1725 33.5081 50.9772 33.8271 50.834C34.1494 50.6908 34.5026 50.6191 34.8867 50.6191C35.4954 50.6191 35.9723 50.7721 36.3174 51.0781C36.6624 51.3809 36.8415 51.7992 36.8545 52.333V54.7646C36.8545 55.2497 36.9163 55.6354 37.04 55.9219V56H36.0928ZM34.5938 55.3115C34.877 55.3115 35.1455 55.2383 35.3994 55.0918C35.6533 54.9453 35.8372 54.7549 35.9512 54.5205V53.4365H35.2432C34.1364 53.4365 33.583 53.7604 33.583 54.4082C33.583 54.6914 33.6774 54.9128 33.8662 55.0723C34.055 55.2318 34.2975 55.3115 34.5938 55.3115ZM38.0557 53.3145C38.0557 52.4909 38.2461 51.8366 38.627 51.3516C39.0078 50.8633 39.5124 50.6191 40.1406 50.6191C40.7852 50.6191 41.2881 50.847 41.6494 51.3027L41.6934 50.7168H42.5186V55.873C42.5186 56.5566 42.3151 57.0954 41.9082 57.4893C41.5046 57.8831 40.9609 58.0801 40.2773 58.0801C39.8965 58.0801 39.5238 57.9987 39.1592 57.8359C38.7946 57.6732 38.5163 57.4502 38.3242 57.167L38.793 56.625C39.1803 57.1035 39.654 57.3428 40.2139 57.3428C40.6533 57.3428 40.9951 57.2191 41.2393 56.9717C41.4867 56.7243 41.6104 56.376 41.6104 55.9268V55.4727C41.249 55.8893 40.7559 56.0977 40.1309 56.0977C39.5124 56.0977 39.0111 55.8486 38.627 55.3506C38.2461 54.8525 38.0557 54.1738 38.0557 53.3145ZM38.9639 53.417C38.9639 54.0127 39.0859 54.4814 39.3301 54.8232C39.5742 55.1618 39.916 55.3311 40.3555 55.3311C40.9251 55.3311 41.3434 55.0723 41.6104 54.5547V52.1426C41.3337 51.638 40.9186 51.3857 40.3652 51.3857C39.9258 51.3857 39.5824 51.5566 39.335 51.8984C39.0876 52.2402 38.9639 52.7464 38.9639 53.417ZM46.0781 56.0977C45.362 56.0977 44.7793 55.8633 44.3301 55.3945C43.8809 54.9225 43.6562 54.2926 43.6562 53.5049V53.3389C43.6562 52.8148 43.7555 52.3477 43.9541 51.9375C44.1559 51.5241 44.4359 51.2018 44.7939 50.9707C45.1553 50.7363 45.5459 50.6191 45.9658 50.6191C46.6527 50.6191 47.1865 50.8454 47.5674 51.2979C47.9482 51.7503 48.1387 52.3981 48.1387 53.2412V53.6172H44.5596C44.5726 54.138 44.724 54.5596 45.0137 54.8818C45.3066 55.2008 45.6777 55.3604 46.127 55.3604C46.446 55.3604 46.7161 55.2952 46.9375 55.165C47.1589 55.0348 47.3525 54.8623 47.5186 54.6475L48.0703 55.0771C47.6276 55.7575 46.9635 56.0977 46.0781 56.0977ZM45.9658 51.3613C45.6012 51.3613 45.2952 51.4948 45.0479 51.7617C44.8005 52.0254 44.6475 52.3965 44.5889 52.875H47.2354V52.8066C47.2093 52.3477 47.0856 51.9928 46.8643 51.7422C46.6429 51.4883 46.3434 51.3613 45.9658 51.3613ZM52.6504 56H51.7471V48.5H52.6504V56ZM55.082 56H54.1787V50.7168H55.082V56ZM54.1055 49.3154C54.1055 49.1689 54.1494 49.0452 54.2373 48.9443C54.3285 48.8434 54.4619 48.793 54.6377 48.793C54.8135 48.793 54.9469 48.8434 55.0381 48.9443C55.1292 49.0452 55.1748 49.1689 55.1748 49.3154C55.1748 49.4619 55.1292 49.584 55.0381 49.6816C54.9469 49.7793 54.8135 49.8281 54.6377 49.8281C54.4619 49.8281 54.3285 49.7793 54.2373 49.6816C54.1494 49.584 54.1055 49.4619 54.1055 49.3154ZM58.0068 53.5537L57.4404 54.1445V56H56.5371V48.5H57.4404V53.0361L57.9238 52.4551L59.5693 50.7168H60.668L58.6123 52.9238L60.9072 56H59.8477L58.0068 53.5537ZM63.6953 56.0977C62.9792 56.0977 62.3965 55.8633 61.9473 55.3945C61.498 54.9225 61.2734 54.2926 61.2734 53.5049V53.3389C61.2734 52.8148 61.3727 52.3477 61.5713 51.9375C61.7731 51.5241 62.0531 51.2018 62.4111 50.9707C62.7725 50.7363 63.1631 50.6191 63.583 50.6191C64.2699 50.6191 64.8037 50.8454 65.1846 51.2979C65.5654 51.7503 65.7559 52.3981 65.7559 53.2412V53.6172H62.1768C62.1898 54.138 62.3411 54.5596 62.6309 54.8818C62.9238 55.2008 63.2949 55.3604 63.7441 55.3604C64.0632 55.3604 64.3333 55.2952 64.5547 55.165C64.776 55.0348 64.9697 54.8623 65.1357 54.6475L65.6875 55.0771C65.2448 55.7575 64.5807 56.0977 63.6953 56.0977ZM63.583 51.3613C63.2184 51.3613 62.9124 51.4948 62.665 51.7617C62.4176 52.0254 62.2646 52.3965 62.2061 52.875H64.8525V52.8066C64.8265 52.3477 64.7028 51.9928 64.4814 51.7422C64.2601 51.4883 63.9606 51.3613 63.583 51.3613Z" fill="#666666"/>
</svg>
