<svg width="76" height="74" viewBox="0 0 76 74" fill="none" xmlns="http://www.w3.org/2000/svg">
<path d="M8.75874 7.15161C11.7587 4.15161 24.5666 6.15136 37.2586 6.15136C49.9507 6.15136 59.7587 -3.84834 68.7586 1.65136C73.0906 4.29858 70.9177 8.24009 66.7587 11.1516C61.7587 14.6519 49.9507 19.1514 37.2586 19.1514C24.5666 19.1514 9.25881 26.6519 4.75876 16.6516C2.67544 12.0219 5.1689 10.7415 8.75874 7.15161Z" fill="#C4C4C4"/>
<path d="M7.4873 46.2334H10.8564V47H6.54492V39.8906H7.4873V46.2334ZM12.7656 47H11.8623V41.7168H12.7656V47ZM11.7891 40.3154C11.7891 40.1689 11.833 40.0452 11.9209 39.9443C12.012 39.8434 12.1455 39.793 12.3213 39.793C12.4971 39.793 12.6305 39.8434 12.7217 39.9443C12.8128 40.0452 12.8584 40.1689 12.8584 40.3154C12.8584 40.4619 12.8128 40.584 12.7217 40.6816C12.6305 40.7793 12.4971 40.8281 12.3213 40.8281C12.1455 40.8281 12.012 40.7793 11.9209 40.6816C11.833 40.584 11.7891 40.4619 11.7891 40.3154ZM15.6904 44.5537L15.124 45.1445V47H14.2207V39.5H15.124V44.0361L15.6074 43.4551L17.2529 41.7168H18.3516L16.2959 43.9238L18.5908 47H17.5312L15.6904 44.5537ZM21.3789 47.0977C20.6628 47.0977 20.0801 46.8633 19.6309 46.3945C19.1816 45.9225 18.957 45.2926 18.957 44.5049V44.3389C18.957 43.8148 19.0563 43.3477 19.2549 42.9375C19.4567 42.5241 19.7367 42.2018 20.0947 41.9707C20.4561 41.7363 20.8467 41.6191 21.2666 41.6191C21.9535 41.6191 22.4873 41.8454 22.8682 42.2979C23.249 42.7503 23.4395 43.3981 23.4395 44.2412V44.6172H19.8604C19.8734 45.138 20.0247 45.5596 20.3145 45.8818C20.6074 46.2008 20.9785 46.3604 21.4277 46.3604C21.7467 46.3604 22.0169 46.2952 22.2383 46.165C22.4596 46.0348 22.6533 45.8623 22.8193 45.6475L23.3711 46.0771C22.9284 46.7575 22.2643 47.0977 21.3789 47.0977ZM21.2666 42.3613C20.902 42.3613 20.596 42.4948 20.3486 42.7617C20.1012 43.0254 19.9482 43.3965 19.8896 43.875H22.5361V43.8066C22.5101 43.3477 22.3864 42.9928 22.165 42.7422C21.9437 42.4883 21.6442 42.3613 21.2666 42.3613ZM30.2314 47C30.1794 46.8958 30.137 46.7103 30.1045 46.4434C29.6846 46.8796 29.1833 47.0977 28.6006 47.0977C28.0798 47.0977 27.6517 46.9512 27.3164 46.6582C26.9844 46.362 26.8184 45.9876 26.8184 45.5352C26.8184 44.985 27.0267 44.5586 27.4434 44.2559C27.8633 43.9499 28.4525 43.7969 29.2109 43.7969H30.0898V43.3818C30.0898 43.0661 29.9954 42.8154 29.8066 42.6299C29.6178 42.4411 29.3395 42.3467 28.9717 42.3467C28.6494 42.3467 28.3792 42.4281 28.1611 42.5908C27.943 42.7536 27.834 42.9505 27.834 43.1816H26.9258C26.9258 42.918 27.0186 42.6641 27.2041 42.4199C27.3929 42.1725 27.6468 41.9772 27.9658 41.834C28.2881 41.6908 28.6413 41.6191 29.0254 41.6191C29.6341 41.6191 30.111 41.7721 30.4561 42.0781C30.8011 42.3809 30.9801 42.7992 30.9932 43.333V45.7646C30.9932 46.2497 31.055 46.6354 31.1787 46.9219V47H30.2314ZM28.7324 46.3115C29.0156 46.3115 29.2842 46.2383 29.5381 46.0918C29.792 45.9453 29.9759 45.7549 30.0898 45.5205V44.4365H29.3818C28.2751 44.4365 27.7217 44.7604 27.7217 45.4082C27.7217 45.6914 27.8161 45.9128 28.0049 46.0723C28.1937 46.2318 28.4362 46.3115 28.7324 46.3115ZM37.9658 45.5986C37.9658 45.3545 37.873 45.1657 37.6875 45.0322C37.5052 44.8955 37.1846 44.7783 36.7256 44.6807C36.2699 44.583 35.9069 44.4658 35.6367 44.3291C35.3698 44.1924 35.1712 44.0296 35.041 43.8408C34.9141 43.652 34.8506 43.4274 34.8506 43.167C34.8506 42.734 35.0329 42.3678 35.3975 42.0684C35.7653 41.7689 36.234 41.6191 36.8037 41.6191C37.4027 41.6191 37.8877 41.7738 38.2588 42.083C38.6331 42.3923 38.8203 42.7878 38.8203 43.2695H37.9121C37.9121 43.0221 37.8063 42.8089 37.5947 42.6299C37.3864 42.4508 37.1227 42.3613 36.8037 42.3613C36.4749 42.3613 36.2178 42.4329 36.0322 42.5762C35.8467 42.7194 35.7539 42.9066 35.7539 43.1377C35.7539 43.3558 35.8402 43.5202 36.0127 43.6309C36.1852 43.7415 36.4961 43.8473 36.9453 43.9482C37.3978 44.0492 37.764 44.1696 38.0439 44.3096C38.3239 44.4495 38.5306 44.6188 38.6641 44.8174C38.8008 45.0127 38.8691 45.252 38.8691 45.5352C38.8691 46.0072 38.6803 46.3864 38.3027 46.6729C37.9251 46.9561 37.4352 47.0977 36.833 47.0977C36.4098 47.0977 36.0355 47.0228 35.71 46.873C35.3844 46.7233 35.1289 46.515 34.9434 46.248C34.7611 45.9779 34.6699 45.6865 34.6699 45.374H35.5732C35.5895 45.6768 35.71 45.9176 35.9346 46.0967C36.1624 46.2725 36.4619 46.3604 36.833 46.3604C37.1748 46.3604 37.4482 46.292 37.6533 46.1553C37.8617 46.0153 37.9658 45.8298 37.9658 45.5986ZM40.8955 41.7168L40.9199 42.3027C41.3073 41.847 41.8298 41.6191 42.4873 41.6191C43.2262 41.6191 43.7292 41.9023 43.9961 42.4688C44.1719 42.2148 44.3997 42.0098 44.6797 41.8535C44.9629 41.6973 45.2965 41.6191 45.6807 41.6191C46.8395 41.6191 47.4287 42.2327 47.4482 43.46V47H46.5449V43.5137C46.5449 43.1361 46.4587 42.8545 46.2861 42.6689C46.1136 42.4801 45.8239 42.3857 45.417 42.3857C45.0817 42.3857 44.8034 42.4867 44.582 42.6885C44.3607 42.887 44.2321 43.1556 44.1963 43.4941V47H43.2881V43.5381C43.2881 42.7699 42.9121 42.3857 42.1602 42.3857C41.5677 42.3857 41.1624 42.638 40.9443 43.1426V47H40.041V41.7168H40.8955ZM48.5762 44.3096C48.5762 43.792 48.6771 43.3265 48.8789 42.9131C49.084 42.4997 49.3672 42.1807 49.7285 41.9561C50.0931 41.7314 50.5081 41.6191 50.9736 41.6191C51.693 41.6191 52.2741 41.8682 52.7168 42.3662C53.1628 42.8643 53.3857 43.5267 53.3857 44.3535V44.417C53.3857 44.9313 53.2865 45.3936 53.0879 45.8037C52.8926 46.2106 52.611 46.528 52.2432 46.7559C51.8786 46.9837 51.4587 47.0977 50.9834 47.0977C50.2673 47.0977 49.6862 46.8486 49.2402 46.3506C48.7975 45.8525 48.5762 45.1934 48.5762 44.373V44.3096ZM49.4844 44.417C49.4844 45.0029 49.6195 45.4733 49.8896 45.8281C50.1631 46.1829 50.5277 46.3604 50.9834 46.3604C51.4424 46.3604 51.807 46.1813 52.0771 45.8232C52.3473 45.4619 52.4824 44.9574 52.4824 44.3096C52.4824 43.7301 52.3441 43.2614 52.0674 42.9033C51.7939 42.542 51.4294 42.3613 50.9736 42.3613C50.5277 42.3613 50.168 42.5387 49.8945 42.8936C49.6211 43.2484 49.4844 43.7562 49.4844 44.417ZM54.2793 44.3096C54.2793 43.792 54.3802 43.3265 54.582 42.9131C54.7871 42.4997 55.0703 42.1807 55.4316 41.9561C55.7962 41.7314 56.2113 41.6191 56.6768 41.6191C57.3962 41.6191 57.9772 41.8682 58.4199 42.3662C58.8659 42.8643 59.0889 43.5267 59.0889 44.3535V44.417C59.0889 44.9313 58.9896 45.3936 58.791 45.8037C58.5957 46.2106 58.3141 46.528 57.9463 46.7559C57.5817 46.9837 57.1618 47.0977 56.6865 47.0977C55.9704 47.0977 55.3893 46.8486 54.9434 46.3506C54.5007 45.8525 54.2793 45.1934 54.2793 44.373V44.3096ZM55.1875 44.417C55.1875 45.0029 55.3226 45.4733 55.5928 45.8281C55.8662 46.1829 56.2308 46.3604 56.6865 46.3604C57.1455 46.3604 57.5101 46.1813 57.7803 45.8232C58.0505 45.4619 58.1855 44.9574 58.1855 44.3096C58.1855 43.7301 58.0472 43.2614 57.7705 42.9033C57.4971 42.542 57.1325 42.3613 56.6768 42.3613C56.2308 42.3613 55.8711 42.5387 55.5977 42.8936C55.3242 43.2484 55.1875 43.7562 55.1875 44.417ZM61.4473 40.4375V41.7168H62.4336V42.415H61.4473V45.6914C61.4473 45.903 61.4912 46.0625 61.5791 46.1699C61.667 46.2741 61.8167 46.3262 62.0283 46.3262C62.1325 46.3262 62.2757 46.3066 62.458 46.2676V47C62.2204 47.0651 61.9893 47.0977 61.7646 47.0977C61.361 47.0977 61.0566 46.9756 60.8516 46.7314C60.6465 46.4873 60.5439 46.1406 60.5439 45.6914V42.415H59.582V41.7168H60.5439V40.4375H61.4473ZM64.3965 42.3564C64.7969 41.8649 65.3177 41.6191 65.959 41.6191C67.0755 41.6191 67.6387 42.249 67.6484 43.5088V47H66.7451V43.5039C66.7419 43.123 66.654 42.8415 66.4814 42.6592C66.3122 42.4769 66.0469 42.3857 65.6855 42.3857C65.3926 42.3857 65.1354 42.4639 64.9141 42.6201C64.6927 42.7764 64.5202 42.9814 64.3965 43.2354V47H63.4932V39.5H64.3965V42.3564ZM68.9717 48.416L68.459 48.0645C68.765 47.638 68.9245 47.1986 68.9375 46.7461V45.9307H69.8213V46.6387C69.8213 46.9674 69.7399 47.2962 69.5771 47.625C69.4176 47.9538 69.2158 48.2174 68.9717 48.416ZM7.11621 57.5986C7.11621 57.3545 7.02344 57.1657 6.83789 57.0322C6.6556 56.8955 6.33496 56.7783 5.87598 56.6807C5.42025 56.583 5.05729 56.4658 4.78711 56.3291C4.52018 56.1924 4.32161 56.0296 4.19141 55.8408C4.06445 55.652 4.00098 55.4274 4.00098 55.167C4.00098 54.734 4.18327 54.3678 4.54785 54.0684C4.91569 53.7689 5.38444 53.6191 5.9541 53.6191C6.55306 53.6191 7.03809 53.7738 7.40918 54.083C7.78353 54.3923 7.9707 54.7878 7.9707 55.2695H7.0625C7.0625 55.0221 6.95671 54.8089 6.74512 54.6299C6.53678 54.4508 6.27311 54.3613 5.9541 54.3613C5.62533 54.3613 5.36816 54.4329 5.18262 54.5762C4.99707 54.7194 4.9043 54.9066 4.9043 55.1377C4.9043 55.3558 4.99056 55.5202 5.16309 55.6309C5.33561 55.7415 5.64648 55.8473 6.0957 55.9482C6.54818 56.0492 6.91439 56.1696 7.19434 56.3096C7.47428 56.4495 7.68099 56.6188 7.81445 56.8174C7.95117 57.0127 8.01953 57.252 8.01953 57.5352C8.01953 58.0072 7.83073 58.3864 7.45312 58.6729C7.07552 58.9561 6.58561 59.0977 5.9834 59.0977C5.56022 59.0977 5.18587 59.0228 4.86035 58.873C4.53483 58.7233 4.2793 58.515 4.09375 58.248C3.91146 57.9779 3.82031 57.6865 3.82031 57.374H4.72363C4.73991 57.6768 4.86035 57.9176 5.08496 58.0967C5.31283 58.2725 5.6123 58.3604 5.9834 58.3604C6.3252 58.3604 6.59863 58.292 6.80371 58.1553C7.01204 58.0153 7.11621 57.8298 7.11621 57.5986ZM8.95703 56.3096C8.95703 55.792 9.05794 55.3265 9.25977 54.9131C9.46484 54.4997 9.74805 54.1807 10.1094 53.9561C10.474 53.7314 10.889 53.6191 11.3545 53.6191C12.0739 53.6191 12.6549 53.8682 13.0977 54.3662C13.5436 54.8643 13.7666 55.5267 13.7666 56.3535V56.417C13.7666 56.9313 13.6673 57.3936 13.4688 57.8037C13.2734 58.2106 12.9919 58.528 12.624 58.7559C12.2594 58.9837 11.8395 59.0977 11.3643 59.0977C10.6481 59.0977 10.0671 58.8486 9.62109 58.3506C9.17839 57.8525 8.95703 57.1934 8.95703 56.373V56.3096ZM9.86523 56.417C9.86523 57.0029 10.0003 57.4733 10.2705 57.8281C10.5439 58.1829 10.9085 58.3604 11.3643 58.3604C11.8232 58.3604 12.1878 58.1813 12.458 57.8232C12.7282 57.4619 12.8633 56.9574 12.8633 56.3096C12.8633 55.7301 12.7249 55.2614 12.4482 54.9033C12.1748 54.542 11.8102 54.3613 11.3545 54.3613C10.9085 54.3613 10.5488 54.5387 10.2754 54.8936C10.002 55.2484 9.86523 55.7562 9.86523 56.417ZM15.3438 59V54.415H14.5088V53.7168H15.3438V53.1748C15.3438 52.6084 15.4951 52.1706 15.7979 51.8613C16.1006 51.5521 16.5286 51.3975 17.082 51.3975C17.2904 51.3975 17.4971 51.4251 17.7021 51.4805L17.6533 52.2129C17.5003 52.1836 17.3376 52.1689 17.165 52.1689C16.8721 52.1689 16.6458 52.2552 16.4863 52.4277C16.3268 52.597 16.2471 52.8411 16.2471 53.1602V53.7168H17.375V54.415H16.2471V59H15.3438ZM19.6016 52.4375V53.7168H20.5879V54.415H19.6016V57.6914C19.6016 57.903 19.6455 58.0625 19.7334 58.1699C19.8213 58.2741 19.971 58.3262 20.1826 58.3262C20.2868 58.3262 20.43 58.3066 20.6123 58.2676V59C20.3747 59.0651 20.1436 59.0977 19.9189 59.0977C19.5153 59.0977 19.2109 58.9756 19.0059 58.7314C18.8008 58.4873 18.6982 58.1406 18.6982 57.6914V54.415H17.7363V53.7168H18.6982V52.4375H19.6016ZM27.2041 57.5986C27.2041 57.3545 27.1113 57.1657 26.9258 57.0322C26.7435 56.8955 26.4229 56.7783 25.9639 56.6807C25.5081 56.583 25.1452 56.4658 24.875 56.3291C24.6081 56.1924 24.4095 56.0296 24.2793 55.8408C24.1523 55.652 24.0889 55.4274 24.0889 55.167C24.0889 54.734 24.2712 54.3678 24.6357 54.0684C25.0036 53.7689 25.4723 53.6191 26.042 53.6191C26.641 53.6191 27.126 53.7738 27.4971 54.083C27.8714 54.3923 28.0586 54.7878 28.0586 55.2695H27.1504C27.1504 55.0221 27.0446 54.8089 26.833 54.6299C26.6247 54.4508 26.361 54.3613 26.042 54.3613C25.7132 54.3613 25.4561 54.4329 25.2705 54.5762C25.085 54.7194 24.9922 54.9066 24.9922 55.1377C24.9922 55.3558 25.0785 55.5202 25.251 55.6309C25.4235 55.7415 25.7344 55.8473 26.1836 55.9482C26.6361 56.0492 27.0023 56.1696 27.2822 56.3096C27.5622 56.4495 27.7689 56.6188 27.9023 56.8174C28.0391 57.0127 28.1074 57.252 28.1074 57.5352C28.1074 58.0072 27.9186 58.3864 27.541 58.6729C27.1634 58.9561 26.6735 59.0977 26.0713 59.0977C25.6481 59.0977 25.2738 59.0228 24.9482 58.873C24.6227 58.7233 24.3672 58.515 24.1816 58.248C23.9993 57.9779 23.9082 57.6865 23.9082 57.374H24.8115C24.8278 57.6768 24.9482 57.9176 25.1729 58.0967C25.4007 58.2725 25.7002 58.3604 26.0713 58.3604C26.4131 58.3604 26.6865 58.292 26.8916 58.1553C27.0999 58.0153 27.2041 57.8298 27.2041 57.5986ZM32.5459 59C32.4938 58.8958 32.4515 58.7103 32.4189 58.4434C31.999 58.8796 31.4977 59.0977 30.915 59.0977C30.3942 59.0977 29.9661 58.9512 29.6309 58.6582C29.2988 58.362 29.1328 57.9876 29.1328 57.5352C29.1328 56.985 29.3411 56.5586 29.7578 56.2559C30.1777 55.9499 30.7669 55.7969 31.5254 55.7969H32.4043V55.3818C32.4043 55.0661 32.3099 54.8154 32.1211 54.6299C31.9323 54.4411 31.654 54.3467 31.2861 54.3467C30.9639 54.3467 30.6937 54.4281 30.4756 54.5908C30.2575 54.7536 30.1484 54.9505 30.1484 55.1816H29.2402C29.2402 54.918 29.333 54.6641 29.5186 54.4199C29.7074 54.1725 29.9613 53.9772 30.2803 53.834C30.6025 53.6908 30.9557 53.6191 31.3398 53.6191C31.9486 53.6191 32.4255 53.7721 32.7705 54.0781C33.1156 54.3809 33.2946 54.7992 33.3076 55.333V57.7646C33.3076 58.2497 33.3695 58.6354 33.4932 58.9219V59H32.5459ZM31.0469 58.3115C31.3301 58.3115 31.5986 58.2383 31.8525 58.0918C32.1064 57.9453 32.2904 57.7549 32.4043 57.5205V56.4365H31.6963C30.5895 56.4365 30.0361 56.7604 30.0361 57.4082C30.0361 57.6914 30.1305 57.9128 30.3193 58.0723C30.5081 58.2318 30.7507 58.3115 31.0469 58.3115ZM37.9854 58.4775C37.6338 58.891 37.1178 59.0977 36.4375 59.0977C35.8743 59.0977 35.4447 58.9349 35.1484 58.6094C34.8555 58.2806 34.7074 57.7956 34.7041 57.1543V53.7168H35.6074V57.1299C35.6074 57.9307 35.9329 58.3311 36.584 58.3311C37.2741 58.3311 37.7331 58.0739 37.9609 57.5596V53.7168H38.8643V59H38.0049L37.9854 58.4775ZM43.3174 57.5986C43.3174 57.3545 43.2246 57.1657 43.0391 57.0322C42.8568 56.8955 42.5361 56.7783 42.0771 56.6807C41.6214 56.583 41.2585 56.4658 40.9883 56.3291C40.7214 56.1924 40.5228 56.0296 40.3926 55.8408C40.2656 55.652 40.2021 55.4274 40.2021 55.167C40.2021 54.734 40.3844 54.3678 40.749 54.0684C41.1169 53.7689 41.5856 53.6191 42.1553 53.6191C42.7542 53.6191 43.2393 53.7738 43.6104 54.083C43.9847 54.3923 44.1719 54.7878 44.1719 55.2695H43.2637C43.2637 55.0221 43.1579 54.8089 42.9463 54.6299C42.738 54.4508 42.4743 54.3613 42.1553 54.3613C41.8265 54.3613 41.5693 54.4329 41.3838 54.5762C41.1982 54.7194 41.1055 54.9066 41.1055 55.1377C41.1055 55.3558 41.1917 55.5202 41.3643 55.6309C41.5368 55.7415 41.8477 55.8473 42.2969 55.9482C42.7493 56.0492 43.1156 56.1696 43.3955 56.3096C43.6755 56.4495 43.8822 56.6188 44.0156 56.8174C44.1523 57.0127 44.2207 57.252 44.2207 57.5352C44.2207 58.0072 44.0319 58.3864 43.6543 58.6729C43.2767 58.9561 42.7868 59.0977 42.1846 59.0977C41.7614 59.0977 41.387 59.0228 41.0615 58.873C40.736 58.7233 40.4805 58.515 40.2949 58.248C40.1126 57.9779 40.0215 57.6865 40.0215 57.374H40.9248C40.9411 57.6768 41.0615 57.9176 41.2861 58.0967C41.514 58.2725 41.8135 58.3604 42.1846 58.3604C42.5264 58.3604 42.7998 58.292 43.0049 58.1553C43.2132 58.0153 43.3174 57.8298 43.3174 57.5986ZM48.6592 59C48.6071 58.8958 48.5648 58.7103 48.5322 58.4434C48.1123 58.8796 47.611 59.0977 47.0283 59.0977C46.5075 59.0977 46.0794 58.9512 45.7441 58.6582C45.4121 58.362 45.2461 57.9876 45.2461 57.5352C45.2461 56.985 45.4544 56.5586 45.8711 56.2559C46.291 55.9499 46.8802 55.7969 47.6387 55.7969H48.5176V55.3818C48.5176 55.0661 48.4232 54.8154 48.2344 54.6299C48.0456 54.4411 47.7673 54.3467 47.3994 54.3467C47.0771 54.3467 46.807 54.4281 46.5889 54.5908C46.3708 54.7536 46.2617 54.9505 46.2617 55.1816H45.3535C45.3535 54.918 45.4463 54.6641 45.6318 54.4199C45.8206 54.1725 46.0745 53.9772 46.3936 53.834C46.7158 53.6908 47.069 53.6191 47.4531 53.6191C48.0618 53.6191 48.5387 53.7721 48.8838 54.0781C49.2288 54.3809 49.4079 54.7992 49.4209 55.333V57.7646C49.4209 58.2497 49.4827 58.6354 49.6064 58.9219V59H48.6592ZM47.1602 58.3115C47.4434 58.3115 47.7119 58.2383 47.9658 58.0918C48.2197 57.9453 48.4036 57.7549 48.5176 57.5205V56.4365H47.8096C46.7028 56.4365 46.1494 56.7604 46.1494 57.4082C46.1494 57.6914 46.2438 57.9128 46.4326 58.0723C46.6214 58.2318 46.8639 58.3115 47.1602 58.3115ZM50.6221 56.3145C50.6221 55.4909 50.8125 54.8366 51.1934 54.3516C51.5742 53.8633 52.0788 53.6191 52.707 53.6191C53.3516 53.6191 53.8545 53.847 54.2158 54.3027L54.2598 53.7168H55.085V58.873C55.085 59.5566 54.8815 60.0954 54.4746 60.4893C54.071 60.8831 53.5273 61.0801 52.8438 61.0801C52.4629 61.0801 52.0902 60.9987 51.7256 60.8359C51.361 60.6732 51.0827 60.4502 50.8906 60.167L51.3594 59.625C51.7467 60.1035 52.2204 60.3428 52.7803 60.3428C53.2197 60.3428 53.5615 60.2191 53.8057 59.9717C54.0531 59.7243 54.1768 59.376 54.1768 58.9268V58.4727C53.8154 58.8893 53.3223 59.0977 52.6973 59.0977C52.0788 59.0977 51.5775 58.8486 51.1934 58.3506C50.8125 57.8525 50.6221 57.1738 50.6221 56.3145ZM51.5303 56.417C51.5303 57.0127 51.6523 57.4814 51.8965 57.8232C52.1406 58.1618 52.4824 58.3311 52.9219 58.3311C53.4915 58.3311 53.9098 58.0723 54.1768 57.5547V55.1426C53.9001 54.638 53.485 54.3857 52.9316 54.3857C52.4922 54.3857 52.1488 54.5566 51.9014 54.8984C51.654 55.2402 51.5303 55.7464 51.5303 56.417ZM58.6445 59.0977C57.9284 59.0977 57.3457 58.8633 56.8965 58.3945C56.4473 57.9225 56.2227 57.2926 56.2227 56.5049V56.3389C56.2227 55.8148 56.3219 55.3477 56.5205 54.9375C56.7223 54.5241 57.0023 54.2018 57.3604 53.9707C57.7217 53.7363 58.1123 53.6191 58.5322 53.6191C59.2191 53.6191 59.7529 53.8454 60.1338 54.2979C60.5146 54.7503 60.7051 55.3981 60.7051 56.2412V56.6172H57.126C57.139 57.138 57.2904 57.5596 57.5801 57.8818C57.873 58.2008 58.2441 58.3604 58.6934 58.3604C59.0124 58.3604 59.2826 58.2952 59.5039 58.165C59.7253 58.0348 59.9189 57.8623 60.085 57.6475L60.6367 58.0771C60.194 58.7575 59.5299 59.0977 58.6445 59.0977ZM58.5322 54.3613C58.1676 54.3613 57.8617 54.4948 57.6143 54.7617C57.3669 55.0254 57.2139 55.3965 57.1553 55.875H59.8018V55.8066C59.7757 55.3477 59.652 54.9928 59.4307 54.7422C59.2093 54.4883 58.9098 54.3613 58.5322 54.3613ZM63.9961 56.3096C63.9961 55.792 64.097 55.3265 64.2988 54.9131C64.5039 54.4997 64.7871 54.1807 65.1484 53.9561C65.513 53.7314 65.9281 53.6191 66.3936 53.6191C67.113 53.6191 67.694 53.8682 68.1367 54.3662C68.5827 54.8643 68.8057 55.5267 68.8057 56.3535V56.417C68.8057 56.9313 68.7064 57.3936 68.5078 57.8037C68.3125 58.2106 68.0309 58.528 67.6631 58.7559C67.2985 58.9837 66.8786 59.0977 66.4033 59.0977C65.6872 59.0977 65.1061 58.8486 64.6602 58.3506C64.2174 57.8525 63.9961 57.1934 63.9961 56.373V56.3096ZM64.9043 56.417C64.9043 57.0029 65.0394 57.4733 65.3096 57.8281C65.583 58.1829 65.9476 58.3604 66.4033 58.3604C66.8623 58.3604 67.2269 58.1813 67.4971 57.8232C67.7673 57.4619 67.9023 56.9574 67.9023 56.3096C67.9023 55.7301 67.764 55.2614 67.4873 54.9033C67.2139 54.542 66.8493 54.3613 66.3936 54.3613C65.9476 54.3613 65.5879 54.5387 65.3145 54.8936C65.041 55.2484 64.9043 55.7562 64.9043 56.417ZM72.4922 54.5273C72.3555 54.5046 72.2074 54.4932 72.0479 54.4932C71.4554 54.4932 71.0534 54.7454 70.8418 55.25V59H69.9385V53.7168H70.8174L70.832 54.3271C71.1283 53.8551 71.5482 53.6191 72.0918 53.6191C72.2676 53.6191 72.401 53.6419 72.4922 53.6875V54.5273ZM28.5664 69.5986C28.5664 69.3545 28.4736 69.1657 28.2881 69.0322C28.1058 68.8955 27.7852 68.7783 27.3262 68.6807C26.8704 68.583 26.5075 68.4658 26.2373 68.3291C25.9704 68.1924 25.7718 68.0296 25.6416 67.8408C25.5146 67.652 25.4512 67.4274 25.4512 67.167C25.4512 66.734 25.6335 66.3678 25.998 66.0684C26.3659 65.7689 26.8346 65.6191 27.4043 65.6191C28.0033 65.6191 28.4883 65.7738 28.8594 66.083C29.2337 66.3923 29.4209 66.7878 29.4209 67.2695H28.5127C28.5127 67.0221 28.4069 66.8089 28.1953 66.6299C27.987 66.4508 27.7233 66.3613 27.4043 66.3613C27.0755 66.3613 26.8184 66.4329 26.6328 66.5762C26.4473 66.7194 26.3545 66.9066 26.3545 67.1377C26.3545 67.3558 26.4408 67.5202 26.6133 67.6309C26.7858 67.7415 27.0967 67.8473 27.5459 67.9482C27.9984 68.0492 28.3646 68.1696 28.6445 68.3096C28.9245 68.4495 29.1312 68.6188 29.2646 68.8174C29.4014 69.0127 29.4697 69.252 29.4697 69.5352C29.4697 70.0072 29.2809 70.3864 28.9033 70.6729C28.5257 70.9561 28.0358 71.0977 27.4336 71.0977C27.0104 71.0977 26.6361 71.0228 26.3105 70.873C25.985 70.7233 25.7295 70.515 25.5439 70.248C25.3617 69.9779 25.2705 69.6865 25.2705 69.374H26.1738C26.1901 69.6768 26.3105 69.9176 26.5352 70.0967C26.763 70.2725 27.0625 70.3604 27.4336 70.3604C27.7754 70.3604 28.0488 70.292 28.2539 70.1553C28.4622 70.0153 28.5664 69.8298 28.5664 69.5986ZM31.501 65.7168L31.5303 66.3809C31.9339 65.873 32.4613 65.6191 33.1123 65.6191C34.2288 65.6191 34.792 66.249 34.8018 67.5088V71H33.8984V67.5039C33.8952 67.123 33.8073 66.8415 33.6348 66.6592C33.4655 66.4769 33.2002 66.3857 32.8389 66.3857C32.5459 66.3857 32.2887 66.4639 32.0674 66.6201C31.846 66.7764 31.6735 66.9814 31.5498 67.2354V71H30.6465V65.7168H31.501ZM39.4258 71C39.3737 70.8958 39.3314 70.7103 39.2988 70.4434C38.8789 70.8796 38.3776 71.0977 37.7949 71.0977C37.2741 71.0977 36.846 70.9512 36.5107 70.6582C36.1787 70.362 36.0127 69.9876 36.0127 69.5352C36.0127 68.985 36.221 68.5586 36.6377 68.2559C37.0576 67.9499 37.6468 67.7969 38.4053 67.7969H39.2842V67.3818C39.2842 67.0661 39.1898 66.8154 39.001 66.6299C38.8122 66.4411 38.5339 66.3467 38.166 66.3467C37.8438 66.3467 37.5736 66.4281 37.3555 66.5908C37.1374 66.7536 37.0283 66.9505 37.0283 67.1816H36.1201C36.1201 66.918 36.2129 66.6641 36.3984 66.4199C36.5872 66.1725 36.8411 65.9772 37.1602 65.834C37.4824 65.6908 37.8356 65.6191 38.2197 65.6191C38.8285 65.6191 39.3053 65.7721 39.6504 66.0781C39.9954 66.3809 40.1745 66.7992 40.1875 67.333V69.7646C40.1875 70.2497 40.2493 70.6354 40.373 70.9219V71H39.4258ZM37.9268 70.3115C38.21 70.3115 38.4785 70.2383 38.7324 70.0918C38.9863 69.9453 39.1702 69.7549 39.2842 69.5205V68.4365H38.5762C37.4694 68.4365 36.916 68.7604 36.916 69.4082C36.916 69.6914 37.0104 69.9128 37.1992 70.0723C37.388 70.2318 37.6305 70.3115 37.9268 70.3115ZM43.0781 68.5537L42.5117 69.1445V71H41.6084V63.5H42.5117V68.0361L42.9951 67.4551L44.6406 65.7168H45.7393L43.6836 67.9238L45.9785 71H44.9189L43.0781 68.5537ZM48.7666 71.0977C48.0505 71.0977 47.4678 70.8633 47.0186 70.3945C46.5693 69.9225 46.3447 69.2926 46.3447 68.5049V68.3389C46.3447 67.8148 46.444 67.3477 46.6426 66.9375C46.8444 66.5241 47.1243 66.2018 47.4824 65.9707C47.8438 65.7363 48.2344 65.6191 48.6543 65.6191C49.3411 65.6191 49.875 65.8454 50.2559 66.2979C50.6367 66.7503 50.8271 67.3981 50.8271 68.2412V68.6172H47.248C47.2611 69.138 47.4124 69.5596 47.7021 69.8818C47.9951 70.2008 48.3662 70.3604 48.8154 70.3604C49.1344 70.3604 49.4046 70.2952 49.626 70.165C49.8473 70.0348 50.041 69.8623 50.207 69.6475L50.7588 70.0771C50.3161 70.7575 49.652 71.0977 48.7666 71.0977ZM48.6543 66.3613C48.2897 66.3613 47.9837 66.4948 47.7363 66.7617C47.4889 67.0254 47.3359 67.3965 47.2773 67.875H49.9238V67.8066C49.8978 67.3477 49.7741 66.9928 49.5527 66.7422C49.3314 66.4883 49.0319 66.3613 48.6543 66.3613Z" fill="#666666"/>
</svg>
