<svg width="76" height="62" viewBox="0 0 76 62" fill="none" xmlns="http://www.w3.org/2000/svg">
<circle cx="14" cy="5" r="5" fill="#C4C4C4"/>
<circle cx="63" cy="5" r="5" fill="#C4C4C4"/>
<circle cx="29.5" cy="9.5" r="4.5" fill="#C4C4C4"/>
<circle cx="37" cy="19" r="3" fill="#C4C4C4"/>
<circle cx="20" cy="18" r="6" fill="#C4C4C4"/>
<circle cx="4.5" cy="4.5" r="4.5" transform="matrix(-1 0 0 1 49 3)" fill="#C4C4C4"/>
<circle cx="6" cy="6" r="6" transform="matrix(-1 0 0 1 60 12)" fill="#C4C4C4"/>
<path d="M9.9873 43.8311C9.18327 43.5999 8.59733 43.3167 8.22949 42.9814C7.86491 42.6429 7.68262 42.2262 7.68262 41.7314C7.68262 41.1715 7.9056 40.7093 8.35156 40.3447C8.80078 39.9769 9.38346 39.793 10.0996 39.793C10.5879 39.793 11.0225 39.8874 11.4033 40.0762C11.7874 40.265 12.0837 40.5254 12.292 40.8574C12.5036 41.1895 12.6094 41.5524 12.6094 41.9463H11.667C11.667 41.5166 11.5303 41.1797 11.2568 40.9355C10.9834 40.6882 10.5977 40.5645 10.0996 40.5645C9.63737 40.5645 9.27604 40.667 9.01562 40.8721C8.75846 41.0739 8.62988 41.3555 8.62988 41.7168C8.62988 42.0065 8.75195 42.2523 8.99609 42.4541C9.24349 42.6527 9.66178 42.835 10.251 43.001C10.8434 43.167 11.3057 43.3509 11.6377 43.5527C11.973 43.7513 12.2204 43.984 12.3799 44.251C12.5426 44.5179 12.624 44.832 12.624 45.1934C12.624 45.7695 12.3994 46.2318 11.9502 46.5801C11.501 46.9251 10.9004 47.0977 10.1484 47.0977C9.66016 47.0977 9.20443 47.0049 8.78125 46.8193C8.35807 46.6305 8.03092 46.3734 7.7998 46.0479C7.57194 45.7223 7.45801 45.3529 7.45801 44.9395H8.40039C8.40039 45.3691 8.55827 45.7093 8.87402 45.96C9.19303 46.2074 9.61784 46.3311 10.1484 46.3311C10.6432 46.3311 11.0225 46.2301 11.2861 46.0283C11.5498 45.8265 11.6816 45.5514 11.6816 45.2031C11.6816 44.8548 11.5596 44.5863 11.3154 44.3975C11.0713 44.2054 10.6286 44.0166 9.9873 43.8311ZM15.8809 47.0977C15.1647 47.0977 14.582 46.8633 14.1328 46.3945C13.6836 45.9225 13.459 45.2926 13.459 44.5049V44.3389C13.459 43.8148 13.5583 43.3477 13.7568 42.9375C13.9587 42.5241 14.2386 42.2018 14.5967 41.9707C14.958 41.7363 15.3486 41.6191 15.7686 41.6191C16.4554 41.6191 16.9893 41.8454 17.3701 42.2979C17.751 42.7503 17.9414 43.3981 17.9414 44.2412V44.6172H14.3623C14.3753 45.138 14.5267 45.5596 14.8164 45.8818C15.1094 46.2008 15.4805 46.3604 15.9297 46.3604C16.2487 46.3604 16.5189 46.2952 16.7402 46.165C16.9616 46.0348 17.1553 45.8623 17.3213 45.6475L17.873 46.0771C17.4303 46.7575 16.7663 47.0977 15.8809 47.0977ZM15.7686 42.3613C15.404 42.3613 15.098 42.4948 14.8506 42.7617C14.6032 43.0254 14.4502 43.3965 14.3916 43.875H17.0381V43.8066C17.012 43.3477 16.8883 42.9928 16.667 42.7422C16.4456 42.4883 16.1462 42.3613 15.7686 42.3613ZM23.4541 44.417C23.4541 45.221 23.2702 45.8688 22.9023 46.3604C22.5345 46.8519 22.0365 47.0977 21.4082 47.0977C20.7669 47.0977 20.2624 46.8942 19.8945 46.4873V49.0312H18.9912V41.7168H19.8164L19.8604 42.3027C20.2282 41.847 20.7393 41.6191 21.3936 41.6191C22.0283 41.6191 22.5296 41.8584 22.8975 42.3369C23.2686 42.8154 23.4541 43.4811 23.4541 44.334V44.417ZM22.5508 44.3145C22.5508 43.7188 22.4238 43.2484 22.1699 42.9033C21.916 42.5583 21.5677 42.3857 21.125 42.3857C20.5781 42.3857 20.168 42.6283 19.8945 43.1133V45.6377C20.1647 46.1195 20.5781 46.3604 21.1348 46.3604C21.5677 46.3604 21.9111 46.1895 22.165 45.8477C22.4222 45.5026 22.5508 44.9915 22.5508 44.3145ZM27.8682 47C27.8161 46.8958 27.7738 46.7103 27.7412 46.4434C27.3213 46.8796 26.82 47.0977 26.2373 47.0977C25.7165 47.0977 25.2884 46.9512 24.9531 46.6582C24.6211 46.362 24.4551 45.9876 24.4551 45.5352C24.4551 44.985 24.6634 44.5586 25.0801 44.2559C25.5 43.9499 26.0892 43.7969 26.8477 43.7969H27.7266V43.3818C27.7266 43.0661 27.6322 42.8154 27.4434 42.6299C27.2546 42.4411 26.9762 42.3467 26.6084 42.3467C26.2861 42.3467 26.016 42.4281 25.7979 42.5908C25.5798 42.7536 25.4707 42.9505 25.4707 43.1816H24.5625C24.5625 42.918 24.6553 42.6641 24.8408 42.4199C25.0296 42.1725 25.2835 41.9772 25.6025 41.834C25.9248 41.6908 26.278 41.6191 26.6621 41.6191C27.2708 41.6191 27.7477 41.7721 28.0928 42.0781C28.4378 42.3809 28.6169 42.7992 28.6299 43.333V45.7646C28.6299 46.2497 28.6917 46.6354 28.8154 46.9219V47H27.8682ZM26.3691 46.3115C26.6523 46.3115 26.9209 46.2383 27.1748 46.0918C27.4287 45.9453 27.6126 45.7549 27.7266 45.5205V44.4365H27.0186C25.9118 44.4365 25.3584 44.7604 25.3584 45.4082C25.3584 45.6914 25.4528 45.9128 25.6416 46.0723C25.8304 46.2318 26.0729 46.3115 26.3691 46.3115ZM32.5996 42.5273C32.4629 42.5046 32.3148 42.4932 32.1553 42.4932C31.5628 42.4932 31.1608 42.7454 30.9492 43.25V47H30.0459V41.7168H30.9248L30.9395 42.3271C31.2357 41.8551 31.6556 41.6191 32.1992 41.6191C32.375 41.6191 32.5085 41.6419 32.5996 41.6875V42.5273ZM36.501 47C36.4489 46.8958 36.4066 46.7103 36.374 46.4434C35.9541 46.8796 35.4528 47.0977 34.8701 47.0977C34.3493 47.0977 33.9212 46.9512 33.5859 46.6582C33.2539 46.362 33.0879 45.9876 33.0879 45.5352C33.0879 44.985 33.2962 44.5586 33.7129 44.2559C34.1328 43.9499 34.722 43.7969 35.4805 43.7969H36.3594V43.3818C36.3594 43.0661 36.265 42.8154 36.0762 42.6299C35.8874 42.4411 35.609 42.3467 35.2412 42.3467C34.9189 42.3467 34.6488 42.4281 34.4307 42.5908C34.2126 42.7536 34.1035 42.9505 34.1035 43.1816H33.1953C33.1953 42.918 33.2881 42.6641 33.4736 42.4199C33.6624 42.1725 33.9163 41.9772 34.2354 41.834C34.5576 41.6908 34.9108 41.6191 35.2949 41.6191C35.9036 41.6191 36.3805 41.7721 36.7256 42.0781C37.0706 42.3809 37.2497 42.7992 37.2627 43.333V45.7646C37.2627 46.2497 37.3245 46.6354 37.4482 46.9219V47H36.501ZM35.002 46.3115C35.2852 46.3115 35.5537 46.2383 35.8076 46.0918C36.0615 45.9453 36.2454 45.7549 36.3594 45.5205V44.4365H35.6514C34.5446 44.4365 33.9912 44.7604 33.9912 45.4082C33.9912 45.6914 34.0856 45.9128 34.2744 46.0723C34.4632 46.2318 34.7057 46.3115 35.002 46.3115ZM39.9043 40.4375V41.7168H40.8906V42.415H39.9043V45.6914C39.9043 45.903 39.9482 46.0625 40.0361 46.1699C40.124 46.2741 40.2738 46.3262 40.4854 46.3262C40.5895 46.3262 40.7327 46.3066 40.915 46.2676V47C40.6774 47.0651 40.4463 47.0977 40.2217 47.0977C39.818 47.0977 39.5137 46.9756 39.3086 46.7314C39.1035 46.4873 39.001 46.1406 39.001 45.6914V42.415H38.0391V41.7168H39.001V40.4375H39.9043ZM44.1426 47.0977C43.4264 47.0977 42.8438 46.8633 42.3945 46.3945C41.9453 45.9225 41.7207 45.2926 41.7207 44.5049V44.3389C41.7207 43.8148 41.82 43.3477 42.0186 42.9375C42.2204 42.5241 42.5003 42.2018 42.8584 41.9707C43.2197 41.7363 43.6104 41.6191 44.0303 41.6191C44.7171 41.6191 45.251 41.8454 45.6318 42.2979C46.0127 42.7503 46.2031 43.3981 46.2031 44.2412V44.6172H42.624C42.637 45.138 42.7884 45.5596 43.0781 45.8818C43.3711 46.2008 43.7422 46.3604 44.1914 46.3604C44.5104 46.3604 44.7806 46.2952 45.002 46.165C45.2233 46.0348 45.417 45.8623 45.583 45.6475L46.1348 46.0771C45.6921 46.7575 45.028 47.0977 44.1426 47.0977ZM44.0303 42.3613C43.6657 42.3613 43.3597 42.4948 43.1123 42.7617C42.8649 43.0254 42.7119 43.3965 42.6533 43.875H45.2998V43.8066C45.2738 43.3477 45.1501 42.9928 44.9287 42.7422C44.7074 42.4883 44.4079 42.3613 44.0303 42.3613ZM50.6367 42.3564C51.0371 41.8649 51.5579 41.6191 52.1992 41.6191C53.3158 41.6191 53.8789 42.249 53.8887 43.5088V47H52.9854V43.5039C52.9821 43.123 52.8942 42.8415 52.7217 42.6592C52.5524 42.4769 52.2871 42.3857 51.9258 42.3857C51.6328 42.3857 51.3757 42.4639 51.1543 42.6201C50.9329 42.7764 50.7604 42.9814 50.6367 43.2354V47H49.7334V39.5H50.6367V42.3564ZM58.5029 47C58.4508 46.8958 58.4085 46.7103 58.376 46.4434C57.9561 46.8796 57.4548 47.0977 56.8721 47.0977C56.3512 47.0977 55.9232 46.9512 55.5879 46.6582C55.2559 46.362 55.0898 45.9876 55.0898 45.5352C55.0898 44.985 55.2982 44.5586 55.7148 44.2559C56.1348 43.9499 56.724 43.7969 57.4824 43.7969H58.3613V43.3818C58.3613 43.0661 58.2669 42.8154 58.0781 42.6299C57.8893 42.4411 57.611 42.3467 57.2432 42.3467C56.9209 42.3467 56.6507 42.4281 56.4326 42.5908C56.2145 42.7536 56.1055 42.9505 56.1055 43.1816H55.1973C55.1973 42.918 55.29 42.6641 55.4756 42.4199C55.6644 42.1725 55.9183 41.9772 56.2373 41.834C56.5596 41.6908 56.9128 41.6191 57.2969 41.6191C57.9056 41.6191 58.3825 41.7721 58.7275 42.0781C59.0726 42.3809 59.2516 42.7992 59.2646 43.333V45.7646C59.2646 46.2497 59.3265 46.6354 59.4502 46.9219V47H58.5029ZM57.0039 46.3115C57.2871 46.3115 57.5557 46.2383 57.8096 46.0918C58.0635 45.9453 58.2474 45.7549 58.3613 45.5205V44.4365H57.6533C56.5465 44.4365 55.9932 44.7604 55.9932 45.4082C55.9932 45.6914 56.0876 45.9128 56.2764 46.0723C56.4652 46.2318 56.7077 46.3115 57.0039 46.3115ZM63.2344 42.5273C63.0977 42.5046 62.9495 42.4932 62.79 42.4932C62.1976 42.4932 61.7956 42.7454 61.584 43.25V47H60.6807V41.7168H61.5596L61.5742 42.3271C61.8704 41.8551 62.2904 41.6191 62.834 41.6191C63.0098 41.6191 63.1432 41.6419 63.2344 41.6875V42.5273ZM63.752 44.3145C63.752 43.5039 63.944 42.8529 64.3281 42.3613C64.7122 41.8665 65.2152 41.6191 65.8369 41.6191C66.4554 41.6191 66.9453 41.8307 67.3066 42.2539V39.5H68.21V47H67.3799L67.3359 46.4336C66.9746 46.8763 66.4717 47.0977 65.8271 47.0977C65.2152 47.0977 64.7155 46.847 64.3281 46.3457C63.944 45.8444 63.752 45.1901 63.752 44.3828V44.3145ZM64.6553 44.417C64.6553 45.016 64.779 45.4847 65.0264 45.8232C65.2738 46.1618 65.6156 46.3311 66.0518 46.3311C66.6247 46.3311 67.043 46.0739 67.3066 45.5596V43.1328C67.0365 42.6348 66.6214 42.3857 66.0615 42.3857C65.6188 42.3857 65.2738 42.5566 65.0264 42.8984C64.779 43.2402 64.6553 43.7464 64.6553 44.417ZM25.9199 59H25.0166V51.5H25.9199V59ZM30.6318 58.4775C30.2803 58.891 29.7643 59.0977 29.084 59.0977C28.5208 59.0977 28.0911 58.9349 27.7949 58.6094C27.502 58.2806 27.3538 57.7956 27.3506 57.1543V53.7168H28.2539V57.1299C28.2539 57.9307 28.5794 58.3311 29.2305 58.3311C29.9206 58.3311 30.3796 58.0739 30.6074 57.5596V53.7168H31.5107V59H30.6514L30.6318 58.4775ZM33.7373 53.7168L33.7617 54.3027C34.1491 53.847 34.6715 53.6191 35.3291 53.6191C36.068 53.6191 36.571 53.9023 36.8379 54.4688C37.0137 54.2148 37.2415 54.0098 37.5215 53.8535C37.8047 53.6973 38.1383 53.6191 38.5225 53.6191C39.6813 53.6191 40.2705 54.2327 40.29 55.46V59H39.3867V55.5137C39.3867 55.1361 39.3005 54.8545 39.1279 54.6689C38.9554 54.4801 38.6657 54.3857 38.2588 54.3857C37.9235 54.3857 37.6452 54.4867 37.4238 54.6885C37.2025 54.887 37.0739 55.1556 37.0381 55.4941V59H36.1299V55.5381C36.1299 54.7699 35.7539 54.3857 35.002 54.3857C34.4095 54.3857 34.0042 54.638 33.7861 55.1426V59H32.8828V53.7168H33.7373ZM46.1201 56.417C46.1201 57.221 45.9362 57.8688 45.5684 58.3604C45.2005 58.8519 44.7025 59.0977 44.0742 59.0977C43.4329 59.0977 42.9284 58.8942 42.5605 58.4873V61.0312H41.6572V53.7168H42.4824L42.5264 54.3027C42.8942 53.847 43.4053 53.6191 44.0596 53.6191C44.6943 53.6191 45.1956 53.8584 45.5635 54.3369C45.9346 54.8154 46.1201 55.4811 46.1201 56.334V56.417ZM45.2168 56.3145C45.2168 55.7188 45.0898 55.2484 44.8359 54.9033C44.582 54.5583 44.2337 54.3857 43.791 54.3857C43.2441 54.3857 42.834 54.6283 42.5605 55.1133V57.6377C42.8307 58.1195 43.2441 58.3604 43.8008 58.3604C44.2337 58.3604 44.5771 58.1895 44.8311 57.8477C45.0882 57.5026 45.2168 56.9915 45.2168 56.3145ZM50.3486 57.5986C50.3486 57.3545 50.2559 57.1657 50.0703 57.0322C49.888 56.8955 49.5674 56.7783 49.1084 56.6807C48.6527 56.583 48.2897 56.4658 48.0195 56.3291C47.7526 56.1924 47.554 56.0296 47.4238 55.8408C47.2969 55.652 47.2334 55.4274 47.2334 55.167C47.2334 54.734 47.4157 54.3678 47.7803 54.0684C48.1481 53.7689 48.6169 53.6191 49.1865 53.6191C49.7855 53.6191 50.2705 53.7738 50.6416 54.083C51.016 54.3923 51.2031 54.7878 51.2031 55.2695H50.2949C50.2949 55.0221 50.1891 54.8089 49.9775 54.6299C49.7692 54.4508 49.5055 54.3613 49.1865 54.3613C48.8577 54.3613 48.6006 54.4329 48.415 54.5762C48.2295 54.7194 48.1367 54.9066 48.1367 55.1377C48.1367 55.3558 48.223 55.5202 48.3955 55.6309C48.568 55.7415 48.8789 55.8473 49.3281 55.9482C49.7806 56.0492 50.1468 56.1696 50.4268 56.3096C50.7067 56.4495 50.9134 56.6188 51.0469 56.8174C51.1836 57.0127 51.252 57.252 51.252 57.5352C51.252 58.0072 51.0632 58.3864 50.6855 58.6729C50.3079 58.9561 49.818 59.0977 49.2158 59.0977C48.7926 59.0977 48.4183 59.0228 48.0928 58.873C47.7673 58.7233 47.5117 58.515 47.3262 58.248C47.1439 57.9779 47.0527 57.6865 47.0527 57.374H47.9561C47.9723 57.6768 48.0928 57.9176 48.3174 58.0967C48.5452 58.2725 48.8447 58.3604 49.2158 58.3604C49.5576 58.3604 49.8311 58.292 50.0361 58.1553C50.2445 58.0153 50.3486 57.8298 50.3486 57.5986Z" fill="#666666"/>
</svg>
