<svg width="77" height="67" viewBox="0 0 77 67" fill="none" xmlns="http://www.w3.org/2000/svg">
<path d="M7.20391 16.792C8.02517 14.3282 13.7055 15.081 16.4431 15.7654C19.5228 16.792 19.5228 18.8452 18.4962 20.8983C17.4697 22.9514 13.3634 21.9249 11.3102 21.9249C9.25706 21.9249 6.17733 19.8717 7.20391 16.792Z" fill="#C4C4C4"/>
<path d="M24.6009 20.9966C24.4048 18.407 29.934 16.9032 32.7231 16.475C35.9602 16.2299 36.7546 18.1231 36.6025 20.4135C36.4503 22.704 32.2667 23.3463 30.3734 24.1407C28.4802 24.9352 24.8459 24.2337 24.6009 20.9966Z" fill="#C4C4C4"/>
<path d="M41.9253 16.8763C41.7292 14.2867 47.2584 12.7829 50.0475 12.3547C53.2846 12.1096 52.5254 11.4218 52.3733 13.7123C52.2211 16.0027 49.5911 19.226 47.6978 20.0205C45.8046 20.8149 42.1704 20.1134 41.9253 16.8763Z" fill="#C4C4C4"/>
<path d="M56.2972 8.90034C56.1012 6.3107 61.6304 4.80689 64.4195 4.37869C67.6565 4.13362 66.8974 3.44584 66.7452 5.73628C66.5931 8.02672 63.963 11.25 62.0698 12.0445C60.1766 12.8389 56.5423 12.1374 56.2972 8.90034Z" fill="#C4C4C4"/>
<path d="M31.6594 8.90044C31.4633 6.3108 36.9925 4.80699 39.7816 4.37879C43.0187 4.13372 48.419 4.23581 48.2668 6.52625C48.1147 8.81669 39.3252 11.2501 37.432 12.0446C35.5388 12.839 31.9045 12.1375 31.6594 8.90044Z" fill="#C4C4C4"/>
<path d="M9.70864 1.70277C11.0036 -0.548397 16.4207 1.31936 18.9674 2.53464C21.7813 4.15334 26.1883 7.27617 24.7738 9.08407C23.3593 10.892 14.7239 7.95834 12.7118 7.54991C10.6997 7.14148 8.08994 4.51673 9.70864 1.70277Z" fill="#C4C4C4"/>
<path d="M8.11914 48.8311C7.3151 48.5999 6.72917 48.3167 6.36133 47.9814C5.99674 47.6429 5.81445 47.2262 5.81445 46.7314C5.81445 46.1715 6.03743 45.7093 6.4834 45.3447C6.93262 44.9769 7.5153 44.793 8.23145 44.793C8.71973 44.793 9.1543 44.8874 9.53516 45.0762C9.91927 45.265 10.2155 45.5254 10.4238 45.8574C10.6354 46.1895 10.7412 46.5524 10.7412 46.9463H9.79883C9.79883 46.5166 9.66211 46.1797 9.38867 45.9355C9.11523 45.6882 8.72949 45.5645 8.23145 45.5645C7.76921 45.5645 7.40788 45.667 7.14746 45.8721C6.8903 46.0739 6.76172 46.3555 6.76172 46.7168C6.76172 47.0065 6.88379 47.2523 7.12793 47.4541C7.37533 47.6527 7.79362 47.835 8.38281 48.001C8.97526 48.167 9.4375 48.3509 9.76953 48.5527C10.1048 48.7513 10.3522 48.984 10.5117 49.251C10.6745 49.5179 10.7559 49.832 10.7559 50.1934C10.7559 50.7695 10.5312 51.2318 10.082 51.5801C9.63281 51.9251 9.03223 52.0977 8.28027 52.0977C7.79199 52.0977 7.33626 52.0049 6.91309 51.8193C6.48991 51.6305 6.16276 51.3734 5.93164 51.0479C5.70378 50.7223 5.58984 50.3529 5.58984 49.9395H6.53223C6.53223 50.3691 6.6901 50.7093 7.00586 50.96C7.32487 51.2074 7.74967 51.3311 8.28027 51.3311C8.77507 51.3311 9.1543 51.2301 9.41797 51.0283C9.68164 50.8265 9.81348 50.5514 9.81348 50.2031C9.81348 49.8548 9.69141 49.5863 9.44727 49.3975C9.20312 49.2054 8.76042 49.0166 8.11914 48.8311ZM11.5811 49.3096C11.5811 48.792 11.682 48.3265 11.8838 47.9131C12.0889 47.4997 12.3721 47.1807 12.7334 46.9561C13.098 46.7314 13.513 46.6191 13.9785 46.6191C14.6979 46.6191 15.279 46.8682 15.7217 47.3662C16.1676 47.8643 16.3906 48.5267 16.3906 49.3535V49.417C16.3906 49.9313 16.2913 50.3936 16.0928 50.8037C15.8975 51.2106 15.6159 51.528 15.248 51.7559C14.8835 51.9837 14.4635 52.0977 13.9883 52.0977C13.2721 52.0977 12.6911 51.8486 12.2451 51.3506C11.8024 50.8525 11.5811 50.1934 11.5811 49.373V49.3096ZM12.4893 49.417C12.4893 50.0029 12.6243 50.4733 12.8945 50.8281C13.168 51.1829 13.5326 51.3604 13.9883 51.3604C14.4473 51.3604 14.8118 51.1813 15.082 50.8232C15.3522 50.4619 15.4873 49.9574 15.4873 49.3096C15.4873 48.7301 15.349 48.2614 15.0723 47.9033C14.7988 47.542 14.4342 47.3613 13.9785 47.3613C13.5326 47.3613 13.1729 47.5387 12.8994 47.8936C12.626 48.2484 12.4893 48.7562 12.4893 49.417ZM17.9678 52V47.415H17.1328V46.7168H17.9678V46.1748C17.9678 45.6084 18.1191 45.1706 18.4219 44.8613C18.7246 44.5521 19.1527 44.3975 19.7061 44.3975C19.9144 44.3975 20.1211 44.4251 20.3262 44.4805L20.2773 45.2129C20.1243 45.1836 19.9616 45.1689 19.7891 45.1689C19.4961 45.1689 19.2699 45.2552 19.1104 45.4277C18.9508 45.597 18.8711 45.8411 18.8711 46.1602V46.7168H19.999V47.415H18.8711V52H17.9678ZM22.2256 45.4375V46.7168H23.2119V47.415H22.2256V50.6914C22.2256 50.903 22.2695 51.0625 22.3574 51.1699C22.4453 51.2741 22.5951 51.3262 22.8066 51.3262C22.9108 51.3262 23.054 51.3066 23.2363 51.2676V52C22.9987 52.0651 22.7676 52.0977 22.543 52.0977C22.1393 52.0977 21.835 51.9756 21.6299 51.7314C21.4248 51.4873 21.3223 51.1406 21.3223 50.6914V47.415H20.3604V46.7168H21.3223V45.4375H22.2256ZM31.2246 49.417C31.2246 50.2243 31.0391 50.8737 30.668 51.3652C30.2969 51.8535 29.7988 52.0977 29.1738 52.0977C28.5065 52.0977 27.9906 51.8617 27.626 51.3896L27.582 52H26.752V44.5H27.6553V47.2979C28.0199 46.8454 28.5228 46.6191 29.1641 46.6191C29.8053 46.6191 30.3083 46.8617 30.6729 47.3467C31.0407 47.8317 31.2246 48.4958 31.2246 49.3389V49.417ZM30.3213 49.3145C30.3213 48.6992 30.2025 48.224 29.9648 47.8887C29.7272 47.5534 29.3854 47.3857 28.9395 47.3857C28.3438 47.3857 27.9157 47.6624 27.6553 48.2158V50.501C27.932 51.0544 28.3633 51.3311 28.9492 51.3311C29.3822 51.3311 29.7191 51.1634 29.96 50.8281C30.2008 50.4928 30.3213 49.9883 30.3213 49.3145ZM33.3486 52H32.4453V44.5H33.3486V52ZM34.5596 49.3096C34.5596 48.792 34.6605 48.3265 34.8623 47.9131C35.0674 47.4997 35.3506 47.1807 35.7119 46.9561C36.0765 46.7314 36.4915 46.6191 36.957 46.6191C37.6764 46.6191 38.2575 46.8682 38.7002 47.3662C39.1462 47.8643 39.3691 48.5267 39.3691 49.3535V49.417C39.3691 49.9313 39.2699 50.3936 39.0713 50.8037C38.876 51.2106 38.5944 51.528 38.2266 51.7559C37.862 51.9837 37.4421 52.0977 36.9668 52.0977C36.2507 52.0977 35.6696 51.8486 35.2236 51.3506C34.7809 50.8525 34.5596 50.1934 34.5596 49.373V49.3096ZM35.4678 49.417C35.4678 50.0029 35.6029 50.4733 35.873 50.8281C36.1465 51.1829 36.5111 51.3604 36.9668 51.3604C37.4258 51.3604 37.7904 51.1813 38.0605 50.8232C38.3307 50.4619 38.4658 49.9574 38.4658 49.3096C38.4658 48.7301 38.3275 48.2614 38.0508 47.9033C37.7773 47.542 37.4128 47.3613 36.957 47.3613C36.5111 47.3613 36.1514 47.5387 35.8779 47.8936C35.6045 48.2484 35.4678 48.7562 35.4678 49.417ZM44.9746 49.417C44.9746 50.2243 44.7891 50.8737 44.418 51.3652C44.0469 51.8535 43.5488 52.0977 42.9238 52.0977C42.2565 52.0977 41.7406 51.8617 41.376 51.3896L41.332 52H40.502V44.5H41.4053V47.2979C41.7699 46.8454 42.2728 46.6191 42.9141 46.6191C43.5553 46.6191 44.0583 46.8617 44.4229 47.3467C44.7907 47.8317 44.9746 48.4958 44.9746 49.3389V49.417ZM44.0713 49.3145C44.0713 48.6992 43.9525 48.224 43.7148 47.8887C43.4772 47.5534 43.1354 47.3857 42.6895 47.3857C42.0938 47.3857 41.6657 47.6624 41.4053 48.2158V50.501C41.682 51.0544 42.1133 51.3311 42.6992 51.3311C43.1322 51.3311 43.4691 51.1634 43.71 50.8281C43.9508 50.4928 44.0713 49.9883 44.0713 49.3145ZM49.1934 50.5986C49.1934 50.3545 49.1006 50.1657 48.915 50.0322C48.7327 49.8955 48.4121 49.7783 47.9531 49.6807C47.4974 49.583 47.1344 49.4658 46.8643 49.3291C46.5973 49.1924 46.3988 49.0296 46.2686 48.8408C46.1416 48.652 46.0781 48.4274 46.0781 48.167C46.0781 47.734 46.2604 47.3678 46.625 47.0684C46.9928 46.7689 47.4616 46.6191 48.0312 46.6191C48.6302 46.6191 49.1152 46.7738 49.4863 47.083C49.8607 47.3923 50.0479 47.7878 50.0479 48.2695H49.1396C49.1396 48.0221 49.0339 47.8089 48.8223 47.6299C48.6139 47.4508 48.3503 47.3613 48.0312 47.3613C47.7025 47.3613 47.4453 47.4329 47.2598 47.5762C47.0742 47.7194 46.9814 47.9066 46.9814 48.1377C46.9814 48.3558 47.0677 48.5202 47.2402 48.6309C47.4128 48.7415 47.7236 48.8473 48.1729 48.9482C48.6253 49.0492 48.9915 49.1696 49.2715 49.3096C49.5514 49.4495 49.7581 49.6188 49.8916 49.8174C50.0283 50.0127 50.0967 50.252 50.0967 50.5352C50.0967 51.0072 49.9079 51.3864 49.5303 51.6729C49.1527 51.9561 48.6628 52.0977 48.0605 52.0977C47.6374 52.0977 47.263 52.0228 46.9375 51.873C46.612 51.7233 46.3564 51.515 46.1709 51.248C45.9886 50.9779 45.8975 50.6865 45.8975 50.374H46.8008C46.8171 50.6768 46.9375 50.9176 47.1621 51.0967C47.39 51.2725 47.6895 51.3604 48.0605 51.3604C48.4023 51.3604 48.6758 51.292 48.8809 51.1553C49.0892 51.0153 49.1934 50.8298 49.1934 50.5986ZM58.4316 50.7549L59.4473 46.7168H60.3506L58.8125 52H58.0801L56.7959 47.9961L55.5459 52H54.8135L53.2803 46.7168H54.1787L55.2188 50.6719L56.4492 46.7168H57.1768L58.4316 50.7549ZM62.2549 52H61.3516V46.7168H62.2549V52ZM61.2783 45.3154C61.2783 45.1689 61.3223 45.0452 61.4102 44.9443C61.5013 44.8434 61.6348 44.793 61.8105 44.793C61.9863 44.793 62.1198 44.8434 62.2109 44.9443C62.3021 45.0452 62.3477 45.1689 62.3477 45.3154C62.3477 45.4619 62.3021 45.584 62.2109 45.6816C62.1198 45.7793 61.9863 45.8281 61.8105 45.8281C61.6348 45.8281 61.5013 45.7793 61.4102 45.6816C61.3223 45.584 61.2783 45.4619 61.2783 45.3154ZM64.9307 45.4375V46.7168H65.917V47.415H64.9307V50.6914C64.9307 50.903 64.9746 51.0625 65.0625 51.1699C65.1504 51.2741 65.3001 51.3262 65.5117 51.3262C65.6159 51.3262 65.7591 51.3066 65.9414 51.2676V52C65.7038 52.0651 65.4727 52.0977 65.248 52.0977C64.8444 52.0977 64.54 51.9756 64.335 51.7314C64.1299 51.4873 64.0273 51.1406 64.0273 50.6914V47.415H63.0654V46.7168H64.0273V45.4375H64.9307ZM67.8799 47.3564C68.2803 46.8649 68.8011 46.6191 69.4424 46.6191C70.5589 46.6191 71.1221 47.249 71.1318 48.5088V52H70.2285V48.5039C70.2253 48.123 70.1374 47.8415 69.9648 47.6592C69.7956 47.4769 69.5303 47.3857 69.1689 47.3857C68.876 47.3857 68.6188 47.4639 68.3975 47.6201C68.1761 47.7764 68.0036 47.9814 67.8799 48.2354V52H66.9766V44.5H67.8799V47.3564ZM7.40137 63.3604C7.72363 63.3604 8.00521 63.2627 8.24609 63.0674C8.48698 62.8721 8.62044 62.6279 8.64648 62.335H9.50098C9.4847 62.6377 9.38053 62.9258 9.18848 63.1992C8.99642 63.4727 8.73926 63.6908 8.41699 63.8535C8.09798 64.0163 7.75944 64.0977 7.40137 64.0977C6.68197 64.0977 6.10905 63.8584 5.68262 63.3799C5.25944 62.8981 5.04785 62.2406 5.04785 61.4072V61.2559C5.04785 60.7415 5.14225 60.2842 5.33105 59.8838C5.51986 59.4834 5.79004 59.1725 6.1416 58.9512C6.49642 58.7298 6.91471 58.6191 7.39648 58.6191C7.98893 58.6191 8.48047 58.7965 8.87109 59.1514C9.26497 59.5062 9.47493 59.9668 9.50098 60.5332H8.64648C8.62044 60.1914 8.49023 59.9115 8.25586 59.6934C8.02474 59.472 7.73828 59.3613 7.39648 59.3613C6.9375 59.3613 6.58105 59.5273 6.32715 59.8594C6.0765 60.1882 5.95117 60.665 5.95117 61.29V61.4609C5.95117 62.0697 6.0765 62.5384 6.32715 62.8672C6.5778 63.196 6.93587 63.3604 7.40137 63.3604ZM11.498 64H10.5947V56.5H11.498V64ZM15.1406 64.0977C14.4245 64.0977 13.8418 63.8633 13.3926 63.3945C12.9434 62.9225 12.7188 62.2926 12.7188 61.5049V61.3389C12.7188 60.8148 12.818 60.3477 13.0166 59.9375C13.2184 59.5241 13.4984 59.2018 13.8564 58.9707C14.2178 58.7363 14.6084 58.6191 15.0283 58.6191C15.7152 58.6191 16.249 58.8454 16.6299 59.2979C17.0107 59.7503 17.2012 60.3981 17.2012 61.2412V61.6172H13.6221C13.6351 62.138 13.7865 62.5596 14.0762 62.8818C14.3691 63.2008 14.7402 63.3604 15.1895 63.3604C15.5085 63.3604 15.7786 63.2952 16 63.165C16.2214 63.0348 16.415 62.8623 16.5811 62.6475L17.1328 63.0771C16.6901 63.7575 16.026 64.0977 15.1406 64.0977ZM15.0283 59.3613C14.6637 59.3613 14.3577 59.4948 14.1104 59.7617C13.863 60.0254 13.71 60.3965 13.6514 60.875H16.2979V60.8066C16.2718 60.3477 16.1481 59.9928 15.9268 59.7422C15.7054 59.4883 15.4059 59.3613 15.0283 59.3613ZM21.5127 64C21.4606 63.8958 21.4183 63.7103 21.3857 63.4434C20.9658 63.8796 20.4645 64.0977 19.8818 64.0977C19.361 64.0977 18.9329 63.9512 18.5977 63.6582C18.2656 63.362 18.0996 62.9876 18.0996 62.5352C18.0996 61.985 18.3079 61.5586 18.7246 61.2559C19.1445 60.9499 19.7337 60.7969 20.4922 60.7969H21.3711V60.3818C21.3711 60.0661 21.2767 59.8154 21.0879 59.6299C20.8991 59.4411 20.6208 59.3467 20.2529 59.3467C19.9307 59.3467 19.6605 59.4281 19.4424 59.5908C19.2243 59.7536 19.1152 59.9505 19.1152 60.1816H18.207C18.207 59.918 18.2998 59.6641 18.4854 59.4199C18.6742 59.1725 18.9281 58.9772 19.2471 58.834C19.5693 58.6908 19.9225 58.6191 20.3066 58.6191C20.9154 58.6191 21.3923 58.7721 21.7373 59.0781C22.0824 59.3809 22.2614 59.7992 22.2744 60.333V62.7646C22.2744 63.2497 22.3363 63.6354 22.46 63.9219V64H21.5127ZM20.0137 63.3115C20.2969 63.3115 20.5654 63.2383 20.8193 63.0918C21.0732 62.9453 21.2572 62.7549 21.3711 62.5205V61.4365H20.6631C19.5563 61.4365 19.0029 61.7604 19.0029 62.4082C19.0029 62.6914 19.0973 62.9128 19.2861 63.0723C19.4749 63.2318 19.7174 63.3115 20.0137 63.3115ZM26.2441 59.5273C26.1074 59.5046 25.9593 59.4932 25.7998 59.4932C25.2074 59.4932 24.8053 59.7454 24.5938 60.25V64H23.6904V58.7168H24.5693L24.584 59.3271C24.8802 58.8551 25.3001 58.6191 25.8438 58.6191C26.0195 58.6191 26.153 58.6419 26.2441 58.6875V59.5273ZM31.6787 63.3604C32.001 63.3604 32.2826 63.2627 32.5234 63.0674C32.7643 62.8721 32.8978 62.6279 32.9238 62.335H33.7783C33.762 62.6377 33.6579 62.9258 33.4658 63.1992C33.2738 63.4727 33.0166 63.6908 32.6943 63.8535C32.3753 64.0163 32.0368 64.0977 31.6787 64.0977C30.9593 64.0977 30.3864 63.8584 29.96 63.3799C29.5368 62.8981 29.3252 62.2406 29.3252 61.4072V61.2559C29.3252 60.7415 29.4196 60.2842 29.6084 59.8838C29.7972 59.4834 30.0674 59.1725 30.4189 58.9512C30.7738 58.7298 31.1921 58.6191 31.6738 58.6191C32.2663 58.6191 32.7578 58.7965 33.1484 59.1514C33.5423 59.5062 33.7523 59.9668 33.7783 60.5332H32.9238C32.8978 60.1914 32.7676 59.9115 32.5332 59.6934C32.3021 59.472 32.0156 59.3613 31.6738 59.3613C31.2148 59.3613 30.8584 59.5273 30.6045 59.8594C30.3538 60.1882 30.2285 60.665 30.2285 61.29V61.4609C30.2285 62.0697 30.3538 62.5384 30.6045 62.8672C30.8551 63.196 31.2132 63.3604 31.6787 63.3604ZM38.0557 63.4775C37.7041 63.891 37.1882 64.0977 36.5078 64.0977C35.9447 64.0977 35.515 63.9349 35.2188 63.6094C34.9258 63.2806 34.7777 62.7956 34.7744 62.1543V58.7168H35.6777V62.1299C35.6777 62.9307 36.0033 63.3311 36.6543 63.3311C37.3444 63.3311 37.8034 63.0739 38.0312 62.5596V58.7168H38.9346V64H38.0752L38.0557 63.4775ZM41.5371 57.4375V58.7168H42.5234V59.415H41.5371V62.6914C41.5371 62.903 41.5811 63.0625 41.6689 63.1699C41.7568 63.2741 41.9066 63.3262 42.1182 63.3262C42.2223 63.3262 42.3656 63.3066 42.5479 63.2676V64C42.3102 64.0651 42.0791 64.0977 41.8545 64.0977C41.4508 64.0977 41.1465 63.9756 40.9414 63.7314C40.7363 63.4873 40.6338 63.1406 40.6338 62.6914V59.415H39.6719V58.7168H40.6338V57.4375H41.5371ZM48.2559 64.0977C47.5397 64.0977 46.957 63.8633 46.5078 63.3945C46.0586 62.9225 45.834 62.2926 45.834 61.5049V61.3389C45.834 60.8148 45.9333 60.3477 46.1318 59.9375C46.3337 59.5241 46.6136 59.2018 46.9717 58.9707C47.333 58.7363 47.7236 58.6191 48.1436 58.6191C48.8304 58.6191 49.3643 58.8454 49.7451 59.2979C50.126 59.7503 50.3164 60.3981 50.3164 61.2412V61.6172H46.7373C46.7503 62.138 46.9017 62.5596 47.1914 62.8818C47.4844 63.2008 47.8555 63.3604 48.3047 63.3604C48.6237 63.3604 48.8939 63.2952 49.1152 63.165C49.3366 63.0348 49.5303 62.8623 49.6963 62.6475L50.248 63.0771C49.8053 63.7575 49.1413 64.0977 48.2559 64.0977ZM48.1436 59.3613C47.779 59.3613 47.473 59.4948 47.2256 59.7617C46.9782 60.0254 46.8252 60.3965 46.7666 60.875H49.4131V60.8066C49.387 60.3477 49.2633 59.9928 49.042 59.7422C48.8206 59.4883 48.5212 59.3613 48.1436 59.3613ZM51.1465 61.3145C51.1465 60.5039 51.3385 59.8529 51.7227 59.3613C52.1068 58.8665 52.6097 58.6191 53.2314 58.6191C53.8499 58.6191 54.3398 58.8307 54.7012 59.2539V56.5H55.6045V64H54.7744L54.7305 63.4336C54.3691 63.8763 53.8662 64.0977 53.2217 64.0977C52.6097 64.0977 52.11 63.847 51.7227 63.3457C51.3385 62.8444 51.1465 62.1901 51.1465 61.3828V61.3145ZM52.0498 61.417C52.0498 62.016 52.1735 62.4847 52.4209 62.8232C52.6683 63.1618 53.0101 63.3311 53.4463 63.3311C54.0192 63.3311 54.4375 63.0739 54.7012 62.5596V60.1328C54.431 59.6348 54.016 59.3857 53.4561 59.3857C53.0133 59.3857 52.6683 59.5566 52.4209 59.8984C52.1735 60.2402 52.0498 60.7464 52.0498 61.417ZM56.7959 61.3145C56.7959 60.4909 56.9863 59.8366 57.3672 59.3516C57.748 58.8633 58.2526 58.6191 58.8809 58.6191C59.5254 58.6191 60.0283 58.847 60.3896 59.3027L60.4336 58.7168H61.2588V63.873C61.2588 64.5566 61.0553 65.0954 60.6484 65.4893C60.2448 65.8831 59.7012 66.0801 59.0176 66.0801C58.6367 66.0801 58.264 65.9987 57.8994 65.8359C57.5348 65.6732 57.2565 65.4502 57.0645 65.167L57.5332 64.625C57.9206 65.1035 58.3942 65.3428 58.9541 65.3428C59.3936 65.3428 59.7354 65.2191 59.9795 64.9717C60.2269 64.7243 60.3506 64.376 60.3506 63.9268V63.4727C59.9893 63.8893 59.4961 64.0977 58.8711 64.0977C58.2526 64.0977 57.7513 63.8486 57.3672 63.3506C56.9863 62.8525 56.7959 62.1738 56.7959 61.3145ZM57.7041 61.417C57.7041 62.0127 57.8262 62.4814 58.0703 62.8232C58.3145 63.1618 58.6562 63.3311 59.0957 63.3311C59.6654 63.3311 60.0837 63.0723 60.3506 62.5547V60.1426C60.0739 59.638 59.6589 59.3857 59.1055 59.3857C58.666 59.3857 58.3226 59.5566 58.0752 59.8984C57.8278 60.2402 57.7041 60.7464 57.7041 61.417ZM64.8184 64.0977C64.1022 64.0977 63.5195 63.8633 63.0703 63.3945C62.6211 62.9225 62.3965 62.2926 62.3965 61.5049V61.3389C62.3965 60.8148 62.4958 60.3477 62.6943 59.9375C62.8962 59.5241 63.1761 59.2018 63.5342 58.9707C63.8955 58.7363 64.2861 58.6191 64.7061 58.6191C65.3929 58.6191 65.9268 58.8454 66.3076 59.2979C66.6885 59.7503 66.8789 60.3981 66.8789 61.2412V61.6172H63.2998C63.3128 62.138 63.4642 62.5596 63.7539 62.8818C64.0469 63.2008 64.418 63.3604 64.8672 63.3604C65.1862 63.3604 65.4564 63.2952 65.6777 63.165C65.8991 63.0348 66.0928 62.8623 66.2588 62.6475L66.8105 63.0771C66.3678 63.7575 65.7038 64.0977 64.8184 64.0977ZM64.7061 59.3613C64.3415 59.3613 64.0355 59.4948 63.7881 59.7617C63.5407 60.0254 63.3877 60.3965 63.3291 60.875H65.9756V60.8066C65.9495 60.3477 65.8258 59.9928 65.6045 59.7422C65.3831 59.4883 65.0837 59.3613 64.7061 59.3613ZM71.0049 62.5986C71.0049 62.3545 70.9121 62.1657 70.7266 62.0322C70.5443 61.8955 70.2236 61.7783 69.7646 61.6807C69.3089 61.583 68.946 61.4658 68.6758 61.3291C68.4089 61.1924 68.2103 61.0296 68.0801 60.8408C67.9531 60.652 67.8896 60.4274 67.8896 60.167C67.8896 59.734 68.0719 59.3678 68.4365 59.0684C68.8044 58.7689 69.2731 58.6191 69.8428 58.6191C70.4417 58.6191 70.9268 58.7738 71.2979 59.083C71.6722 59.3923 71.8594 59.7878 71.8594 60.2695H70.9512C70.9512 60.0221 70.8454 59.8089 70.6338 59.6299C70.4255 59.4508 70.1618 59.3613 69.8428 59.3613C69.514 59.3613 69.2568 59.4329 69.0713 59.5762C68.8857 59.7194 68.793 59.9066 68.793 60.1377C68.793 60.3558 68.8792 60.5202 69.0518 60.6309C69.2243 60.7415 69.5352 60.8473 69.9844 60.9482C70.4368 61.0492 70.8031 61.1696 71.083 61.3096C71.363 61.4495 71.5697 61.6188 71.7031 61.8174C71.8398 62.0127 71.9082 62.252 71.9082 62.5352C71.9082 63.0072 71.7194 63.3864 71.3418 63.6729C70.9642 63.9561 70.4743 64.0977 69.8721 64.0977C69.4489 64.0977 69.0745 64.0228 68.749 63.873C68.4235 63.7233 68.168 63.515 67.9824 63.248C67.8001 62.9779 67.709 62.6865 67.709 62.374H68.6123C68.6286 62.6768 68.749 62.9176 68.9736 63.0967C69.2015 63.2725 69.501 63.3604 69.8721 63.3604C70.2139 63.3604 70.4873 63.292 70.6924 63.1553C70.9007 63.0153 71.0049 62.8298 71.0049 62.5986Z" fill="#666666"/>
</svg>
