<svg width="77" height="72" viewBox="0 0 77 72" fill="none" xmlns="http://www.w3.org/2000/svg">
<path d="M13.3455 9.25319C14.1668 11.717 19.8471 10.9642 22.5847 10.2798C25.6644 9.25319 25.6644 7.20004 24.6378 5.1469C23.6113 3.09375 19.505 4.12032 17.4518 4.12032C15.3987 4.12032 12.3189 6.17347 13.3455 9.25319Z" fill="#C4C4C4"/>
<path d="M30.7425 5.04859C30.5464 7.63823 36.0756 9.14204 38.8647 9.57024C42.1018 9.81531 42.8962 7.9221 42.7441 5.63166C42.5919 3.34122 38.4083 2.69892 36.515 1.90446C34.6218 1.11001 30.9875 1.81154 30.7425 5.04859Z" fill="#C4C4C4"/>
<path d="M48.0668 9.16887C47.8707 11.7585 53.3999 13.2623 56.189 13.6905C59.426 13.9356 58.6669 14.6234 58.5147 12.3329C58.3626 10.0425 55.7325 6.8192 53.8393 6.02474C51.9461 5.23029 48.3118 5.93182 48.0668 9.16887Z" fill="#C4C4C4"/>
<path d="M43.665 5.98302C43.5434 7.58839 46.9711 8.52063 48.7001 8.78609C50.7068 8.93801 50.2362 9.36438 50.1419 7.94449C50.0476 6.5246 48.4172 4.52641 47.2435 4.03391C46.0699 3.54141 43.8169 3.97631 43.665 5.98302Z" fill="#C4C4C4"/>
<path d="M37.9184 16.7504C37.765 18.7768 42.0916 19.9535 44.274 20.2886C46.807 20.4803 51.0327 20.4005 50.9137 18.6082C50.7946 16.8159 43.9169 14.9118 42.4354 14.2901C40.954 13.6685 38.1102 14.2174 37.9184 16.7504Z" fill="#C4C4C4"/>
<path d="M21.5793 21.0463C22.3782 22.4352 25.7204 21.2829 27.2917 20.5331C29.0278 19.5344 31.7468 17.6077 30.8741 16.4922C30.0014 15.3768 24.6736 17.1868 23.4322 17.4388C22.1907 17.6908 20.5806 19.3102 21.5793 21.0463Z" fill="#C4C4C4"/>
<path d="M21.1266 13.5933C22.1188 15.3181 26.2693 13.887 28.2205 12.9559C30.3765 11.7157 33.7531 9.32298 32.6693 7.93779C31.5856 6.5526 24.9692 8.80031 23.4276 9.11324C21.8859 9.42617 19.8863 11.4372 21.1266 13.5933Z" fill="#C4C4C4"/>
<path d="M6.70623 11.5508C6.45113 13.5242 10.6206 14.8991 12.7372 15.3399C15.2039 15.6588 19.3399 15.7998 19.3164 14.0412C19.293 12.2826 12.6668 10.0641 11.2505 9.3794C9.8342 8.69473 7.0251 9.084 6.70623 11.5508Z" fill="#C4C4C4"/>
<path d="M27.8478 14.8329C27.5927 16.8063 31.7622 18.1812 33.8788 18.622C36.3455 18.9409 40.4815 19.0819 40.458 17.3233C40.4346 15.5647 33.8084 13.3462 32.3921 12.6615C30.9758 11.9768 28.1667 12.3661 27.8478 14.8329Z" fill="#C4C4C4"/>
<path d="M57.4261 15.5142C58.4067 16.9763 61.9832 15.4609 63.649 14.5204C65.4766 13.2947 68.3117 10.9775 67.2709 9.82067C66.2301 8.66386 60.5266 11.05 59.1848 11.4199C57.843 11.7898 56.2003 13.6865 57.4261 15.5142Z" fill="#C4C4C4"/>
<path d="M40.2582 6.51625C41.2388 7.9784 44.8154 6.46298 46.4811 5.5225C48.3088 4.29674 51.1438 1.97955 50.103 0.822743C49.0622 -0.334065 43.3587 2.05208 42.0169 2.42199C40.6752 2.79191 39.0324 4.68856 40.2582 6.51625Z" fill="#C4C4C4"/>
<path d="M44.2203 13.6778C45.0484 15.182 47.5697 13.9575 48.7268 13.1573C49.9823 12.0892 51.8996 10.0251 51.0495 8.81568C50.1994 7.60629 46.1765 9.52909 45.2162 9.79385C44.2559 10.0586 43.1853 11.7975 44.2203 13.6778Z" fill="#C4C4C4"/>
<path d="M39.6469 9.3019C39.2447 10.4779 41.1283 11.2316 42.1204 11.4614C43.3037 11.6136 45.3427 11.6349 45.5763 10.5907C45.8099 9.54655 42.8211 8.32889 42.2116 7.94361C41.6021 7.55832 40.1496 7.83194 39.6469 9.3019Z" fill="#C4C4C4"/>
<path d="M26.6469 5.3019C26.2447 6.47787 28.1283 7.23158 29.1204 7.46145C30.3037 7.61359 32.3427 7.63492 32.5763 6.59073C32.8099 5.54655 29.8211 4.32889 29.2116 3.94361C28.6021 3.55832 27.1496 3.83194 26.6469 5.3019Z" fill="#C4C4C4"/>
<path d="M18.6469 16.3019C18.2447 17.4779 20.1283 18.2316 21.1204 18.4614C22.3037 18.6136 24.3427 18.6349 24.5763 17.5907C24.8099 16.5465 21.8211 15.3289 21.2116 14.9436C20.6021 14.5583 19.1496 14.8319 18.6469 16.3019Z" fill="#C4C4C4"/>
<path d="M34.2203 13.6778C35.0484 15.182 37.5697 13.9575 38.7268 13.1573C39.9823 12.0892 41.8996 10.0251 41.0495 8.81568C40.1994 7.60629 36.1765 9.52909 35.2162 9.79385C34.2559 10.0586 33.1853 11.7975 34.2203 13.6778Z" fill="#C4C4C4"/>
<path d="M48.2203 19.6778C49.0484 21.182 51.5697 19.9575 52.7268 19.1573C53.9823 18.0892 55.8996 16.0251 55.0495 14.8157C54.1994 13.6063 50.1765 15.5291 49.2162 15.7938C48.2559 16.0586 47.1853 17.7975 48.2203 19.6778Z" fill="#C4C4C4"/>
<path d="M30.989 23.1729C31.5976 24.2785 33.4507 23.3785 34.3011 22.7904C35.2239 22.0054 36.6331 20.4883 36.0083 19.5994C35.3835 18.7105 32.4268 20.1238 31.7209 20.3183C31.0151 20.5129 30.2283 21.791 30.989 23.1729Z" fill="#C4C4C4"/>
<path d="M25.7119 37.8976L28.0361 43.6984L30.3604 37.8976H31.5762V45.007H30.6387V42.2384L30.7266 39.2501L28.3926 45.007H27.6748L25.3457 39.2648L25.4385 42.2384V45.007H24.501V37.8976H25.7119ZM36.3516 44.4845C36 44.8979 35.484 45.1046 34.8037 45.1046C34.2406 45.1046 33.8109 44.9419 33.5146 44.6163C33.2217 44.2876 33.0736 43.8025 33.0703 43.1613V39.7238H33.9736V43.1368C33.9736 43.9376 34.2992 44.338 34.9502 44.338C35.6403 44.338 36.0993 44.0809 36.3271 43.5665V39.7238H37.2305V45.007H36.3711L36.3516 44.4845ZM41.6836 43.6056C41.6836 43.3615 41.5908 43.1726 41.4053 43.0392C41.223 42.9025 40.9023 42.7853 40.4434 42.6876C39.9876 42.59 39.6247 42.4728 39.3545 42.3361C39.0876 42.1993 38.889 42.0366 38.7588 41.8478C38.6318 41.659 38.5684 41.4344 38.5684 41.174C38.5684 40.741 38.7507 40.3748 39.1152 40.0753C39.4831 39.7758 39.9518 39.6261 40.5215 39.6261C41.1204 39.6261 41.6055 39.7807 41.9766 40.09C42.3509 40.3992 42.5381 40.7947 42.5381 41.2765H41.6299C41.6299 41.0291 41.5241 40.8159 41.3125 40.6368C41.1042 40.4578 40.8405 40.3683 40.5215 40.3683C40.1927 40.3683 39.9355 40.4399 39.75 40.5831C39.5645 40.7264 39.4717 40.9135 39.4717 41.1447C39.4717 41.3628 39.5579 41.5271 39.7305 41.6378C39.903 41.7485 40.2139 41.8543 40.6631 41.9552C41.1156 42.0561 41.4818 42.1766 41.7617 42.3165C42.0417 42.4565 42.2484 42.6258 42.3818 42.8243C42.5186 43.0197 42.5869 43.2589 42.5869 43.5421C42.5869 44.0141 42.3981 44.3934 42.0205 44.6798C41.6429 44.963 41.153 45.1046 40.5508 45.1046C40.1276 45.1046 39.7533 45.0297 39.4277 44.88C39.1022 44.7303 38.8467 44.5219 38.6611 44.255C38.4788 43.9848 38.3877 43.6935 38.3877 43.381H39.291C39.3073 43.6837 39.4277 43.9246 39.6523 44.1036C39.8802 44.2794 40.1797 44.3673 40.5508 44.3673C40.8926 44.3673 41.166 44.299 41.3711 44.1622C41.5794 44.0223 41.6836 43.8367 41.6836 43.6056ZM44.667 40.3634C45.0674 39.8719 45.5882 39.6261 46.2295 39.6261C47.346 39.6261 47.9092 40.256 47.9189 41.5157V45.007H47.0156V41.5109C47.0124 41.13 46.9245 40.8484 46.752 40.6661C46.5827 40.4838 46.3174 40.3927 45.9561 40.3927C45.6631 40.3927 45.4059 40.4708 45.1846 40.6271C44.9632 40.7833 44.7907 40.9884 44.667 41.2423V45.007H43.7637V37.507H44.667V40.3634ZM51 43.6837L52.2305 39.7238H53.1973L51.0732 45.8224C50.7445 46.7013 50.222 47.1407 49.5059 47.1407L49.335 47.1261L48.998 47.0626V46.3302L49.2422 46.3497C49.5482 46.3497 49.7858 46.2879 49.9551 46.1642C50.1276 46.0405 50.2692 45.8142 50.3799 45.4855L50.5801 44.9484L48.6953 39.7238H49.6816L51 43.6837ZM4.06641 56.3673C4.38867 56.3673 4.67025 56.2697 4.91113 56.0743C5.15202 55.879 5.28548 55.6349 5.31152 55.3419H6.16602C6.14974 55.6447 6.04557 55.9327 5.85352 56.2062C5.66146 56.4796 5.4043 56.6977 5.08203 56.8605C4.76302 57.0232 4.42448 57.1046 4.06641 57.1046C3.34701 57.1046 2.77409 56.8654 2.34766 56.3868C1.92448 55.9051 1.71289 55.2475 1.71289 54.4142V54.2628C1.71289 53.7485 1.80729 53.2911 1.99609 52.8907C2.1849 52.4904 2.45508 52.1795 2.80664 51.9581C3.16146 51.7368 3.57975 51.6261 4.06152 51.6261C4.65397 51.6261 5.14551 51.8035 5.53613 52.1583C5.93001 52.5131 6.13997 52.9738 6.16602 53.5402H5.31152C5.28548 53.1984 5.15527 52.9184 4.9209 52.7003C4.68978 52.479 4.40332 52.3683 4.06152 52.3683C3.60254 52.3683 3.24609 52.5343 2.99219 52.8663C2.74154 53.1951 2.61621 53.672 2.61621 54.297V54.4679C2.61621 55.0766 2.74154 55.5454 2.99219 55.8741C3.24284 56.2029 3.60091 56.3673 4.06641 56.3673ZM6.94238 54.3165C6.94238 53.799 7.04329 53.3335 7.24512 52.92C7.4502 52.5066 7.7334 52.1876 8.09473 51.963C8.45931 51.7384 8.87435 51.6261 9.33984 51.6261C10.0592 51.6261 10.6403 51.8751 11.083 52.3732C11.529 52.8712 11.752 53.5337 11.752 54.3605V54.424C11.752 54.9383 11.6527 55.4005 11.4541 55.8107C11.2588 56.2176 10.9772 56.535 10.6094 56.7628C10.2448 56.9907 9.82487 57.1046 9.34961 57.1046C8.63346 57.1046 8.05241 56.8556 7.60645 56.3575C7.16374 55.8595 6.94238 55.2003 6.94238 54.38V54.3165ZM7.85059 54.424C7.85059 55.0099 7.98568 55.4803 8.25586 55.8351C8.5293 56.1899 8.89388 56.3673 9.34961 56.3673C9.80859 56.3673 10.1732 56.1883 10.4434 55.8302C10.7135 55.4689 10.8486 54.9643 10.8486 54.3165C10.8486 53.7371 10.7103 53.2684 10.4336 52.9103C10.1602 52.549 9.79557 52.3683 9.33984 52.3683C8.89388 52.3683 8.53418 52.5457 8.26074 52.9005C7.9873 53.2553 7.85059 53.7631 7.85059 54.424ZM13.7393 51.7238L13.7686 52.3878C14.1722 51.88 14.6995 51.6261 15.3506 51.6261C16.4671 51.6261 17.0303 52.256 17.04 53.5157V57.007H16.1367V53.5109C16.1335 53.13 16.0456 52.8484 15.873 52.6661C15.7038 52.4838 15.4385 52.3927 15.0771 52.3927C14.7842 52.3927 14.527 52.4708 14.3057 52.6271C14.0843 52.7833 13.9118 52.9884 13.7881 53.2423V57.007H12.8848V51.7238H13.7393ZM21.4785 55.6056C21.4785 55.3615 21.3857 55.1726 21.2002 55.0392C21.0179 54.9025 20.6973 54.7853 20.2383 54.6876C19.7826 54.59 19.4196 54.4728 19.1494 54.3361C18.8825 54.1993 18.6839 54.0366 18.5537 53.8478C18.4268 53.659 18.3633 53.4344 18.3633 53.174C18.3633 52.741 18.5456 52.3748 18.9102 52.0753C19.278 51.7758 19.7467 51.6261 20.3164 51.6261C20.9154 51.6261 21.4004 51.7807 21.7715 52.09C22.1458 52.3992 22.333 52.7947 22.333 53.2765H21.4248C21.4248 53.0291 21.319 52.8159 21.1074 52.6368C20.8991 52.4578 20.6354 52.3683 20.3164 52.3683C19.9876 52.3683 19.7305 52.4399 19.5449 52.5831C19.3594 52.7264 19.2666 52.9135 19.2666 53.1447C19.2666 53.3628 19.3529 53.5271 19.5254 53.6378C19.6979 53.7485 20.0088 53.8543 20.458 53.9552C20.9105 54.0561 21.2767 54.1766 21.5566 54.3165C21.8366 54.4565 22.0433 54.6258 22.1768 54.8243C22.3135 55.0197 22.3818 55.2589 22.3818 55.5421C22.3818 56.0141 22.193 56.3934 21.8154 56.6798C21.4378 56.963 20.9479 57.1046 20.3457 57.1046C19.9225 57.1046 19.5482 57.0297 19.2227 56.88C18.8971 56.7303 18.6416 56.5219 18.4561 56.255C18.2738 55.9848 18.1826 55.6935 18.1826 55.381H19.0859C19.1022 55.6837 19.2227 55.9246 19.4473 56.1036C19.6751 56.2794 19.9746 56.3673 20.3457 56.3673C20.6875 56.3673 20.9609 56.299 21.166 56.1622C21.3743 56.0223 21.4785 55.8367 21.4785 55.6056ZM24.54 57.007H23.6367V51.7238H24.54V57.007ZM23.5635 50.3224C23.5635 50.1759 23.6074 50.0522 23.6953 49.9513C23.7865 49.8504 23.9199 49.7999 24.0957 49.7999C24.2715 49.7999 24.4049 49.8504 24.4961 49.9513C24.5872 50.0522 24.6328 50.1759 24.6328 50.3224C24.6328 50.4689 24.5872 50.5909 24.4961 50.6886C24.4049 50.7863 24.2715 50.8351 24.0957 50.8351C23.9199 50.8351 23.7865 50.7863 23.6953 50.6886C23.6074 50.5909 23.5635 50.4689 23.5635 50.3224ZM29.0664 55.6056C29.0664 55.3615 28.9736 55.1726 28.7881 55.0392C28.6058 54.9025 28.2852 54.7853 27.8262 54.6876C27.3704 54.59 27.0075 54.4728 26.7373 54.3361C26.4704 54.1993 26.2718 54.0366 26.1416 53.8478C26.0146 53.659 25.9512 53.4344 25.9512 53.174C25.9512 52.741 26.1335 52.3748 26.498 52.0753C26.8659 51.7758 27.3346 51.6261 27.9043 51.6261C28.5033 51.6261 28.9883 51.7807 29.3594 52.09C29.7337 52.3992 29.9209 52.7947 29.9209 53.2765H29.0127C29.0127 53.0291 28.9069 52.8159 28.6953 52.6368C28.487 52.4578 28.2233 52.3683 27.9043 52.3683C27.5755 52.3683 27.3184 52.4399 27.1328 52.5831C26.9473 52.7264 26.8545 52.9135 26.8545 53.1447C26.8545 53.3628 26.9408 53.5271 27.1133 53.6378C27.2858 53.7485 27.5967 53.8543 28.0459 53.9552C28.4984 54.0561 28.8646 54.1766 29.1445 54.3165C29.4245 54.4565 29.6312 54.6258 29.7646 54.8243C29.9014 55.0197 29.9697 55.2589 29.9697 55.5421C29.9697 56.0141 29.7809 56.3934 29.4033 56.6798C29.0257 56.963 28.5358 57.1046 27.9336 57.1046C27.5104 57.1046 27.1361 57.0297 26.8105 56.88C26.485 56.7303 26.2295 56.5219 26.0439 56.255C25.8617 55.9848 25.7705 55.6935 25.7705 55.381H26.6738C26.6901 55.6837 26.8105 55.9246 27.0352 56.1036C27.263 56.2794 27.5625 56.3673 27.9336 56.3673C28.2754 56.3673 28.5488 56.299 28.7539 56.1622C28.9622 56.0223 29.0664 55.8367 29.0664 55.6056ZM32.3721 50.4445V51.7238H33.3584V52.422H32.3721V55.6984C32.3721 55.91 32.416 56.0695 32.5039 56.1769C32.5918 56.281 32.7415 56.3331 32.9531 56.3331C33.0573 56.3331 33.2005 56.3136 33.3828 56.2745V57.007C33.1452 57.0721 32.9141 57.1046 32.6895 57.1046C32.2858 57.1046 31.9814 56.9825 31.7764 56.7384C31.5713 56.4943 31.4688 56.1476 31.4688 55.6984V52.422H30.5068V51.7238H31.4688V50.4445H32.3721ZM36.6104 57.1046C35.8942 57.1046 35.3115 56.8702 34.8623 56.4015C34.4131 55.9295 34.1885 55.2996 34.1885 54.5118V54.3458C34.1885 53.8217 34.2878 53.3546 34.4863 52.9445C34.6882 52.531 34.9681 52.2088 35.3262 51.9777C35.6875 51.7433 36.0781 51.6261 36.498 51.6261C37.1849 51.6261 37.7188 51.8523 38.0996 52.3048C38.4805 52.7573 38.6709 53.4051 38.6709 54.2482V54.6241H35.0918C35.1048 55.145 35.2562 55.5665 35.5459 55.8888C35.8389 56.2078 36.21 56.3673 36.6592 56.3673C36.9782 56.3673 37.2484 56.3022 37.4697 56.172C37.6911 56.0418 37.8848 55.8693 38.0508 55.6544L38.6025 56.0841C38.1598 56.7644 37.4958 57.1046 36.6104 57.1046ZM36.498 52.3683C36.1335 52.3683 35.8275 52.5017 35.5801 52.7687C35.3327 53.0323 35.1797 53.4034 35.1211 53.882H37.7676V53.8136C37.7415 53.3546 37.6178 52.9998 37.3965 52.7491C37.1751 52.4952 36.8757 52.3683 36.498 52.3683ZM40.5752 51.7238L40.6045 52.3878C41.0081 51.88 41.5355 51.6261 42.1865 51.6261C43.3031 51.6261 43.8662 52.256 43.876 53.5157V57.007H42.9727V53.5109C42.9694 53.13 42.8815 52.8484 42.709 52.6661C42.5397 52.4838 42.2744 52.3927 41.9131 52.3927C41.6201 52.3927 41.363 52.4708 41.1416 52.6271C40.9202 52.7833 40.7477 52.9884 40.624 53.2423V57.007H39.7207V51.7238H40.5752ZM47.3574 56.3673C47.6797 56.3673 47.9613 56.2697 48.2021 56.0743C48.443 55.879 48.5765 55.6349 48.6025 55.3419H49.457C49.4408 55.6447 49.3366 55.9327 49.1445 56.2062C48.9525 56.4796 48.6953 56.6977 48.373 56.8605C48.054 57.0232 47.7155 57.1046 47.3574 57.1046C46.638 57.1046 46.0651 56.8654 45.6387 56.3868C45.2155 55.9051 45.0039 55.2475 45.0039 54.4142V54.2628C45.0039 53.7485 45.0983 53.2911 45.2871 52.8907C45.4759 52.4904 45.7461 52.1795 46.0977 51.9581C46.4525 51.7368 46.8708 51.6261 47.3525 51.6261C47.945 51.6261 48.4365 51.8035 48.8271 52.1583C49.221 52.5131 49.431 52.9738 49.457 53.5402H48.6025C48.5765 53.1984 48.4463 52.9184 48.2119 52.7003C47.9808 52.479 47.6943 52.3683 47.3525 52.3683C46.8936 52.3683 46.5371 52.5343 46.2832 52.8663C46.0326 53.1951 45.9072 53.672 45.9072 54.297V54.4679C45.9072 55.0766 46.0326 55.5454 46.2832 55.8741C46.5339 56.2029 46.8919 56.3673 47.3574 56.3673ZM52.2012 55.6837L53.4316 51.7238H54.3984L52.2744 57.8224C51.9456 58.7013 51.4232 59.1407 50.707 59.1407L50.5361 59.1261L50.1992 59.0626V58.3302L50.4434 58.3497C50.7493 58.3497 50.987 58.2879 51.1562 58.1642C51.3288 58.0405 51.4704 57.8142 51.5811 57.4855L51.7812 56.9484L49.8965 51.7238H50.8828L52.2012 55.6837ZM62.3672 55.7618L63.3828 51.7238H64.2861L62.748 57.007H62.0156L60.7314 53.0031L59.4814 57.007H58.749L57.2158 51.7238H58.1143L59.1543 55.6788L60.3848 51.7238H61.1123L62.3672 55.7618ZM66.1904 57.007H65.2871V51.7238H66.1904V57.007ZM65.2139 50.3224C65.2139 50.1759 65.2578 50.0522 65.3457 49.9513C65.4368 49.8504 65.5703 49.7999 65.7461 49.7999C65.9219 49.7999 66.0553 49.8504 66.1465 49.9513C66.2376 50.0522 66.2832 50.1759 66.2832 50.3224C66.2832 50.4689 66.2376 50.5909 66.1465 50.6886C66.0553 50.7863 65.9219 50.8351 65.7461 50.8351C65.5703 50.8351 65.4368 50.7863 65.3457 50.6886C65.2578 50.5909 65.2139 50.4689 65.2139 50.3224ZM68.8662 50.4445V51.7238H69.8525V52.422H68.8662V55.6984C68.8662 55.91 68.9102 56.0695 68.998 56.1769C69.0859 56.281 69.2357 56.3331 69.4473 56.3331C69.5514 56.3331 69.6947 56.3136 69.877 56.2745V57.007C69.6393 57.0721 69.4082 57.1046 69.1836 57.1046C68.7799 57.1046 68.4756 56.9825 68.2705 56.7384C68.0654 56.4943 67.9629 56.1476 67.9629 55.6984V52.422H67.001V51.7238H67.9629V50.4445H68.8662ZM71.8154 52.3634C72.2158 51.8719 72.7367 51.6261 73.3779 51.6261C74.4945 51.6261 75.0576 52.256 75.0674 53.5157V57.007H74.1641V53.5109C74.1608 53.13 74.0729 52.8484 73.9004 52.6661C73.7311 52.4838 73.4658 52.3927 73.1045 52.3927C72.8115 52.3927 72.5544 52.4708 72.333 52.6271C72.1117 52.7833 71.9391 52.9884 71.8154 53.2423V57.007H70.9121V49.507H71.8154V52.3634ZM11.5811 64.5343C11.4443 64.5115 11.2962 64.5001 11.1367 64.5001C10.5443 64.5001 10.1423 64.7524 9.93066 65.257V69.007H9.02734V63.7238H9.90625L9.9209 64.3341C10.2171 63.8621 10.637 63.6261 11.1807 63.6261C11.3564 63.6261 11.4899 63.6489 11.5811 63.6945V64.5343ZM15.4824 69.007C15.4303 68.9028 15.388 68.7172 15.3555 68.4503C14.9355 68.8865 14.4342 69.1046 13.8516 69.1046C13.3307 69.1046 12.9027 68.9581 12.5674 68.6652C12.2354 68.3689 12.0693 67.9946 12.0693 67.5421C12.0693 66.992 12.2777 66.5656 12.6943 66.2628C13.1143 65.9568 13.7035 65.8038 14.4619 65.8038H15.3408V65.3888C15.3408 65.073 15.2464 64.8224 15.0576 64.6368C14.8688 64.448 14.5905 64.3536 14.2227 64.3536C13.9004 64.3536 13.6302 64.435 13.4121 64.5978C13.194 64.7605 13.085 64.9575 13.085 65.1886H12.1768C12.1768 64.9249 12.2695 64.671 12.4551 64.4269C12.6439 64.1795 12.8978 63.9842 13.2168 63.8409C13.5391 63.6977 13.8923 63.6261 14.2764 63.6261C14.8851 63.6261 15.362 63.7791 15.707 64.0851C16.0521 64.3878 16.2311 64.8061 16.2441 65.34V67.7716C16.2441 68.2566 16.306 68.6424 16.4297 68.9288V69.007H15.4824ZM13.9834 68.3185C14.2666 68.3185 14.5352 68.2452 14.7891 68.0988C15.043 67.9523 15.2269 67.7618 15.3408 67.5275V66.4435H14.6328C13.526 66.4435 12.9727 66.7674 12.9727 67.4152C12.9727 67.6984 13.0671 67.9197 13.2559 68.0792C13.4447 68.2387 13.6872 68.3185 13.9834 68.3185ZM17.4453 66.3214C17.4453 65.4978 17.6357 64.8435 18.0166 64.3585C18.3975 63.8702 18.902 63.6261 19.5303 63.6261C20.1748 63.6261 20.6777 63.854 21.0391 64.3097L21.083 63.7238H21.9082V68.88C21.9082 69.5636 21.7048 70.1023 21.2979 70.4962C20.8942 70.8901 20.3506 71.087 19.667 71.087C19.2861 71.087 18.9134 71.0057 18.5488 70.8429C18.1842 70.6801 17.9059 70.4572 17.7139 70.174L18.1826 69.632C18.57 70.1105 19.0436 70.3497 19.6035 70.3497C20.043 70.3497 20.3848 70.226 20.6289 69.9786C20.8763 69.7312 21 69.3829 21 68.9337V68.4796C20.6387 68.8963 20.1455 69.1046 19.5205 69.1046C18.902 69.1046 18.4007 68.8556 18.0166 68.3575C17.6357 67.8595 17.4453 67.1808 17.4453 66.3214ZM18.3535 66.424C18.3535 67.0197 18.4756 67.4884 18.7197 67.8302C18.9639 68.1687 19.3057 68.338 19.7451 68.338C20.3148 68.338 20.7331 68.0792 21 67.5616V65.1495C20.7233 64.645 20.3083 64.3927 19.7549 64.3927C19.3154 64.3927 18.972 64.5636 18.7246 64.9054C18.4772 65.2472 18.3535 65.7534 18.3535 66.424ZM23.0605 66.3214C23.0605 65.4978 23.251 64.8435 23.6318 64.3585C24.0127 63.8702 24.5173 63.6261 25.1455 63.6261C25.79 63.6261 26.293 63.854 26.6543 64.3097L26.6982 63.7238H27.5234V68.88C27.5234 69.5636 27.32 70.1023 26.9131 70.4962C26.5094 70.8901 25.9658 71.087 25.2822 71.087C24.9014 71.087 24.5286 71.0057 24.1641 70.8429C23.7995 70.6801 23.5212 70.4572 23.3291 70.174L23.7979 69.632C24.1852 70.1105 24.6589 70.3497 25.2188 70.3497C25.6582 70.3497 26 70.226 26.2441 69.9786C26.4915 69.7312 26.6152 69.3829 26.6152 68.9337V68.4796C26.2539 68.8963 25.7607 69.1046 25.1357 69.1046C24.5173 69.1046 24.016 68.8556 23.6318 68.3575C23.251 67.8595 23.0605 67.1808 23.0605 66.3214ZM23.9688 66.424C23.9688 67.0197 24.0908 67.4884 24.335 67.8302C24.5791 68.1687 24.9209 68.338 25.3604 68.338C25.93 68.338 26.3483 68.0792 26.6152 67.5616V65.1495C26.3385 64.645 25.9235 64.3927 25.3701 64.3927C24.9307 64.3927 24.5872 64.5636 24.3398 64.9054C24.0924 65.2472 23.9688 65.7534 23.9688 66.424ZM31.083 69.1046C30.3669 69.1046 29.7842 68.8702 29.335 68.4015C28.8857 67.9295 28.6611 67.2996 28.6611 66.5118V66.3458C28.6611 65.8217 28.7604 65.3546 28.959 64.9445C29.1608 64.531 29.4408 64.2088 29.7988 63.9777C30.1602 63.7433 30.5508 63.6261 30.9707 63.6261C31.6576 63.6261 32.1914 63.8523 32.5723 64.3048C32.9531 64.7573 33.1436 65.4051 33.1436 66.2482V66.6241H29.5645C29.5775 67.145 29.7288 67.5665 30.0186 67.8888C30.3115 68.2078 30.6826 68.3673 31.1318 68.3673C31.4508 68.3673 31.721 68.3022 31.9424 68.172C32.1637 68.0418 32.3574 67.8693 32.5234 67.6544L33.0752 68.0841C32.6325 68.7644 31.9684 69.1046 31.083 69.1046ZM30.9707 64.3683C30.6061 64.3683 30.3001 64.5017 30.0527 64.7687C29.8053 65.0323 29.6523 65.4034 29.5938 65.882H32.2402V65.8136C32.2142 65.3546 32.0905 64.9998 31.8691 64.7491C31.6478 64.4952 31.3483 64.3683 30.9707 64.3683ZM33.9736 66.3214C33.9736 65.5109 34.1657 64.8598 34.5498 64.3683C34.9339 63.8735 35.4368 63.6261 36.0586 63.6261C36.6771 63.6261 37.167 63.8377 37.5283 64.2609V61.507H38.4316V69.007H37.6016L37.5576 68.4406C37.1963 68.8833 36.6934 69.1046 36.0488 69.1046C35.4368 69.1046 34.9372 68.854 34.5498 68.3527C34.1657 67.8514 33.9736 67.1971 33.9736 66.3898V66.3214ZM34.877 66.424C34.877 67.0229 35.0007 67.4917 35.248 67.8302C35.4954 68.1687 35.8372 68.338 36.2734 68.338C36.8464 68.338 37.2646 68.0809 37.5283 67.5665V65.1398C37.2581 64.6417 36.8431 64.3927 36.2832 64.3927C35.8405 64.3927 35.4954 64.5636 35.248 64.9054C35.0007 65.2472 34.877 65.7534 34.877 66.424ZM44.5107 69.1046C43.7946 69.1046 43.2119 68.8702 42.7627 68.4015C42.3135 67.9295 42.0889 67.2996 42.0889 66.5118V66.3458C42.0889 65.8217 42.1882 65.3546 42.3867 64.9445C42.5885 64.531 42.8685 64.2088 43.2266 63.9777C43.5879 63.7433 43.9785 63.6261 44.3984 63.6261C45.0853 63.6261 45.6191 63.8523 46 64.3048C46.3809 64.7573 46.5713 65.4051 46.5713 66.2482V66.6241H42.9922C43.0052 67.145 43.1566 67.5665 43.4463 67.8888C43.7393 68.2078 44.1104 68.3673 44.5596 68.3673C44.8786 68.3673 45.1488 68.3022 45.3701 68.172C45.5915 68.0418 45.7852 67.8693 45.9512 67.6544L46.5029 68.0841C46.0602 68.7644 45.3962 69.1046 44.5107 69.1046ZM44.3984 64.3683C44.0339 64.3683 43.7279 64.5017 43.4805 64.7687C43.2331 65.0323 43.0801 65.4034 43.0215 65.882H45.668V65.8136C45.6419 65.3546 45.5182 64.9998 45.2969 64.7491C45.0755 64.4952 44.776 64.3683 44.3984 64.3683ZM47.4014 66.3214C47.4014 65.5109 47.5934 64.8598 47.9775 64.3683C48.3617 63.8735 48.8646 63.6261 49.4863 63.6261C50.1048 63.6261 50.5947 63.8377 50.9561 64.2609V61.507H51.8594V69.007H51.0293L50.9854 68.4406C50.624 68.8833 50.1211 69.1046 49.4766 69.1046C48.8646 69.1046 48.3649 68.854 47.9775 68.3527C47.5934 67.8514 47.4014 67.1971 47.4014 66.3898V66.3214ZM48.3047 66.424C48.3047 67.0229 48.4284 67.4917 48.6758 67.8302C48.9232 68.1687 49.265 68.338 49.7012 68.338C50.2741 68.338 50.6924 68.0809 50.9561 67.5665V65.1398C50.6859 64.6417 50.2708 64.3927 49.7109 64.3927C49.2682 64.3927 48.9232 64.5636 48.6758 64.9054C48.4284 65.2472 48.3047 65.7534 48.3047 66.424ZM53.0508 66.3214C53.0508 65.4978 53.2412 64.8435 53.6221 64.3585C54.0029 63.8702 54.5075 63.6261 55.1357 63.6261C55.7803 63.6261 56.2832 63.854 56.6445 64.3097L56.6885 63.7238H57.5137V68.88C57.5137 69.5636 57.3102 70.1023 56.9033 70.4962C56.4997 70.8901 55.9561 71.087 55.2725 71.087C54.8916 71.087 54.5189 71.0057 54.1543 70.8429C53.7897 70.6801 53.5114 70.4572 53.3193 70.174L53.7881 69.632C54.1755 70.1105 54.6491 70.3497 55.209 70.3497C55.6484 70.3497 55.9902 70.226 56.2344 69.9786C56.4818 69.7312 56.6055 69.3829 56.6055 68.9337V68.4796C56.2441 68.8963 55.751 69.1046 55.126 69.1046C54.5075 69.1046 54.0062 68.8556 53.6221 68.3575C53.2412 67.8595 53.0508 67.1808 53.0508 66.3214ZM53.959 66.424C53.959 67.0197 54.0811 67.4884 54.3252 67.8302C54.5693 68.1687 54.9111 68.338 55.3506 68.338C55.9202 68.338 56.3385 68.0792 56.6055 67.5616V65.1495C56.3288 64.645 55.9137 64.3927 55.3604 64.3927C54.9209 64.3927 54.5775 64.5636 54.3301 64.9054C54.0827 65.2472 53.959 65.7534 53.959 66.424ZM61.0732 69.1046C60.3571 69.1046 59.7744 68.8702 59.3252 68.4015C58.876 67.9295 58.6514 67.2996 58.6514 66.5118V66.3458C58.6514 65.8217 58.7507 65.3546 58.9492 64.9445C59.151 64.531 59.431 64.2088 59.7891 63.9777C60.1504 63.7433 60.541 63.6261 60.9609 63.6261C61.6478 63.6261 62.1816 63.8523 62.5625 64.3048C62.9434 64.7573 63.1338 65.4051 63.1338 66.2482V66.6241H59.5547C59.5677 67.145 59.7191 67.5665 60.0088 67.8888C60.3018 68.2078 60.6729 68.3673 61.1221 68.3673C61.4411 68.3673 61.7113 68.3022 61.9326 68.172C62.154 68.0418 62.3477 67.8693 62.5137 67.6544L63.0654 68.0841C62.6227 68.7644 61.9587 69.1046 61.0732 69.1046ZM60.9609 64.3683C60.5964 64.3683 60.2904 64.5017 60.043 64.7687C59.7956 65.0323 59.6426 65.4034 59.584 65.882H62.2305V65.8136C62.2044 65.3546 62.0807 64.9998 61.8594 64.7491C61.638 64.4952 61.3385 64.3683 60.9609 64.3683ZM67.2598 67.6056C67.2598 67.3615 67.167 67.1726 66.9814 67.0392C66.7992 66.9025 66.4785 66.7853 66.0195 66.6876C65.5638 66.59 65.2008 66.4728 64.9307 66.3361C64.6637 66.1993 64.4652 66.0366 64.335 65.8478C64.208 65.659 64.1445 65.4344 64.1445 65.174C64.1445 64.741 64.3268 64.3748 64.6914 64.0753C65.0592 63.7758 65.528 63.6261 66.0977 63.6261C66.6966 63.6261 67.1816 63.7807 67.5527 64.09C67.9271 64.3992 68.1143 64.7947 68.1143 65.2765H67.2061C67.2061 65.0291 67.1003 64.8159 66.8887 64.6368C66.6803 64.4578 66.4167 64.3683 66.0977 64.3683C65.7689 64.3683 65.5117 64.4399 65.3262 64.5831C65.1406 64.7264 65.0479 64.9135 65.0479 65.1447C65.0479 65.3628 65.1341 65.5271 65.3066 65.6378C65.4792 65.7485 65.79 65.8543 66.2393 65.9552C66.6917 66.0561 67.0579 66.1766 67.3379 66.3165C67.6178 66.4565 67.8245 66.6258 67.958 66.8243C68.0947 67.0197 68.1631 67.2589 68.1631 67.5421C68.1631 68.0141 67.9743 68.3934 67.5967 68.6798C67.2191 68.963 66.7292 69.1046 66.127 69.1046C65.7038 69.1046 65.3294 69.0297 65.0039 68.88C64.6784 68.7303 64.4229 68.5219 64.2373 68.255C64.055 67.9848 63.9639 67.6935 63.9639 67.381H64.8672C64.8835 67.6837 65.0039 67.9246 65.2285 68.1036C65.4564 68.2794 65.7559 68.3673 66.127 68.3673C66.4688 68.3673 66.7422 68.299 66.9473 68.1622C67.1556 68.0223 67.2598 67.8367 67.2598 67.6056Z" fill="#666666"/>
</svg>
