<svg width="77" height="70" viewBox="0 0 77 70" fill="none" xmlns="http://www.w3.org/2000/svg">
<path fill-rule="evenodd" clip-rule="evenodd" d="M45.2583 29.0167C39.0405 32.6065 31.0898 30.4761 27.4999 24.2583C23.9101 18.0405 26.0405 10.0898 32.2583 6.5C38.1847 3.07838 45.6854 4.85341 49.4838 10.4113L49.5166 10.3923L50.0166 11.2583L50.5166 12.1244L50.4838 12.1433C53.3978 18.2118 51.1847 25.595 45.2583 29.0167ZM48.7457 13.1468C51.1114 18.2548 49.2276 24.4156 44.2583 27.2846C39.289 30.1536 33.0116 28.7047 29.7708 24.1019L48.7457 13.1468ZM47.7457 11.4147C44.5049 6.81197 38.2276 5.36303 33.2583 8.23205C28.289 11.1011 26.4051 17.2619 28.7708 22.3699L47.7457 11.4147Z" fill="#C4C4C4"/>
<path d="M23.8467 54.5167H22.9043L19.3252 49.0381V54.5167H18.3828V47.4073H19.3252L22.9141 52.9102V47.4073H23.8467V54.5167ZM25.1309 51.8262C25.1309 51.3087 25.2318 50.8432 25.4336 50.4297C25.6387 50.0163 25.9219 49.6973 26.2832 49.4727C26.6478 49.2481 27.0628 49.1358 27.5283 49.1358C28.2477 49.1358 28.8288 49.3848 29.2715 49.8829C29.7174 50.3809 29.9404 51.0434 29.9404 51.8702V51.9337C29.9404 52.448 29.8411 52.9102 29.6426 53.3204C29.4473 53.7273 29.1657 54.0447 28.7979 54.2725C28.4333 54.5004 28.0133 54.6143 27.5381 54.6143C26.8219 54.6143 26.2409 54.3653 25.7949 53.8672C25.3522 53.3692 25.1309 52.71 25.1309 51.8897V51.8262ZM26.0391 51.9337C26.0391 52.5196 26.1742 52.99 26.4443 53.3448C26.7178 53.6996 27.0824 53.877 27.5381 53.877C27.9971 53.877 28.3617 53.698 28.6318 53.3399C28.902 52.9786 29.0371 52.474 29.0371 51.8262C29.0371 51.2468 28.8988 50.7781 28.6221 50.42C28.3486 50.0587 27.984 49.878 27.5283 49.878C27.0824 49.878 26.7227 50.0554 26.4492 50.4102C26.1758 50.765 26.0391 51.2728 26.0391 51.9337ZM38.0264 51.9337C38.0264 52.7409 37.8408 53.3904 37.4697 53.8819C37.0986 54.3702 36.6006 54.6143 35.9756 54.6143C35.3083 54.6143 34.7923 54.3783 34.4277 53.9063L34.3838 54.5167H33.5537V47.0167H34.457V49.8145C34.8216 49.362 35.3245 49.1358 35.9658 49.1358C36.6071 49.1358 37.11 49.3783 37.4746 49.8633C37.8424 50.3484 38.0264 51.0124 38.0264 51.8555V51.9337ZM37.123 51.8311C37.123 51.2159 37.0042 50.7406 36.7666 50.4053C36.529 50.07 36.1872 49.9024 35.7412 49.9024C35.1455 49.9024 34.7174 50.1791 34.457 50.7325V53.0176C34.7337 53.571 35.165 53.8477 35.751 53.8477C36.1839 53.8477 36.5208 53.6801 36.7617 53.3448C37.0026 53.0095 37.123 52.5049 37.123 51.8311ZM38.9297 51.8262C38.9297 51.3087 39.0306 50.8432 39.2324 50.4297C39.4375 50.0163 39.7207 49.6973 40.082 49.4727C40.4466 49.2481 40.8617 49.1358 41.3271 49.1358C42.0465 49.1358 42.6276 49.3848 43.0703 49.8829C43.5163 50.3809 43.7393 51.0434 43.7393 51.8702V51.9337C43.7393 52.448 43.64 52.9102 43.4414 53.3204C43.2461 53.7273 42.9645 54.0447 42.5967 54.2725C42.2321 54.5004 41.8122 54.6143 41.3369 54.6143C40.6208 54.6143 40.0397 54.3653 39.5938 53.8672C39.151 53.3692 38.9297 52.71 38.9297 51.8897V51.8262ZM39.8379 51.9337C39.8379 52.5196 39.973 52.99 40.2432 53.3448C40.5166 53.6996 40.8812 53.877 41.3369 53.877C41.7959 53.877 42.1605 53.698 42.4307 53.3399C42.7008 52.9786 42.8359 52.474 42.8359 51.8262C42.8359 51.2468 42.6976 50.7781 42.4209 50.42C42.1475 50.0587 41.7829 49.878 41.3271 49.878C40.8812 49.878 40.5215 50.0554 40.248 50.4102C39.9746 50.765 39.8379 51.2728 39.8379 51.9337ZM49.5498 53.2715L50.5654 49.2335H51.4688L49.9307 54.5167H49.1982L47.9141 50.5128L46.6641 54.5167H45.9316L44.3984 49.2335H45.2969L46.3369 53.1885L47.5674 49.2335H48.2949L49.5498 53.2715ZM54.584 54.6143C53.8678 54.6143 53.2852 54.3799 52.8359 53.9112C52.3867 53.4392 52.1621 52.8093 52.1621 52.0215V51.8555C52.1621 51.3314 52.2614 50.8643 52.46 50.4542C52.6618 50.0408 52.9417 49.7185 53.2998 49.4874C53.6611 49.253 54.0518 49.1358 54.4717 49.1358C55.1585 49.1358 55.6924 49.362 56.0732 49.8145C56.4541 50.267 56.6445 50.9148 56.6445 51.7579V52.1339H53.0654C53.0785 52.6547 53.2298 53.0762 53.5195 53.3985C53.8125 53.7175 54.1836 53.877 54.6328 53.877C54.9518 53.877 55.222 53.8119 55.4434 53.6817C55.6647 53.5515 55.8584 53.379 56.0244 53.1641L56.5762 53.5938C56.1335 54.2741 55.4694 54.6143 54.584 54.6143ZM54.4717 49.878C54.1071 49.878 53.8011 50.0115 53.5537 50.2784C53.3063 50.5421 53.1533 50.9131 53.0947 51.3917H55.7412V51.3233C55.7152 50.8643 55.5915 50.5095 55.3701 50.2589C55.1488 50.0049 54.8493 49.878 54.4717 49.878ZM58.6758 54.5167H57.7725V47.0167H58.6758V54.5167ZM16.3662 61.2335L16.3906 61.8194C16.778 61.3637 17.3005 61.1358 17.958 61.1358C18.6969 61.1358 19.1999 61.419 19.4668 61.9854C19.6426 61.7315 19.8704 61.5264 20.1504 61.3702C20.4336 61.2139 20.7673 61.1358 21.1514 61.1358C22.3102 61.1358 22.8994 61.7494 22.9189 62.9766V66.5167H22.0156V63.0303C22.0156 62.6527 21.9294 62.3712 21.7568 62.1856C21.5843 61.9968 21.2946 61.9024 20.8877 61.9024C20.5524 61.9024 20.2741 62.0033 20.0527 62.2051C19.8314 62.4037 19.7028 62.6723 19.667 63.0108V66.5167H18.7588V63.0547C18.7588 62.2865 18.3828 61.9024 17.6309 61.9024C17.0384 61.9024 16.6331 62.1547 16.415 62.6592V66.5167H15.5117V61.2335H16.3662ZM24.0469 63.8262C24.0469 63.3087 24.1478 62.8432 24.3496 62.4297C24.5547 62.0163 24.8379 61.6973 25.1992 61.4727C25.5638 61.2481 25.9788 61.1358 26.4443 61.1358C27.1637 61.1358 27.7448 61.3848 28.1875 61.8829C28.6335 62.3809 28.8564 63.0434 28.8564 63.8702V63.9337C28.8564 64.448 28.7572 64.9102 28.5586 65.3204C28.3633 65.7273 28.0817 66.0447 27.7139 66.2725C27.3493 66.5004 26.9294 66.6143 26.4541 66.6143C25.738 66.6143 25.1569 66.3653 24.7109 65.8672C24.2682 65.3692 24.0469 64.71 24.0469 63.8897V63.8262ZM24.9551 63.9337C24.9551 64.5196 25.0902 64.99 25.3604 65.3448C25.6338 65.6996 25.9984 65.877 26.4541 65.877C26.9131 65.877 27.2777 65.698 27.5479 65.3399C27.818 64.9786 27.9531 64.474 27.9531 63.8262C27.9531 63.2468 27.8148 62.7781 27.5381 62.42C27.2646 62.0587 26.9001 61.878 26.4443 61.878C25.9984 61.878 25.6387 62.0554 25.3652 62.4102C25.0918 62.765 24.9551 63.2728 24.9551 63.9337ZM31.6543 65.2911L32.9629 61.2335H33.8857L31.9912 66.5167H31.3027L29.3887 61.2335H30.3115L31.6543 65.2911ZM36.8789 66.6143C36.1628 66.6143 35.5801 66.3799 35.1309 65.9112C34.6816 65.4392 34.457 64.8093 34.457 64.0215V63.8555C34.457 63.3314 34.5563 62.8643 34.7549 62.4542C34.9567 62.0408 35.2367 61.7185 35.5947 61.4874C35.9561 61.253 36.3467 61.1358 36.7666 61.1358C37.4535 61.1358 37.9873 61.362 38.3682 61.8145C38.749 62.267 38.9395 62.9148 38.9395 63.7579V64.1339H35.3604C35.3734 64.6547 35.5247 65.0762 35.8145 65.3985C36.1074 65.7175 36.4785 65.877 36.9277 65.877C37.2467 65.877 37.5169 65.8119 37.7383 65.6817C37.9596 65.5515 38.1533 65.379 38.3193 65.1641L38.8711 65.5938C38.4284 66.2741 37.7643 66.6143 36.8789 66.6143ZM36.7666 61.878C36.402 61.878 36.096 62.0115 35.8486 62.2784C35.6012 62.5421 35.4482 62.9131 35.3896 63.3917H38.0361V63.3233C38.0101 62.8643 37.8864 62.5095 37.665 62.2589C37.4437 62.0049 37.1442 61.878 36.7666 61.878ZM40.8389 61.2335L40.8633 61.8194C41.2507 61.3637 41.7731 61.1358 42.4307 61.1358C43.1696 61.1358 43.6725 61.419 43.9395 61.9854C44.1152 61.7315 44.3431 61.5264 44.623 61.3702C44.9062 61.2139 45.2399 61.1358 45.624 61.1358C46.7829 61.1358 47.3721 61.7494 47.3916 62.9766V66.5167H46.4883V63.0303C46.4883 62.6527 46.402 62.3712 46.2295 62.1856C46.057 61.9968 45.7673 61.9024 45.3604 61.9024C45.0251 61.9024 44.7467 62.0033 44.5254 62.2051C44.304 62.4037 44.1755 62.6723 44.1396 63.0108V66.5167H43.2314V63.0547C43.2314 62.2865 42.8555 61.9024 42.1035 61.9024C41.5111 61.9024 41.1058 62.1547 40.8877 62.6592V66.5167H39.9844V61.2335H40.8389ZM50.9512 66.6143C50.235 66.6143 49.6523 66.3799 49.2031 65.9112C48.7539 65.4392 48.5293 64.8093 48.5293 64.0215V63.8555C48.5293 63.3314 48.6286 62.8643 48.8271 62.4542C49.029 62.0408 49.3089 61.7185 49.667 61.4874C50.0283 61.253 50.4189 61.1358 50.8389 61.1358C51.5257 61.1358 52.0596 61.362 52.4404 61.8145C52.8213 62.267 53.0117 62.9148 53.0117 63.7579V64.1339H49.4326C49.4456 64.6547 49.597 65.0762 49.8867 65.3985C50.1797 65.7175 50.5508 65.877 51 65.877C51.319 65.877 51.5892 65.8119 51.8105 65.6817C52.0319 65.5515 52.2256 65.379 52.3916 65.1641L52.9434 65.5938C52.5007 66.2741 51.8366 66.6143 50.9512 66.6143ZM50.8389 61.878C50.4743 61.878 50.1683 62.0115 49.9209 62.2784C49.6735 62.5421 49.5205 62.9131 49.4619 63.3917H52.1084V63.3233C52.0824 62.8643 51.9587 62.5095 51.7373 62.2589C51.516 62.0049 51.2165 61.878 50.8389 61.878ZM54.916 61.2335L54.9453 61.8975C55.349 61.3897 55.8763 61.1358 56.5273 61.1358C57.6439 61.1358 58.207 61.7657 58.2168 63.0255V66.5167H57.3135V63.0206C57.3102 62.6397 57.2223 62.3581 57.0498 62.1758C56.8805 61.9936 56.6152 61.9024 56.2539 61.9024C55.9609 61.9024 55.7038 61.9805 55.4824 62.1368C55.2611 62.293 55.0885 62.4981 54.9648 62.752V66.5167H54.0615V61.2335H54.916ZM60.8047 59.9542V61.2335H61.791V61.9317H60.8047V65.2081C60.8047 65.4197 60.8486 65.5792 60.9365 65.6866C61.0244 65.7908 61.1742 65.8428 61.3857 65.8428C61.4899 65.8428 61.6331 65.8233 61.8154 65.7842V66.5167C61.5778 66.5818 61.3467 66.6143 61.1221 66.6143C60.7184 66.6143 60.4141 66.4922 60.209 66.2481C60.0039 66.004 59.9014 65.6573 59.9014 65.2081V61.9317H58.9395V61.2335H59.9014V59.9542H60.8047Z" fill="#666666"/>
</svg>
