<svg width="76" height="78" viewBox="0 0 76 78" fill="none" xmlns="http://www.w3.org/2000/svg">
<path d="M49.2066 1.91998C38.8066 -4.88002 39.2066 8.92017 28.7066 4.41998C18.2065 -0.0802078 18.7066 12.4201 24.7066 14.9201C30.7066 17.4201 22.7066 17.9201 18.7066 23.4201C14.7066 28.9201 28.7066 30.4201 35.2066 23.4201C41.7066 16.4201 39.2066 21.4201 49.2066 23.4201C59.2066 25.4201 58.7066 18.4201 56.2066 14.9201C53.7066 11.4201 49.2066 15.9201 49.2066 12.4201C49.2066 8.92006 62.2066 10.42 49.2066 1.91998Z" fill="#C4C4C4"/>
<path d="M40.0143 24.4202C37.7989 24.4202 36.322 25.9676 35.8605 26.7413C31.0143 29.8361 36.2066 32.7413 36.2066 30.4202C36.2066 28.0991 37.2451 30.7413 40.7066 28.4202C44.1681 26.0991 42.7836 24.4202 40.0143 24.4202Z" fill="#C4C4C4"/>
<path d="M26.2227 49.4933H29.5918V50.2599H25.2803V43.1505H26.2227V49.4933ZM31.501 50.2599H30.5977V44.9767H31.501V50.2599ZM30.5244 43.5753C30.5244 43.4288 30.5684 43.3051 30.6562 43.2042C30.7474 43.1033 30.8809 43.0529 31.0566 43.0529C31.2324 43.0529 31.3659 43.1033 31.457 43.2042C31.5482 43.3051 31.5938 43.4288 31.5938 43.5753C31.5938 43.7218 31.5482 43.8439 31.457 43.9415C31.3659 44.0392 31.2324 44.088 31.0566 44.088C30.8809 44.088 30.7474 44.0392 30.6562 43.9415C30.5684 43.8439 30.5244 43.7218 30.5244 43.5753ZM32.7314 47.5743C32.7314 46.7443 32.9219 46.0883 33.3027 45.6066C33.6836 45.1215 34.1947 44.879 34.8359 44.879C35.4609 44.879 35.9541 45.089 36.3154 45.5089L36.3545 44.9767H37.1846V52.2911H36.2812V49.7716C35.9167 50.1622 35.4316 50.3575 34.8262 50.3575C34.1882 50.3575 33.6787 50.1101 33.2979 49.6154C32.9202 49.1173 32.7314 48.4581 32.7314 47.6378V47.5743ZM33.6348 47.6769C33.6348 48.2823 33.7617 48.7576 34.0156 49.1027C34.2728 49.4477 34.6178 49.6202 35.0508 49.6202C35.5879 49.6202 35.998 49.3826 36.2812 48.9073V46.3195C35.9948 45.854 35.5879 45.6212 35.0605 45.6212C34.6243 45.6212 34.2777 45.7954 34.0205 46.1437C33.7633 46.4887 33.6348 46.9998 33.6348 47.6769ZM41.8965 49.7374C41.5449 50.1508 41.029 50.3575 40.3486 50.3575C39.7855 50.3575 39.3558 50.1948 39.0596 49.8693C38.7666 49.5405 38.6185 49.0555 38.6152 48.4142V44.9767H39.5186V48.3898C39.5186 49.1906 39.8441 49.5909 40.4951 49.5909C41.1852 49.5909 41.6442 49.3338 41.8721 48.8195V44.9767H42.7754V50.2599H41.916L41.8965 49.7374ZM45.1338 50.2599H44.2305V44.9767H45.1338V50.2599ZM44.1572 43.5753C44.1572 43.4288 44.2012 43.3051 44.2891 43.2042C44.3802 43.1033 44.5137 43.0529 44.6895 43.0529C44.8652 43.0529 44.9987 43.1033 45.0898 43.2042C45.181 43.3051 45.2266 43.4288 45.2266 43.5753C45.2266 43.7218 45.181 43.8439 45.0898 43.9415C44.9987 44.0392 44.8652 44.088 44.6895 44.088C44.5137 44.088 44.3802 44.0392 44.2891 43.9415C44.2012 43.8439 44.1572 43.7218 44.1572 43.5753ZM46.3643 47.5743C46.3643 46.7638 46.5563 46.1128 46.9404 45.6212C47.3245 45.1264 47.8275 44.879 48.4492 44.879C49.0677 44.879 49.5576 45.0906 49.9189 45.5138V42.7599H50.8223V50.2599H49.9922L49.9482 49.6935C49.5869 50.1362 49.084 50.3575 48.4395 50.3575C47.8275 50.3575 47.3278 50.1069 46.9404 49.6056C46.5563 49.1043 46.3643 48.45 46.3643 47.6427V47.5743ZM47.2676 47.6769C47.2676 48.2758 47.3913 48.7446 47.6387 49.0831C47.8861 49.4217 48.2279 49.5909 48.6641 49.5909C49.237 49.5909 49.6553 49.3338 49.9189 48.8195V46.3927C49.6488 45.8947 49.2337 45.6456 48.6738 45.6456C48.2311 45.6456 47.8861 45.8165 47.6387 46.1583C47.3913 46.5001 47.2676 47.0063 47.2676 47.6769ZM3.56641 61.6202C3.88867 61.6202 4.17025 61.5226 4.41113 61.3273C4.65202 61.132 4.78548 60.8878 4.81152 60.5948H5.66602C5.64974 60.8976 5.54557 61.1857 5.35352 61.4591C5.16146 61.7325 4.9043 61.9506 4.58203 62.1134C4.26302 62.2762 3.92448 62.3575 3.56641 62.3575C2.84701 62.3575 2.27409 62.1183 1.84766 61.6398C1.42448 61.158 1.21289 60.5004 1.21289 59.6671V59.5157C1.21289 59.0014 1.30729 58.5441 1.49609 58.1437C1.6849 57.7433 1.95508 57.4324 2.30664 57.2111C2.66146 56.9897 3.07975 56.879 3.56152 56.879C4.15397 56.879 4.64551 57.0564 5.03613 57.4113C5.43001 57.7661 5.63997 58.2267 5.66602 58.7931H4.81152C4.78548 58.4513 4.65527 58.1713 4.4209 57.9532C4.18978 57.7319 3.90332 57.6212 3.56152 57.6212C3.10254 57.6212 2.74609 57.7872 2.49219 58.1193C2.24154 58.448 2.11621 58.9249 2.11621 59.5499V59.7208C2.11621 60.3295 2.24154 60.7983 2.49219 61.1271C2.74284 61.4559 3.10091 61.6202 3.56641 61.6202ZM6.44238 59.5695C6.44238 59.0519 6.54329 58.5864 6.74512 58.173C6.9502 57.7596 7.2334 57.4406 7.59473 57.2159C7.95931 56.9913 8.37435 56.879 8.83984 56.879C9.55924 56.879 10.1403 57.1281 10.583 57.6261C11.029 58.1241 11.252 58.7866 11.252 59.6134V59.6769C11.252 60.1912 11.1527 60.6534 10.9541 61.0636C10.7588 61.4705 10.4772 61.7879 10.1094 62.0157C9.74479 62.2436 9.32487 62.3575 8.84961 62.3575C8.13346 62.3575 7.55241 62.1085 7.10645 61.6105C6.66374 61.1124 6.44238 60.4532 6.44238 59.6329V59.5695ZM7.35059 59.6769C7.35059 60.2628 7.48568 60.7332 7.75586 61.088C8.0293 61.4428 8.39388 61.6202 8.84961 61.6202C9.30859 61.6202 9.67318 61.4412 9.94336 61.0831C10.2135 60.7218 10.3486 60.2172 10.3486 59.5695C10.3486 58.99 10.2103 58.5213 9.93359 58.1632C9.66016 57.8019 9.29557 57.6212 8.83984 57.6212C8.39388 57.6212 8.03418 57.7986 7.76074 58.1534C7.4873 58.5083 7.35059 59.0161 7.35059 59.6769ZM13.2393 56.9767L13.2686 57.6407C13.6722 57.1329 14.1995 56.879 14.8506 56.879C15.9671 56.879 16.5303 57.5089 16.54 58.7687V62.2599H15.6367V58.7638C15.6335 58.3829 15.5456 58.1014 15.373 57.9191C15.2038 57.7368 14.9385 57.6456 14.5771 57.6456C14.2842 57.6456 14.027 57.7238 13.8057 57.88C13.5843 58.0363 13.4118 58.2413 13.2881 58.4952V62.2599H12.3848V56.9767H13.2393ZM20.9785 60.8585C20.9785 60.6144 20.8857 60.4256 20.7002 60.2921C20.5179 60.1554 20.1973 60.0382 19.7383 59.9406C19.2826 59.8429 18.9196 59.7257 18.6494 59.589C18.3825 59.4523 18.1839 59.2895 18.0537 59.1007C17.9268 58.9119 17.8633 58.6873 17.8633 58.4269C17.8633 57.9939 18.0456 57.6277 18.4102 57.3282C18.778 57.0288 19.2467 56.879 19.8164 56.879C20.4154 56.879 20.9004 57.0337 21.2715 57.3429C21.6458 57.6521 21.833 58.0476 21.833 58.5294H20.9248C20.9248 58.282 20.819 58.0688 20.6074 57.8898C20.3991 57.7107 20.1354 57.6212 19.8164 57.6212C19.4876 57.6212 19.2305 57.6928 19.0449 57.8361C18.8594 57.9793 18.7666 58.1665 18.7666 58.3976C18.7666 58.6157 18.8529 58.7801 19.0254 58.8907C19.1979 59.0014 19.5088 59.1072 19.958 59.2081C20.4105 59.309 20.7767 59.4295 21.0566 59.5695C21.3366 59.7094 21.5433 59.8787 21.6768 60.0773C21.8135 60.2726 21.8818 60.5118 21.8818 60.795C21.8818 61.267 21.693 61.6463 21.3154 61.9327C20.9378 62.2159 20.4479 62.3575 19.8457 62.3575C19.4225 62.3575 19.0482 62.2827 18.7227 62.1329C18.3971 61.9832 18.1416 61.7749 17.9561 61.5079C17.7738 61.2378 17.6826 60.9464 17.6826 60.6339H18.5859C18.6022 60.9366 18.7227 61.1775 18.9473 61.3566C19.1751 61.5323 19.4746 61.6202 19.8457 61.6202C20.1875 61.6202 20.4609 61.5519 20.666 61.4152C20.8743 61.2752 20.9785 61.0896 20.9785 60.8585ZM24.04 62.2599H23.1367V56.9767H24.04V62.2599ZM23.0635 55.5753C23.0635 55.4288 23.1074 55.3051 23.1953 55.2042C23.2865 55.1033 23.4199 55.0529 23.5957 55.0529C23.7715 55.0529 23.9049 55.1033 23.9961 55.2042C24.0872 55.3051 24.1328 55.4288 24.1328 55.5753C24.1328 55.7218 24.0872 55.8439 23.9961 55.9415C23.9049 56.0392 23.7715 56.088 23.5957 56.088C23.4199 56.088 23.2865 56.0392 23.1953 55.9415C23.1074 55.8439 23.0635 55.7218 23.0635 55.5753ZM28.5664 60.8585C28.5664 60.6144 28.4736 60.4256 28.2881 60.2921C28.1058 60.1554 27.7852 60.0382 27.3262 59.9406C26.8704 59.8429 26.5075 59.7257 26.2373 59.589C25.9704 59.4523 25.7718 59.2895 25.6416 59.1007C25.5146 58.9119 25.4512 58.6873 25.4512 58.4269C25.4512 57.9939 25.6335 57.6277 25.998 57.3282C26.3659 57.0288 26.8346 56.879 27.4043 56.879C28.0033 56.879 28.4883 57.0337 28.8594 57.3429C29.2337 57.6521 29.4209 58.0476 29.4209 58.5294H28.5127C28.5127 58.282 28.4069 58.0688 28.1953 57.8898C27.987 57.7107 27.7233 57.6212 27.4043 57.6212C27.0755 57.6212 26.8184 57.6928 26.6328 57.8361C26.4473 57.9793 26.3545 58.1665 26.3545 58.3976C26.3545 58.6157 26.4408 58.7801 26.6133 58.8907C26.7858 59.0014 27.0967 59.1072 27.5459 59.2081C27.9984 59.309 28.3646 59.4295 28.6445 59.5695C28.9245 59.7094 29.1312 59.8787 29.2646 60.0773C29.4014 60.2726 29.4697 60.5118 29.4697 60.795C29.4697 61.267 29.2809 61.6463 28.9033 61.9327C28.5257 62.2159 28.0358 62.3575 27.4336 62.3575C27.0104 62.3575 26.6361 62.2827 26.3105 62.1329C25.985 61.9832 25.7295 61.7749 25.5439 61.5079C25.3617 61.2378 25.2705 60.9464 25.2705 60.6339H26.1738C26.1901 60.9366 26.3105 61.1775 26.5352 61.3566C26.763 61.5323 27.0625 61.6202 27.4336 61.6202C27.7754 61.6202 28.0488 61.5519 28.2539 61.4152C28.4622 61.2752 28.5664 61.0896 28.5664 60.8585ZM31.8721 55.6974V56.9767H32.8584V57.6749H31.8721V60.9513C31.8721 61.1629 31.916 61.3224 32.0039 61.4298C32.0918 61.534 32.2415 61.5861 32.4531 61.5861C32.5573 61.5861 32.7005 61.5665 32.8828 61.5275V62.2599C32.6452 62.325 32.4141 62.3575 32.1895 62.3575C31.7858 62.3575 31.4814 62.2355 31.2764 61.9913C31.0713 61.7472 30.9688 61.4005 30.9688 60.9513V57.6749H30.0068V56.9767H30.9688V55.6974H31.8721ZM36.1104 62.3575C35.3942 62.3575 34.8115 62.1232 34.3623 61.6544C33.9131 61.1824 33.6885 60.5525 33.6885 59.7648V59.5988C33.6885 59.0747 33.7878 58.6075 33.9863 58.1974C34.1882 57.784 34.4681 57.4617 34.8262 57.2306C35.1875 56.9962 35.5781 56.879 35.998 56.879C36.6849 56.879 37.2188 57.1053 37.5996 57.5577C37.9805 58.0102 38.1709 58.658 38.1709 59.5011V59.8771H34.5918C34.6048 60.3979 34.7562 60.8195 35.0459 61.1417C35.3389 61.4607 35.71 61.6202 36.1592 61.6202C36.4782 61.6202 36.7484 61.5551 36.9697 61.4249C37.1911 61.2947 37.3848 61.1222 37.5508 60.9073L38.1025 61.337C37.6598 62.0174 36.9958 62.3575 36.1104 62.3575ZM35.998 57.6212C35.6335 57.6212 35.3275 57.7547 35.0801 58.0216C34.8327 58.2853 34.6797 58.6564 34.6211 59.1349H37.2676V59.0665C37.2415 58.6075 37.1178 58.2527 36.8965 58.0021C36.6751 57.7482 36.3757 57.6212 35.998 57.6212ZM40.0752 56.9767L40.1045 57.6407C40.5081 57.1329 41.0355 56.879 41.6865 56.879C42.8031 56.879 43.3662 57.5089 43.376 58.7687V62.2599H42.4727V58.7638C42.4694 58.3829 42.3815 58.1014 42.209 57.9191C42.0397 57.7368 41.7744 57.6456 41.4131 57.6456C41.1201 57.6456 40.863 57.7238 40.6416 57.88C40.4202 58.0363 40.2477 58.2413 40.124 58.4952V62.2599H39.2207V56.9767H40.0752ZM46.8574 61.6202C47.1797 61.6202 47.4613 61.5226 47.7021 61.3273C47.943 61.132 48.0765 60.8878 48.1025 60.5948H48.957C48.9408 60.8976 48.8366 61.1857 48.6445 61.4591C48.4525 61.7325 48.1953 61.9506 47.873 62.1134C47.554 62.2762 47.2155 62.3575 46.8574 62.3575C46.138 62.3575 45.5651 62.1183 45.1387 61.6398C44.7155 61.158 44.5039 60.5004 44.5039 59.6671V59.5157C44.5039 59.0014 44.5983 58.5441 44.7871 58.1437C44.9759 57.7433 45.2461 57.4324 45.5977 57.2111C45.9525 56.9897 46.3708 56.879 46.8525 56.879C47.445 56.879 47.9365 57.0564 48.3271 57.4113C48.721 57.7661 48.931 58.2267 48.957 58.7931H48.1025C48.0765 58.4513 47.9463 58.1713 47.7119 57.9532C47.4808 57.7319 47.1943 57.6212 46.8525 57.6212C46.3936 57.6212 46.0371 57.7872 45.7832 58.1193C45.5326 58.448 45.4072 58.9249 45.4072 59.5499V59.7208C45.4072 60.3295 45.5326 60.7983 45.7832 61.1271C46.0339 61.4559 46.3919 61.6202 46.8574 61.6202ZM51.7012 60.9366L52.9316 56.9767H53.8984L51.7744 63.0753C51.4456 63.9542 50.9232 64.3937 50.207 64.3937L50.0361 64.379L49.6992 64.3156V63.5831L49.9434 63.6027C50.2493 63.6027 50.487 63.5408 50.6562 63.4171C50.8288 63.2934 50.9704 63.0672 51.0811 62.7384L51.2812 62.2013L49.3965 56.9767H50.3828L51.7012 60.9366ZM61.8672 61.0148L62.8828 56.9767H63.7861L62.248 62.2599H61.5156L60.2314 58.256L58.9814 62.2599H58.249L56.7158 56.9767H57.6143L58.6543 60.9318L59.8848 56.9767H60.6123L61.8672 61.0148ZM65.6904 62.2599H64.7871V56.9767H65.6904V62.2599ZM64.7139 55.5753C64.7139 55.4288 64.7578 55.3051 64.8457 55.2042C64.9368 55.1033 65.0703 55.0529 65.2461 55.0529C65.4219 55.0529 65.5553 55.1033 65.6465 55.2042C65.7376 55.3051 65.7832 55.4288 65.7832 55.5753C65.7832 55.7218 65.7376 55.8439 65.6465 55.9415C65.5553 56.0392 65.4219 56.088 65.2461 56.088C65.0703 56.088 64.9368 56.0392 64.8457 55.9415C64.7578 55.8439 64.7139 55.7218 64.7139 55.5753ZM68.3662 55.6974V56.9767H69.3525V57.6749H68.3662V60.9513C68.3662 61.1629 68.4102 61.3224 68.498 61.4298C68.5859 61.534 68.7357 61.5861 68.9473 61.5861C69.0514 61.5861 69.1947 61.5665 69.377 61.5275V62.2599C69.1393 62.325 68.9082 62.3575 68.6836 62.3575C68.2799 62.3575 67.9756 62.2355 67.7705 61.9913C67.5654 61.7472 67.4629 61.4005 67.4629 60.9513V57.6749H66.501V56.9767H67.4629V55.6974H68.3662ZM71.3154 57.6163C71.7158 57.1248 72.2367 56.879 72.8779 56.879C73.9945 56.879 74.5576 57.5089 74.5674 58.7687V62.2599H73.6641V58.7638C73.6608 58.3829 73.5729 58.1014 73.4004 57.9191C73.2311 57.7368 72.9658 57.6456 72.6045 57.6456C72.3115 57.6456 72.0544 57.7238 71.833 57.88C71.6117 58.0363 71.4391 58.2413 71.3154 58.4952V62.2599H70.4121V54.7599H71.3154V57.6163ZM6.24219 68.9767L6.27148 69.6407C6.67513 69.1329 7.20247 68.879 7.85352 68.879C8.97005 68.879 9.5332 69.5089 9.54297 70.7687V74.2599H8.63965V70.7638C8.63639 70.3829 8.5485 70.1014 8.37598 69.9191C8.20671 69.7368 7.94141 69.6456 7.58008 69.6456C7.28711 69.6456 7.02995 69.7238 6.80859 69.88C6.58724 70.0363 6.41471 70.2413 6.29102 70.4952V74.2599H5.3877V68.9767H6.24219ZM10.666 71.5695C10.666 71.0519 10.7669 70.5864 10.9688 70.173C11.1738 69.7596 11.457 69.4406 11.8184 69.2159C12.1829 68.9913 12.598 68.879 13.0635 68.879C13.7829 68.879 14.3639 69.1281 14.8066 69.6261C15.2526 70.1241 15.4756 70.7866 15.4756 71.6134V71.6769C15.4756 72.1912 15.3763 72.6534 15.1777 73.0636C14.9824 73.4705 14.7008 73.7879 14.333 74.0157C13.9684 74.2436 13.5485 74.3575 13.0732 74.3575C12.3571 74.3575 11.776 74.1085 11.3301 73.6105C10.8874 73.1124 10.666 72.4532 10.666 71.6329V71.5695ZM11.5742 71.6769C11.5742 72.2628 11.7093 72.7332 11.9795 73.088C12.2529 73.4428 12.6175 73.6202 13.0732 73.6202C13.5322 73.6202 13.8968 73.4412 14.167 73.0831C14.4372 72.7218 14.5723 72.2172 14.5723 71.5695C14.5723 70.99 14.4339 70.5213 14.1572 70.1632C13.8838 69.8019 13.5192 69.6212 13.0635 69.6212C12.6175 69.6212 12.2578 69.7986 11.9844 70.1534C11.7109 70.5083 11.5742 71.0161 11.5742 71.6769ZM22.165 72.8585C22.165 72.6144 22.0723 72.4256 21.8867 72.2921C21.7044 72.1554 21.3838 72.0382 20.9248 71.9406C20.4691 71.8429 20.1061 71.7257 19.8359 71.589C19.569 71.4523 19.3704 71.2895 19.2402 71.1007C19.1133 70.9119 19.0498 70.6873 19.0498 70.4269C19.0498 69.9939 19.2321 69.6277 19.5967 69.3282C19.9645 69.0288 20.4333 68.879 21.0029 68.879C21.6019 68.879 22.0869 69.0337 22.458 69.3429C22.8324 69.6521 23.0195 70.0476 23.0195 70.5294H22.1113C22.1113 70.282 22.0055 70.0688 21.7939 69.8898C21.5856 69.7107 21.3219 69.6212 21.0029 69.6212C20.6742 69.6212 20.417 69.6928 20.2314 69.8361C20.0459 69.9793 19.9531 70.1665 19.9531 70.3976C19.9531 70.6157 20.0394 70.7801 20.2119 70.8907C20.3844 71.0014 20.6953 71.1072 21.1445 71.2081C21.597 71.309 21.9632 71.4295 22.2432 71.5695C22.5231 71.7094 22.7298 71.8787 22.8633 72.0773C23 72.2726 23.0684 72.5118 23.0684 72.795C23.0684 73.267 22.8796 73.6463 22.502 73.9327C22.1243 74.2159 21.6344 74.3575 21.0322 74.3575C20.609 74.3575 20.2347 74.2827 19.9092 74.1329C19.5837 73.9832 19.3281 73.7749 19.1426 73.5079C18.9603 73.2378 18.8691 72.9464 18.8691 72.6339H19.7725C19.7887 72.9366 19.9092 73.1775 20.1338 73.3566C20.3617 73.5323 20.6611 73.6202 21.0322 73.6202C21.374 73.6202 21.6475 73.5519 21.8525 73.4152C22.0609 73.2752 22.165 73.0896 22.165 72.8585ZM24.0059 71.5695C24.0059 71.0519 24.1068 70.5864 24.3086 70.173C24.5137 69.7596 24.7969 69.4406 25.1582 69.2159C25.5228 68.9913 25.9378 68.879 26.4033 68.879C27.1227 68.879 27.7038 69.1281 28.1465 69.6261C28.5924 70.1241 28.8154 70.7866 28.8154 71.6134V71.6769C28.8154 72.1912 28.7161 72.6534 28.5176 73.0636C28.3223 73.4705 28.0407 73.7879 27.6729 74.0157C27.3083 74.2436 26.8883 74.3575 26.4131 74.3575C25.6969 74.3575 25.1159 74.1085 24.6699 73.6105C24.2272 73.1124 24.0059 72.4532 24.0059 71.6329V71.5695ZM24.9141 71.6769C24.9141 72.2628 25.0492 72.7332 25.3193 73.088C25.5928 73.4428 25.9574 73.6202 26.4131 73.6202C26.8721 73.6202 27.2367 73.4412 27.5068 73.0831C27.777 72.7218 27.9121 72.2172 27.9121 71.5695C27.9121 70.99 27.7738 70.5213 27.4971 70.1632C27.2236 69.8019 26.859 69.6212 26.4033 69.6212C25.9574 69.6212 25.5977 69.7986 25.3242 70.1534C25.0508 70.5083 24.9141 71.0161 24.9141 71.6769ZM30.9297 74.2599H30.0264V66.7599H30.9297V74.2599ZM33.3613 74.2599H32.458V68.9767H33.3613V74.2599ZM32.3848 67.5753C32.3848 67.4288 32.4287 67.3051 32.5166 67.2042C32.6077 67.1033 32.7412 67.0529 32.917 67.0529C33.0928 67.0529 33.2262 67.1033 33.3174 67.2042C33.4085 67.3051 33.4541 67.4288 33.4541 67.5753C33.4541 67.7218 33.4085 67.8439 33.3174 67.9415C33.2262 68.0392 33.0928 68.088 32.917 68.088C32.7412 68.088 32.6077 68.0392 32.5166 67.9415C32.4287 67.8439 32.3848 67.7218 32.3848 67.5753ZM34.5918 71.5743C34.5918 70.7638 34.7839 70.1128 35.168 69.6212C35.5521 69.1264 36.055 68.879 36.6768 68.879C37.2952 68.879 37.7852 69.0906 38.1465 69.5138V66.7599H39.0498V74.2599H38.2197L38.1758 73.6935C37.8145 74.1362 37.3115 74.3575 36.667 74.3575C36.055 74.3575 35.5553 74.1069 35.168 73.6056C34.7839 73.1043 34.5918 72.45 34.5918 71.6427V71.5743ZM35.4951 71.6769C35.4951 72.2758 35.6188 72.7446 35.8662 73.0831C36.1136 73.4217 36.4554 73.5909 36.8916 73.5909C37.4645 73.5909 37.8828 73.3338 38.1465 72.8195V70.3927C37.8763 69.8947 37.4613 69.6456 36.9014 69.6456C36.4587 69.6456 36.1136 69.8165 35.8662 70.1583C35.6188 70.5001 35.4951 71.0063 35.4951 71.6769ZM47.3994 71.6769C47.3994 72.4809 47.2155 73.1287 46.8477 73.6202C46.4798 74.1118 45.9818 74.3575 45.3535 74.3575C44.7122 74.3575 44.2077 74.1541 43.8398 73.7472V76.2911H42.9365V68.9767H43.7617L43.8057 69.5626C44.1735 69.1069 44.6846 68.879 45.3389 68.879C45.9736 68.879 46.4749 69.1183 46.8428 69.5968C47.2139 70.0753 47.3994 70.741 47.3994 71.5939V71.6769ZM46.4961 71.5743C46.4961 70.9786 46.3691 70.5083 46.1152 70.1632C45.8613 69.8182 45.513 69.6456 45.0703 69.6456C44.5234 69.6456 44.1133 69.8881 43.8398 70.3732V72.8976C44.11 73.3794 44.5234 73.6202 45.0801 73.6202C45.513 73.6202 45.8564 73.4493 46.1104 73.1075C46.3675 72.7625 46.4961 72.2514 46.4961 71.5743ZM49.5332 74.2599H48.6299V66.7599H49.5332V74.2599ZM53.1758 74.3575C52.4596 74.3575 51.877 74.1232 51.4277 73.6544C50.9785 73.1824 50.7539 72.5525 50.7539 71.7648V71.5988C50.7539 71.0747 50.8532 70.6075 51.0518 70.1974C51.2536 69.784 51.5335 69.4617 51.8916 69.2306C52.2529 68.9962 52.6436 68.879 53.0635 68.879C53.7503 68.879 54.2842 69.1053 54.665 69.5577C55.0459 70.0102 55.2363 70.658 55.2363 71.5011V71.8771H51.6572C51.6702 72.3979 51.8216 72.8195 52.1113 73.1417C52.4043 73.4607 52.7754 73.6202 53.2246 73.6202C53.5436 73.6202 53.8138 73.5551 54.0352 73.4249C54.2565 73.2947 54.4502 73.1222 54.6162 72.9073L55.168 73.337C54.7253 74.0174 54.0612 74.3575 53.1758 74.3575ZM53.0635 69.6212C52.6989 69.6212 52.3929 69.7547 52.1455 70.0216C51.8981 70.2853 51.7451 70.6564 51.6865 71.1349H54.333V71.0665C54.307 70.6075 54.1833 70.2527 53.9619 70.0021C53.7406 69.7482 53.4411 69.6212 53.0635 69.6212ZM58.4053 73.6202C58.7275 73.6202 59.0091 73.5226 59.25 73.3273C59.4909 73.132 59.6243 72.8878 59.6504 72.5948H60.5049C60.4886 72.8976 60.3844 73.1857 60.1924 73.4591C60.0003 73.7325 59.7432 73.9506 59.4209 74.1134C59.1019 74.2762 58.7633 74.3575 58.4053 74.3575C57.6859 74.3575 57.113 74.1183 56.6865 73.6398C56.2633 73.158 56.0518 72.5004 56.0518 71.6671V71.5157C56.0518 71.0014 56.1462 70.5441 56.335 70.1437C56.5238 69.7433 56.7939 69.4324 57.1455 69.2111C57.5003 68.9897 57.9186 68.879 58.4004 68.879C58.9928 68.879 59.4844 69.0564 59.875 69.4113C60.2689 69.7661 60.4788 70.2267 60.5049 70.7931H59.6504C59.6243 70.4513 59.4941 70.1713 59.2598 69.9532C59.0286 69.7319 58.7422 69.6212 58.4004 69.6212C57.9414 69.6212 57.585 69.7872 57.3311 70.1193C57.0804 70.448 56.9551 70.9249 56.9551 71.5499V71.7208C56.9551 72.3295 57.0804 72.7983 57.3311 73.1271C57.5817 73.4559 57.9398 73.6202 58.4053 73.6202ZM63.7129 74.3575C62.9967 74.3575 62.4141 74.1232 61.9648 73.6544C61.5156 73.1824 61.291 72.5525 61.291 71.7648V71.5988C61.291 71.0747 61.3903 70.6075 61.5889 70.1974C61.7907 69.784 62.0706 69.4617 62.4287 69.2306C62.79 68.9962 63.1807 68.879 63.6006 68.879C64.2874 68.879 64.8213 69.1053 65.2021 69.5577C65.583 70.0102 65.7734 70.658 65.7734 71.5011V71.8771H62.1943C62.2074 72.3979 62.3587 72.8195 62.6484 73.1417C62.9414 73.4607 63.3125 73.6202 63.7617 73.6202C64.0807 73.6202 64.3509 73.5551 64.5723 73.4249C64.7936 73.2947 64.9873 73.1222 65.1533 72.9073L65.7051 73.337C65.2624 74.0174 64.5983 74.3575 63.7129 74.3575ZM63.6006 69.6212C63.236 69.6212 62.93 69.7547 62.6826 70.0216C62.4352 70.2853 62.2822 70.6564 62.2236 71.1349H64.8701V71.0665C64.8441 70.6075 64.7204 70.2527 64.499 70.0021C64.2777 69.7482 63.9782 69.6212 63.6006 69.6212ZM69.8994 72.8585C69.8994 72.6144 69.8066 72.4256 69.6211 72.2921C69.4388 72.1554 69.1182 72.0382 68.6592 71.9406C68.2035 71.8429 67.8405 71.7257 67.5703 71.589C67.3034 71.4523 67.1048 71.2895 66.9746 71.1007C66.8477 70.9119 66.7842 70.6873 66.7842 70.4269C66.7842 69.9939 66.9665 69.6277 67.3311 69.3282C67.6989 69.0288 68.1676 68.879 68.7373 68.879C69.3363 68.879 69.8213 69.0337 70.1924 69.3429C70.5667 69.6521 70.7539 70.0476 70.7539 70.5294H69.8457C69.8457 70.282 69.7399 70.0688 69.5283 69.8898C69.32 69.7107 69.0563 69.6212 68.7373 69.6212C68.4085 69.6212 68.1514 69.6928 67.9658 69.8361C67.7803 69.9793 67.6875 70.1665 67.6875 70.3976C67.6875 70.6157 67.7738 70.7801 67.9463 70.8907C68.1188 71.0014 68.4297 71.1072 68.8789 71.2081C69.3314 71.309 69.6976 71.4295 69.9775 71.5695C70.2575 71.7094 70.4642 71.8787 70.5977 72.0773C70.7344 72.2726 70.8027 72.5118 70.8027 72.795C70.8027 73.267 70.6139 73.6463 70.2363 73.9327C69.8587 74.2159 69.3688 74.3575 68.7666 74.3575C68.3434 74.3575 67.9691 74.2827 67.6436 74.1329C67.318 73.9832 67.0625 73.7749 66.877 73.5079C66.6947 73.2378 66.6035 72.9464 66.6035 72.6339H67.5068C67.5231 72.9366 67.6436 73.1775 67.8682 73.3566C68.096 73.5323 68.3955 73.6202 68.7666 73.6202C69.1084 73.6202 69.3818 73.5519 69.5869 73.4152C69.7952 73.2752 69.8994 73.0896 69.8994 72.8585Z" fill="#666666"/>
</svg>
