<svg width="65" height="56" viewBox="0 0 65 56" fill="none" xmlns="http://www.w3.org/2000/svg">
<rect x="0.5" y="0.5" width="64" height="55" rx="9.5" fill="#F5F7F9" stroke="#F2F2F2"/>
<path d="M44.7826 18H20.4348C20.1948 18 20 18.1943 20 18.4348V37.5652C20 37.8057 20.1948 38 20.4348 38H44.7826C45.0226 38 45.2174 37.8057 45.2174 37.5652V18.4348C45.2174 18.1943 45.0226 18 44.7826 18ZM44.3478 37.1304H20.8696V18.8696H44.3478V37.1304Z" fill="#BDBDBD"/>
<path d="M23.0435 35.3912C23.1453 35.3912 23.2479 35.3555 23.3305 35.2829L30.4231 29.0386L34.9022 33.5173C35.0722 33.6873 35.347 33.6873 35.517 33.5173C35.687 33.3473 35.687 33.0725 35.517 32.9025L33.427 30.8125L37.4187 26.4412L42.3148 30.9294C42.4918 31.0916 42.767 31.0794 42.9292 30.9025C43.0914 30.7255 43.0796 30.4503 42.9022 30.2881L37.6848 25.5055C37.5996 25.4277 37.4861 25.389 37.3718 25.3916C37.2566 25.3968 37.1479 25.4477 37.0701 25.5329L32.8118 30.1968L30.7496 28.1346C30.587 27.9725 30.327 27.9642 30.1548 28.1155L22.7561 34.6299C22.5757 34.7886 22.5583 35.0633 22.717 35.2438C22.8031 35.3416 22.9231 35.3912 23.0435 35.3912Z" fill="#BDBDBD"/>
</svg>
