<svg width="292" height="292" viewBox="0 0 292 292" fill="none" xmlns="http://www.w3.org/2000/svg">
<rect width="292" height="292" fill="#E5E5E5"/>
<g clip-path="url(#clip0_0_1)">
<rect width="414" height="896" transform="translate(-61 -448)" fill="white"/>
<g opacity="0.1">
<path d="M-190.16 254.207C-48.5972 255.28 -168.015 384.34 -57.3905 452.668C43.9906 515.287 209.835 361.282 240.395 569.014C261.318 711.236 309.333 762.606 427.53 788.983" stroke="#999999"/>
<path d="M-184.039 246.3C-42.4756 247.373 -161.893 376.432 -51.2689 444.761C50.1122 507.38 215.956 353.375 246.517 561.106C267.439 703.329 315.454 754.698 433.652 781.076" stroke="#999999"/>
<path d="M-177.917 238.393C-36.3539 239.465 -155.772 368.525 -45.1472 436.853C56.2339 499.472 222.078 345.468 252.638 553.199C273.561 695.421 321.576 746.791 439.774 773.168" stroke="#999999"/>
<path d="M-171.796 230.485C-30.2324 231.558 -149.65 360.618 -39.0256 428.946C62.3555 491.565 228.2 337.56 258.76 545.292C279.683 687.514 327.698 738.884 445.895 765.261" stroke="#999999"/>
<path d="M-165.674 222.578C-24.1108 223.651 -143.529 352.71 -32.9041 421.039C68.477 483.657 234.321 329.653 264.881 537.384C285.804 679.607 333.819 730.976 452.017 757.354" stroke="#999999"/>
<path d="M-159.552 214.67C-17.9892 215.743 -137.407 344.803 -26.7825 413.131C74.5986 475.75 240.443 321.746 271.003 529.477C291.926 671.699 339.941 723.069 458.139 749.446" stroke="#999999"/>
<path d="M-153.431 206.763C-11.8676 207.836 -131.285 336.896 -20.6609 405.224C80.7202 467.843 246.564 313.838 277.125 521.57C298.047 663.792 346.062 715.162 464.26 741.539" stroke="#999999"/>
<path d="M-147.309 198.856C-5.74603 199.929 -125.164 328.988 -14.5393 397.317C86.8418 459.935 252.686 305.931 283.246 513.662C304.169 655.885 352.184 707.254 470.382 733.632" stroke="#999999"/>
<path d="M-141.188 190.948C0.375554 192.021 -119.042 321.081 -8.41772 389.409C92.9634 452.028 258.808 298.024 289.368 505.755C310.291 647.977 358.305 699.347 476.503 725.724" stroke="#999999"/>
<path d="M-135.066 183.041C6.49714 184.114 -112.921 313.174 -2.29614 381.502C99.0849 444.121 264.929 290.116 295.489 497.848C316.412 640.07 364.427 691.44 482.625 717.817" stroke="#999999"/>
<path d="M-128.944 175.134C12.6187 176.207 -106.799 305.266 3.82544 373.595C105.207 436.213 271.051 282.209 301.611 489.94C322.534 632.163 370.549 683.532 488.746 709.91" stroke="#999999"/>
<path d="M-122.823 167.226C18.7404 168.299 -100.677 297.359 9.94714 365.687C111.328 428.306 277.172 274.302 307.733 482.033C328.655 624.255 376.67 675.625 494.868 702.002" stroke="#999999"/>
<path d="M-116.701 159.319C24.862 160.392 -94.5558 289.452 16.0687 357.78C117.45 420.399 283.294 266.394 313.854 474.126C334.777 616.348 382.792 667.718 500.99 694.095" stroke="#999999"/>
<path d="M-110.58 151.412C30.9836 152.485 -88.4342 281.544 22.1903 349.872C123.571 412.491 289.416 258.487 319.976 466.218C340.899 608.441 388.913 659.81 507.111 686.188" stroke="#999999"/>
<path d="M-104.458 143.504C37.1052 144.577 -82.3126 273.637 28.3119 341.965C129.693 404.584 295.537 250.58 326.097 458.311C347.02 600.533 395.035 651.903 513.233 678.28" stroke="#999999"/>
<path d="M-98.3364 135.597C43.2267 136.67 -76.191 265.73 34.4335 334.058C135.815 396.677 301.659 242.672 332.219 450.404C353.142 592.626 401.157 643.996 519.354 670.373" stroke="#999999"/>
<path d="M-92.2148 127.69C49.3483 128.763 -70.0694 257.822 40.5551 326.15C141.936 388.769 307.78 234.765 338.34 442.496C359.263 584.719 407.278 636.088 525.476 662.466" stroke="#999999"/>
<path d="M-86.0933 119.782C55.4699 120.855 -63.9479 249.915 46.6766 318.243C148.058 380.862 313.902 226.857 344.462 434.589C365.385 576.811 413.4 628.181 531.598 654.558" stroke="#999999"/>
<path d="M-79.9717 111.875C61.5915 112.948 -57.8263 242.008 52.7982 310.336C154.179 372.955 320.023 218.95 350.584 426.682C371.507 568.904 419.521 620.273 537.719 646.651" stroke="#999999"/>
<path d="M-73.8501 103.968C67.7131 105.041 -51.7047 234.1 58.9198 302.428C160.301 365.047 326.145 211.043 356.705 418.774C377.628 560.997 425.643 612.366 543.841 638.744" stroke="#999999"/>
</g>
<path d="M60.4337 -564.978C187.27 -502.099 23.4342 -438.266 93.0335 -328.436C156.817 -227.784 373.314 -293.745 309.943 -93.5691C266.557 43.4805 287.269 110.676 382.026 186.092" stroke="#F2F2F2"/>
<path d="M69.3971 -569.411C196.234 -506.533 32.3976 -442.699 101.997 -332.87C165.781 -232.218 382.277 -298.179 318.907 -98.0027C275.52 39.0469 296.232 106.243 390.99 181.658" stroke="#F2F2F2"/>
<path d="M78.3606 -573.845C205.197 -510.966 41.3611 -447.133 110.96 -337.304C174.744 -236.651 391.241 -302.612 327.87 -102.436C284.484 34.6133 305.196 101.809 399.953 177.225" stroke="#F2F2F2"/>
<path d="M87.324 -578.279C214.161 -515.4 50.3245 -451.567 119.924 -341.737C183.708 -241.085 400.204 -307.046 336.834 -106.87C293.447 30.1796 314.159 97.3752 408.917 172.791" stroke="#F2F2F2"/>
<path d="M96.2874 -582.712C223.124 -519.833 59.2879 -456 128.887 -346.171C192.671 -245.519 409.168 -311.48 345.797 -111.304C302.41 25.746 323.123 92.9416 417.88 168.357" stroke="#F2F2F2"/>
<path d="M105.251 -587.146C232.088 -524.267 68.2514 -460.434 137.851 -350.605C201.634 -249.952 418.131 -315.913 354.76 -115.737C311.374 21.3123 332.086 88.508 426.843 163.924" stroke="#F2F2F2"/>
<path d="M114.214 -591.579C241.051 -528.701 77.2147 -464.867 146.814 -355.038C210.598 -254.386 427.094 -320.347 363.724 -120.171C320.337 16.8787 341.049 84.0743 435.807 159.49" stroke="#F2F2F2"/>
<path d="M123.178 -596.013C250.014 -533.134 86.1781 -469.301 155.777 -359.472C219.561 -258.82 436.058 -324.781 372.687 -124.605C329.301 12.4451 350.013 79.6407 444.77 155.056" stroke="#F2F2F2"/>
<path d="M132.141 -600.447C258.978 -537.568 95.1416 -473.735 164.741 -363.906C228.525 -263.253 445.021 -329.214 381.651 -129.038C338.264 8.01142 358.976 75.207 453.734 150.623" stroke="#F2F2F2"/>
<path d="M141.104 -604.88C267.941 -542.002 104.105 -478.168 173.704 -368.339C237.488 -267.687 453.985 -333.648 390.614 -133.472C347.228 3.57778 367.94 70.7734 462.697 146.189" stroke="#F2F2F2"/>
<path d="M150.068 -609.314C276.905 -546.435 113.068 -482.602 182.668 -372.773C246.451 -272.121 462.948 -338.081 399.577 -137.906C356.191 -0.855859 376.903 66.3398 471.66 141.756" stroke="#F2F2F2"/>
<path d="M159.031 -613.748C285.868 -550.869 122.032 -487.036 191.631 -377.206C255.415 -276.554 471.912 -342.515 408.541 -142.339C365.154 -5.2895 385.867 61.9061 480.624 137.322" stroke="#F2F2F2"/>
<path d="M167.995 -618.181C294.831 -555.303 130.995 -491.469 200.595 -381.64C264.378 -280.988 480.875 -346.949 417.504 -146.773C374.118 -9.72314 394.83 57.4725 489.587 132.888" stroke="#F2F2F2"/>
<path d="M176.958 -622.615C303.795 -559.736 139.959 -495.903 209.558 -386.074C273.342 -285.421 489.839 -351.382 426.468 -151.206C383.081 -14.1568 403.793 53.0388 498.551 128.455" stroke="#F2F2F2"/>
<path d="M185.922 -627.049C312.758 -564.17 148.922 -500.337 218.521 -390.507C282.305 -289.855 498.802 -355.816 435.431 -155.64C392.045 -18.5904 412.757 48.6052 507.514 124.021" stroke="#F2F2F2"/>
<path d="M194.885 -631.482C321.722 -568.604 157.886 -504.77 227.485 -394.941C291.269 -294.289 507.765 -360.25 444.395 -160.074C401.008 -23.0241 421.72 44.1716 516.478 119.587" stroke="#F2F2F2"/>
<path d="M203.848 -635.916C330.685 -573.037 166.849 -509.204 236.448 -399.375C300.232 -298.722 516.729 -364.683 453.358 -164.507C409.971 -27.4577 430.684 39.7379 525.441 115.154" stroke="#F2F2F2"/>
<path d="M212.812 -640.35C339.648 -577.471 175.812 -513.638 245.412 -403.808C309.195 -303.156 525.692 -369.117 462.321 -168.941C418.935 -31.8913 439.647 35.3043 534.404 110.72" stroke="#F2F2F2"/>
<path d="M221.775 -644.783C348.612 -581.904 184.776 -518.071 254.375 -408.242C318.159 -307.59 534.655 -373.551 471.285 -173.375C427.898 -36.325 448.61 30.8706 543.368 106.286" stroke="#F2F2F2"/>
<path d="M230.739 -649.217C357.575 -586.338 193.739 -522.505 263.339 -412.676C327.122 -312.023 543.619 -377.984 480.248 -177.808C436.862 -40.7586 457.574 26.437 552.331 101.853" stroke="#F2F2F2"/>
<circle opacity="0.3" cx="146" cy="146" r="145" fill="#01AA4F" stroke="white" stroke-width="2"/>
<g opacity="0.3">
<mask id="path-42-outside-1_0_1" maskUnits="userSpaceOnUse" x="0" y="0" width="292" height="292" fill="black">
<rect fill="white" width="292" height="292"/>
<path d="M290 146C290 174.481 281.555 202.321 265.732 226.002C249.909 249.683 227.419 268.14 201.106 279.039C174.794 289.938 145.84 292.789 117.907 287.233C89.9737 281.677 64.3154 267.962 44.1766 247.823C24.0379 227.685 10.3232 202.026 4.76692 174.093C-0.789352 146.16 2.06233 117.206 12.9613 90.8936C23.8604 64.581 42.3172 42.0913 65.9979 26.2684C89.6786 10.4455 117.519 2 146 2V146H290Z"/>
</mask>
<path d="M290 146C290 174.481 281.555 202.321 265.732 226.002C249.909 249.683 227.419 268.14 201.106 279.039C174.794 289.938 145.84 292.789 117.907 287.233C89.9737 281.677 64.3154 267.962 44.1766 247.823C24.0379 227.685 10.3232 202.026 4.76692 174.093C-0.789352 146.16 2.06233 117.206 12.9613 90.8936C23.8604 64.581 42.3172 42.0913 65.9979 26.2684C89.6786 10.4455 117.519 2 146 2V146H290Z" fill="#01AA4F"/>
<path d="M290 146C290 174.481 281.555 202.321 265.732 226.002C249.909 249.683 227.419 268.14 201.106 279.039C174.794 289.938 145.84 292.789 117.907 287.233C89.9737 281.677 64.3154 267.962 44.1766 247.823C24.0379 227.685 10.3232 202.026 4.76692 174.093C-0.789352 146.16 2.06233 117.206 12.9613 90.8936C23.8604 64.581 42.3172 42.0913 65.9979 26.2684C89.6786 10.4455 117.519 2 146 2V146H290Z" stroke="white" stroke-width="4" mask="url(#path-42-outside-1_0_1)"/>
</g>
<g opacity="0.5">
<mask id="path-43-outside-2_0_1" maskUnits="userSpaceOnUse" x="43" y="142" width="192" height="151" fill="black">
<rect fill="white" x="43" y="142" width="192" height="151"/>
<path d="M231.917 261.561C204.596 281.873 170.963 291.849 136.987 289.718C103.01 287.587 70.8869 273.487 46.3186 249.921L146 146L231.917 261.561Z"/>
</mask>
<path d="M231.917 261.561C204.596 281.873 170.963 291.849 136.987 289.718C103.01 287.587 70.8869 273.487 46.3186 249.921L146 146L231.917 261.561Z" fill="#01AA4F"/>
<path d="M231.917 261.561C204.596 281.873 170.963 291.849 136.987 289.718C103.01 287.587 70.8869 273.487 46.3186 249.921L146 146L231.917 261.561Z" stroke="white" stroke-width="4" mask="url(#path-43-outside-2_0_1)"/>
</g>
<g opacity="0.8">
<mask id="path-44-outside-3_0_1" maskUnits="userSpaceOnUse" x="0" y="0" width="148" height="251" fill="black">
<rect fill="white" width="148" height="251"/>
<path d="M44.1766 247.823C24.0379 227.685 10.3232 202.026 4.76692 174.093C-0.789352 146.16 2.06233 117.206 12.9613 90.8936C23.8604 64.581 42.3172 42.0913 65.9979 26.2684C89.6786 10.4455 117.519 2 146 2V146L44.1766 247.823Z"/>
</mask>
<path d="M44.1766 247.823C24.0379 227.685 10.3232 202.026 4.76692 174.093C-0.789352 146.16 2.06233 117.206 12.9613 90.8936C23.8604 64.581 42.3172 42.0913 65.9979 26.2684C89.6786 10.4455 117.519 2 146 2V146L44.1766 247.823Z" fill="#01AA4F"/>
<path d="M44.1766 247.823C24.0379 227.685 10.3232 202.026 4.76692 174.093C-0.789352 146.16 2.06233 117.206 12.9613 90.8936C23.8604 64.581 42.3172 42.0913 65.9979 26.2684C89.6786 10.4455 117.519 2 146 2V146L44.1766 247.823Z" stroke="white" stroke-width="4" mask="url(#path-44-outside-3_0_1)"/>
</g>
<g filter="url(#filter0_ii_0_1)">
<circle cx="146.474" cy="146.474" r="77.4737" fill="white"/>
</g>
<path d="M128.18 111.859H124.523V122H123.031V111.859H119.383V110.625H128.18V111.859ZM131.844 119.883L133.812 113.547H135.359L131.961 123.305C131.435 124.711 130.599 125.414 129.453 125.414L129.18 125.391L128.641 125.289V124.117L129.031 124.148C129.521 124.148 129.901 124.049 130.172 123.852C130.448 123.654 130.674 123.292 130.852 122.766L131.172 121.906L128.156 113.547H129.734L131.844 119.883ZM143.797 117.867C143.797 119.154 143.503 120.19 142.914 120.977C142.326 121.763 141.529 122.156 140.523 122.156C139.497 122.156 138.69 121.831 138.102 121.18V125.25H136.656V113.547H137.977L138.047 114.484C138.635 113.755 139.453 113.391 140.5 113.391C141.516 113.391 142.318 113.773 142.906 114.539C143.5 115.305 143.797 116.37 143.797 117.734V117.867ZM142.352 117.703C142.352 116.75 142.148 115.997 141.742 115.445C141.336 114.893 140.779 114.617 140.07 114.617C139.195 114.617 138.539 115.005 138.102 115.781V119.82C138.534 120.591 139.195 120.977 140.086 120.977C140.779 120.977 141.328 120.703 141.734 120.156C142.146 119.604 142.352 118.786 142.352 117.703ZM149.148 122.156C148.003 122.156 147.07 121.781 146.352 121.031C145.633 120.276 145.273 119.268 145.273 118.008V117.742C145.273 116.904 145.432 116.156 145.75 115.5C146.073 114.839 146.521 114.323 147.094 113.953C147.672 113.578 148.297 113.391 148.969 113.391C150.068 113.391 150.922 113.753 151.531 114.477C152.141 115.201 152.445 116.237 152.445 117.586V118.188H146.719C146.74 119.021 146.982 119.695 147.445 120.211C147.914 120.721 148.508 120.977 149.227 120.977C149.737 120.977 150.169 120.872 150.523 120.664C150.878 120.456 151.188 120.18 151.453 119.836L152.336 120.523C151.628 121.612 150.565 122.156 149.148 122.156ZM148.969 114.578C148.385 114.578 147.896 114.792 147.5 115.219C147.104 115.641 146.859 116.234 146.766 117H151V116.891C150.958 116.156 150.76 115.589 150.406 115.188C150.052 114.781 149.573 114.578 148.969 114.578ZM165.078 117.148C165.078 118.841 164.789 120.099 164.211 120.922C163.633 121.745 162.729 122.156 161.5 122.156C160.286 122.156 159.388 121.755 158.805 120.953C158.221 120.146 157.919 118.943 157.898 117.344V115.414C157.898 113.742 158.188 112.5 158.766 111.688C159.344 110.875 160.25 110.469 161.484 110.469C162.708 110.469 163.609 110.862 164.188 111.648C164.766 112.43 165.062 113.638 165.078 115.273V117.148ZM163.633 115.172C163.633 113.948 163.461 113.057 163.117 112.5C162.773 111.938 162.229 111.656 161.484 111.656C160.745 111.656 160.206 111.935 159.867 112.492C159.529 113.049 159.354 113.906 159.344 115.062V117.375C159.344 118.604 159.521 119.513 159.875 120.102C160.234 120.685 160.776 120.977 161.5 120.977C162.214 120.977 162.742 120.701 163.086 120.148C163.435 119.596 163.617 118.727 163.633 117.539V115.172ZM171.68 122H170.227V112.367L167.312 113.438V112.125L171.453 110.57H171.68V122Z" fill="#01AA4F"/>
<path d="M122.291 159.621H126.319V165.31H122.291V173H115.235V165.31H100.66L100.343 160.866L115.162 137.453H122.291V159.621ZM107.374 159.621H115.235V147.072L114.771 147.878L107.374 159.621ZM154.054 158.303C154.054 163.218 153.036 166.978 151.002 169.582C148.967 172.186 145.989 173.488 142.066 173.488C138.193 173.488 135.23 172.211 133.18 169.655C131.129 167.1 130.079 163.438 130.03 158.669V152.126C130.03 147.162 131.056 143.394 133.106 140.822C135.174 138.251 138.144 136.965 142.018 136.965C145.891 136.965 148.854 138.243 150.904 140.798C152.955 143.337 154.005 146.991 154.054 151.76V158.303ZM146.998 151.125C146.998 148.179 146.591 146.039 145.777 144.704C144.98 143.353 143.727 142.678 142.018 142.678C140.357 142.678 139.129 143.321 138.331 144.606C137.55 145.876 137.135 147.87 137.086 150.588V159.23C137.086 162.128 137.477 164.284 138.258 165.7C139.055 167.1 140.325 167.8 142.066 167.8C143.792 167.8 145.037 167.124 145.802 165.773C146.567 164.423 146.965 162.355 146.998 159.572V151.125ZM158.741 144.289C158.741 142.108 159.449 140.342 160.865 138.991C162.281 137.624 164.137 136.94 166.432 136.94C168.759 136.94 170.631 137.616 172.047 138.967C173.463 140.301 174.171 142.116 174.171 144.411V146.169C174.171 148.366 173.463 150.132 172.047 151.467C170.631 152.801 168.775 153.469 166.48 153.469C164.169 153.469 162.298 152.801 160.865 151.467C159.449 150.116 158.741 148.301 158.741 146.022V144.289ZM163.429 146.169C163.429 147.146 163.705 147.935 164.259 148.537C164.828 149.123 165.569 149.416 166.48 149.416C167.392 149.416 168.116 149.115 168.653 148.513C169.19 147.91 169.459 147.105 169.459 146.096V144.289C169.459 143.312 169.19 142.523 168.653 141.921C168.116 141.319 167.376 141.018 166.432 141.018C165.536 141.018 164.812 141.319 164.259 141.921C163.705 142.507 163.429 143.329 163.429 144.387V146.169ZM175.733 164.284C175.733 162.087 176.45 160.321 177.882 158.986C179.314 157.635 181.17 156.96 183.448 156.96C185.759 156.96 187.623 157.627 189.039 158.962C190.471 160.28 191.188 162.103 191.188 164.431V166.188C191.188 168.369 190.488 170.135 189.088 171.486C187.688 172.821 185.825 173.488 183.497 173.488C181.153 173.488 179.273 172.813 177.857 171.462C176.441 170.111 175.733 168.321 175.733 166.091V164.284ZM180.421 166.188C180.421 167.084 180.714 167.849 181.3 168.483C181.886 169.118 182.618 169.436 183.497 169.436C185.483 169.436 186.476 168.337 186.476 166.14V164.284C186.476 163.308 186.199 162.526 185.646 161.94C185.092 161.338 184.36 161.037 183.448 161.037C182.537 161.037 181.804 161.338 181.251 161.94C180.698 162.526 180.421 163.332 180.421 164.357V166.188ZM167.872 170.339L164.43 168.483L181.788 140.7L185.23 142.556L167.872 170.339Z" fill="#01AA4F"/>
</g>
<defs>
<filter id="filter0_ii_0_1" x="66" y="67" width="160.947" height="158.947" filterUnits="userSpaceOnUse" color-interpolation-filters="sRGB">
<feFlood flood-opacity="0" result="BackgroundImageFix"/>
<feBlend mode="normal" in="SourceGraphic" in2="BackgroundImageFix" result="shape"/>
<feColorMatrix in="SourceAlpha" type="matrix" values="0 0 0 0 0 0 0 0 0 0 0 0 0 0 0 0 0 0 127 0" result="hardAlpha"/>
<feOffset dx="3" dy="2"/>
<feGaussianBlur stdDeviation="2"/>
<feComposite in2="hardAlpha" operator="arithmetic" k2="-1" k3="1"/>
<feColorMatrix type="matrix" values="0 0 0 0 0 0 0 0 0 0 0 0 0 0 0 0 0 0 0.05 0"/>
<feBlend mode="normal" in2="shape" result="effect1_innerShadow_0_1"/>
<feColorMatrix in="SourceAlpha" type="matrix" values="0 0 0 0 0 0 0 0 0 0 0 0 0 0 0 0 0 0 127 0" result="hardAlpha"/>
<feOffset dx="-3" dy="-2"/>
<feGaussianBlur stdDeviation="6"/>
<feComposite in2="hardAlpha" operator="arithmetic" k2="-1" k3="1"/>
<feColorMatrix type="matrix" values="0 0 0 0 1 0 0 0 0 1 0 0 0 0 1 0 0 0 1 0"/>
<feBlend mode="normal" in2="effect1_innerShadow_0_1" result="effect2_innerShadow_0_1"/>
</filter>
<clipPath id="clip0_0_1">
<rect width="414" height="896" fill="white" transform="translate(-61 -448)"/>
</clipPath>
</defs>
</svg>
