<svg width="30" height="35" viewBox="0 0 30 35" fill="none" xmlns="http://www.w3.org/2000/svg">
<path d="M26.079 7.17087C25.8515 6.94276 25.4817 6.94276 25.2542 7.17087L23.1455 9.27962C22.9173 9.50767 22.9173 9.8764 23.1455 10.1044C23.2592 10.2182 23.4086 10.2753 23.5579 10.2753C23.7066 10.2753 23.856 10.2187 23.9703 10.1044L26.079 7.9957C26.3071 7.76765 26.3071 7.39899 26.079 7.17087Z" fill="white"/>
<path d="M27.8291 8.9209L24.3291 5.4209C24.1016 5.19279 23.7318 5.19279 23.5043 5.4209C23.2762 5.64902 23.2762 6.01768 23.5043 6.24573L27.0043 9.74573C27.118 9.85948 27.2674 9.91663 27.4167 9.91663C27.5661 9.91663 27.7154 9.85948 27.8291 9.74573C28.0572 9.51768 28.0572 9.14902 27.8291 8.9209Z" fill="white"/>
<path d="M6.02117 9.27962L3.91241 7.17087C3.6843 6.94276 3.31509 6.94276 3.08759 7.17087C2.85948 7.39899 2.85948 7.76765 3.08759 7.9957L5.19634 10.1044C5.31009 10.2182 5.45946 10.2753 5.60875 10.2753C5.75805 10.2753 5.90742 10.2187 6.02117 10.1044C6.24921 9.8764 6.24921 9.50774 6.02117 9.27962Z" fill="white"/>
<path d="M5.66241 5.4209C5.43491 5.19279 5.06509 5.19279 4.83759 5.4209L1.33759 8.9209C1.10948 9.14895 1.10948 9.51768 1.33759 9.74573C1.45134 9.85948 1.60071 9.91663 1.75 9.91663C1.8993 9.91663 2.04866 9.85948 2.16241 9.74573L5.66241 6.24573C5.89046 6.01768 5.89046 5.64902 5.66241 5.4209Z" fill="white"/>
<path d="M16.6459 18.3546C15.509 17.2177 13.6586 17.2177 12.5211 18.3546C11.3842 19.4915 11.3842 21.3418 12.5211 22.4793C13.0893 23.0475 13.8366 23.3322 14.5832 23.3322C15.3298 23.3322 16.0771 23.0475 16.6459 22.4793C17.7827 21.3424 17.7827 19.4921 16.6459 18.3546ZM15.8204 21.654C15.1385 22.3365 14.0278 22.3365 13.3459 21.654C12.6641 20.9715 12.6641 19.8614 13.3459 19.1789C13.6872 18.8376 14.1352 18.6673 14.5832 18.6673C15.0311 18.6673 15.4792 18.8382 15.8204 19.1789C16.5024 19.8614 16.5024 20.9715 15.8204 21.654Z" fill="white"/>
<path d="M22.5792 12.4209C22.3511 12.1928 21.9819 12.1928 21.7544 12.4209L15.8207 18.354C15.5926 18.5821 15.5926 18.9508 15.8207 19.1788C15.9345 19.2926 16.0839 19.3497 16.2332 19.3497C16.3825 19.3497 16.5318 19.2931 16.6456 19.1788L22.5792 13.2457C22.8073 13.0177 22.8073 12.649 22.5792 12.4209Z" fill="white"/>
<path d="M13.346 21.6545C13.1185 21.4263 12.7492 21.4263 12.5211 21.6545L10.4585 23.7165C10.231 23.944 10.231 24.3133 10.4585 24.5413C10.5722 24.6551 10.7216 24.7122 10.8709 24.7122C11.0202 24.7122 11.1695 24.6551 11.2833 24.5413L13.346 22.4793C13.5735 22.2518 13.5735 21.8826 13.346 21.6545Z" fill="white"/>
<path d="M18.0833 0H11.0833C10.7613 0 10.5 0.261338 10.5 0.583311V3.5C10.5 3.82197 10.7613 4.08331 11.0833 4.08331H18.0833C18.4053 4.08331 18.6666 3.82197 18.6666 3.5V0.583311C18.6666 0.261338 18.4053 0 18.0833 0ZM17.5 2.91669H11.6667V1.16669H17.5V2.91669Z" fill="white"/>
<path d="M14.5833 5.83331C6.54206 5.83331 0 12.3754 0 20.4166C0 28.4579 6.54206 35 14.5833 35C22.6246 35 29.1666 28.4579 29.1666 20.4167C29.1666 12.3754 22.6246 5.83331 14.5833 5.83331ZM14.5833 33.8333C7.18546 33.8333 1.16662 27.8145 1.16662 20.4166C1.16662 13.0188 7.18546 7 14.5833 7C21.9812 7 28 13.0188 28 20.4167C28 27.8145 21.9812 33.8333 14.5833 33.8333Z" fill="white"/>
<path d="M15.7501 2.91669H13.4168C13.0948 2.91669 12.8335 3.17803 12.8335 3.5V6.41669C12.8335 6.73866 13.0948 7 13.4168 7H15.7501C16.0721 7 16.3334 6.73866 16.3334 6.41669V3.5C16.3334 3.17803 16.0721 2.91669 15.7501 2.91669ZM15.1667 5.83331H14V4.08331H15.1667V5.83331Z" fill="white"/>
<path d="M14.5833 8.16672C14.2613 8.16672 14 8.42806 14 8.75003V9.91672C14 10.2387 14.2613 10.5 14.5833 10.5C14.9053 10.5 15.1666 10.2387 15.1666 9.91672V8.75003C15.1666 8.42806 14.9053 8.16672 14.5833 8.16672Z" fill="white"/>
<path d="M14.5833 30.3333C14.2613 30.3333 14 30.5947 14 30.9166V32.0833C14 32.4053 14.2613 32.6666 14.5833 32.6666C14.9053 32.6666 15.1666 32.4053 15.1666 32.0833V30.9166C15.1666 30.5947 14.9053 30.3333 14.5833 30.3333Z" fill="white"/>
<path d="M26.2502 19.8333H25.0836C24.7616 19.8333 24.5002 20.0947 24.5002 20.4166C24.5002 20.7386 24.7616 20.9999 25.0836 20.9999H26.2502C26.5722 20.9999 26.8336 20.7386 26.8336 20.4166C26.8336 20.0947 26.5722 19.8333 26.2502 19.8333Z" fill="white"/>
<path d="M4.0835 19.8333H2.91681C2.59483 19.8333 2.3335 20.0947 2.3335 20.4166C2.3335 20.7386 2.59483 20.9999 2.91681 20.9999H4.0835C4.40547 20.9999 4.66681 20.7386 4.66681 20.4166C4.66681 20.0947 4.40547 19.8333 4.0835 19.8333Z" fill="white"/>
</svg>
