<svg width="127" height="19" viewBox="0 0 127 19" fill="none" xmlns="http://www.w3.org/2000/svg">
<path fill-rule="evenodd" clip-rule="evenodd" d="M7 17C10.866 17 14 13.866 14 10C14 6.13401 10.866 3 7 3C3.13401 3 0 6.13401 0 10C0 13.866 3.13401 17 7 17ZM6.68896 12.9003L6.68896 6.43518C6.68896 6.25629 6.82833 6.11111 7.00006 6.11111C7.1718 6.11111 7.31117 6.25629 7.31117 6.43518V12.9105L9.57479 10.4245C9.69332 10.2949 9.8901 10.2899 10.0145 10.4134C10.0788 10.477 10.1111 10.5626 10.1111 10.6481C10.1111 10.7285 10.0827 10.8089 10.0253 10.8716L7.44526 13.6933C7.32253 13.8213 7.1662 13.8889 7.00006 13.8889C6.83378 13.8889 6.6776 13.8213 6.56 13.699L3.9747 10.8718C3.85617 10.742 3.86115 10.5368 3.98544 10.4135C4.10988 10.29 4.30681 10.2951 4.42534 10.4247L6.68896 12.9003Z" fill="#EEA46B"/>
<path d="M29.0859 13.0078L32.3359 3.625H33.9766L29.7578 15H28.4297L24.2188 3.625H25.8516L29.0859 13.0078ZM36.8516 15H35.4062V6.54688H36.8516V15ZM35.2891 4.30469C35.2891 4.07031 35.3594 3.8724 35.5 3.71094C35.6458 3.54948 35.8594 3.46875 36.1406 3.46875C36.4219 3.46875 36.6354 3.54948 36.7812 3.71094C36.9271 3.8724 37 4.07031 37 4.30469C37 4.53906 36.9271 4.73438 36.7812 4.89062C36.6354 5.04688 36.4219 5.125 36.1406 5.125C35.8594 5.125 35.6458 5.04688 35.5 4.89062C35.3594 4.73438 35.2891 4.53906 35.2891 4.30469ZM42.6797 15.1562C41.5339 15.1562 40.6016 14.7812 39.8828 14.0312C39.1641 13.276 38.8047 12.2682 38.8047 11.0078V10.7422C38.8047 9.90365 38.9635 9.15625 39.2812 8.5C39.6042 7.83854 40.0521 7.32292 40.625 6.95312C41.2031 6.57812 41.8281 6.39062 42.5 6.39062C43.599 6.39062 44.4531 6.7526 45.0625 7.47656C45.6719 8.20052 45.9766 9.23698 45.9766 10.5859V11.1875H40.25C40.2708 12.0208 40.513 12.6953 40.9766 13.2109C41.4453 13.7214 42.0391 13.9766 42.7578 13.9766C43.2682 13.9766 43.7005 13.8724 44.0547 13.6641C44.4089 13.4557 44.7188 13.1797 44.9844 12.8359L45.8672 13.5234C45.1589 14.612 44.0964 15.1562 42.6797 15.1562ZM42.5 7.57812C41.9167 7.57812 41.4271 7.79167 41.0312 8.21875C40.6354 8.64062 40.3906 9.23438 40.2969 10H44.5312V9.89062C44.4896 9.15625 44.2917 8.58854 43.9375 8.1875C43.5833 7.78125 43.1042 7.57812 42.5 7.57812ZM55.1406 13.0078L56.7656 6.54688H58.2109L55.75 15H54.5781L52.5234 8.59375L50.5234 15H49.3516L46.8984 6.54688H48.3359L50 12.875L51.9688 6.54688H53.1328L55.1406 13.0078ZM72.25 11.3906C72.1094 12.5938 71.6641 13.5234 70.9141 14.1797C70.1693 14.8307 69.1771 15.1562 67.9375 15.1562C66.5938 15.1562 65.5156 14.6745 64.7031 13.7109C63.8958 12.7474 63.4922 11.4583 63.4922 9.84375V8.75C63.4922 7.69271 63.6797 6.76302 64.0547 5.96094C64.4349 5.15885 64.9714 4.54427 65.6641 4.11719C66.3568 3.6849 67.1589 3.46875 68.0703 3.46875C69.2786 3.46875 70.2474 3.80729 70.9766 4.48438C71.7057 5.15625 72.1302 6.08854 72.25 7.28125H70.7422C70.612 6.375 70.3281 5.71875 69.8906 5.3125C69.4583 4.90625 68.8516 4.70312 68.0703 4.70312C67.112 4.70312 66.3594 5.05729 65.8125 5.76562C65.2708 6.47396 65 7.48177 65 8.78906V9.89062C65 11.125 65.2578 12.1068 65.7734 12.8359C66.2891 13.5651 67.0104 13.9297 67.9375 13.9297C68.7708 13.9297 69.4089 13.7422 69.8516 13.3672C70.2995 12.987 70.5964 12.3281 70.7422 11.3906H72.25ZM79.2969 15C79.2135 14.8333 79.1458 14.5365 79.0938 14.1094C78.4219 14.8073 77.6198 15.1562 76.6875 15.1562C75.8542 15.1562 75.1693 14.9219 74.6328 14.4531C74.1016 13.9792 73.8359 13.3802 73.8359 12.6562C73.8359 11.776 74.1693 11.0938 74.8359 10.6094C75.5078 10.1198 76.4505 9.875 77.6641 9.875H79.0703V9.21094C79.0703 8.70573 78.9193 8.30469 78.6172 8.00781C78.3151 7.70573 77.8698 7.55469 77.2812 7.55469C76.7656 7.55469 76.3333 7.6849 75.9844 7.94531C75.6354 8.20573 75.4609 8.52083 75.4609 8.89062H74.0078C74.0078 8.46875 74.1562 8.0625 74.4531 7.67188C74.7552 7.27604 75.1615 6.96354 75.6719 6.73438C76.1875 6.50521 76.7526 6.39062 77.3672 6.39062C78.3411 6.39062 79.1042 6.63542 79.6562 7.125C80.2083 7.60938 80.4948 8.27865 80.5156 9.13281V13.0234C80.5156 13.7995 80.6146 14.4167 80.8125 14.875V15H79.2969ZM76.8984 13.8984C77.3516 13.8984 77.7812 13.7812 78.1875 13.5469C78.5938 13.3125 78.888 13.0078 79.0703 12.6328V10.8984H77.9375C76.1667 10.8984 75.2812 11.4167 75.2812 12.4531C75.2812 12.9062 75.4323 13.2604 75.7344 13.5156C76.0365 13.7708 76.4245 13.8984 76.8984 13.8984ZM84.3516 15H82.9062V3H84.3516V15ZM90.1797 15.1562C89.0339 15.1562 88.1016 14.7812 87.3828 14.0312C86.6641 13.276 86.3047 12.2682 86.3047 11.0078V10.7422C86.3047 9.90365 86.4635 9.15625 86.7812 8.5C87.1042 7.83854 87.5521 7.32292 88.125 6.95312C88.7031 6.57812 89.3281 6.39062 90 6.39062C91.099 6.39062 91.9531 6.7526 92.5625 7.47656C93.1719 8.20052 93.4766 9.23698 93.4766 10.5859V11.1875H87.75C87.7708 12.0208 88.013 12.6953 88.4766 13.2109C88.9453 13.7214 89.5391 13.9766 90.2578 13.9766C90.7682 13.9766 91.2005 13.8724 91.5547 13.6641C91.9089 13.4557 92.2188 13.1797 92.4844 12.8359L93.3672 13.5234C92.6589 14.612 91.5964 15.1562 90.1797 15.1562ZM90 7.57812C89.4167 7.57812 88.9271 7.79167 88.5312 8.21875C88.1354 8.64062 87.8906 9.23438 87.7969 10H92.0312V9.89062C91.9896 9.15625 91.7917 8.58854 91.4375 8.1875C91.0833 7.78125 90.6042 7.57812 90 7.57812ZM96.5234 6.54688L96.5703 7.60938C97.2161 6.79688 98.0599 6.39062 99.1016 6.39062C100.888 6.39062 101.789 7.39844 101.805 9.41406V15H100.359V9.40625C100.354 8.79688 100.214 8.34635 99.9375 8.05469C99.6667 7.76302 99.2422 7.61719 98.6641 7.61719C98.1953 7.61719 97.7839 7.74219 97.4297 7.99219C97.0755 8.24219 96.7995 8.57031 96.6016 8.97656V15H95.1562V6.54688H96.5234ZM103.633 10.7031C103.633 9.40625 103.94 8.36458 104.555 7.57812C105.169 6.78646 105.974 6.39062 106.969 6.39062C107.958 6.39062 108.742 6.72917 109.32 7.40625V3H110.766V15H109.438L109.367 14.0938C108.789 14.8021 107.984 15.1562 106.953 15.1562C105.974 15.1562 105.174 14.7552 104.555 13.9531C103.94 13.151 103.633 12.1042 103.633 10.8125V10.7031ZM105.078 10.8672C105.078 11.8255 105.276 12.5755 105.672 13.1172C106.068 13.6589 106.615 13.9297 107.312 13.9297C108.229 13.9297 108.898 13.5182 109.32 12.6953V8.8125C108.888 8.01562 108.224 7.61719 107.328 7.61719C106.62 7.61719 106.068 7.89062 105.672 8.4375C105.276 8.98438 105.078 9.79427 105.078 10.8672ZM118.234 15C118.151 14.8333 118.083 14.5365 118.031 14.1094C117.359 14.8073 116.557 15.1562 115.625 15.1562C114.792 15.1562 114.107 14.9219 113.57 14.4531C113.039 13.9792 112.773 13.3802 112.773 12.6562C112.773 11.776 113.107 11.0938 113.773 10.6094C114.445 10.1198 115.388 9.875 116.602 9.875H118.008V9.21094C118.008 8.70573 117.857 8.30469 117.555 8.00781C117.253 7.70573 116.807 7.55469 116.219 7.55469C115.703 7.55469 115.271 7.6849 114.922 7.94531C114.573 8.20573 114.398 8.52083 114.398 8.89062H112.945C112.945 8.46875 113.094 8.0625 113.391 7.67188C113.693 7.27604 114.099 6.96354 114.609 6.73438C115.125 6.50521 115.69 6.39062 116.305 6.39062C117.279 6.39062 118.042 6.63542 118.594 7.125C119.146 7.60938 119.432 8.27865 119.453 9.13281V13.0234C119.453 13.7995 119.552 14.4167 119.75 14.875V15H118.234ZM115.836 13.8984C116.289 13.8984 116.719 13.7812 117.125 13.5469C117.531 13.3125 117.826 13.0078 118.008 12.6328V10.8984H116.875C115.104 10.8984 114.219 11.4167 114.219 12.4531C114.219 12.9062 114.37 13.2604 114.672 13.5156C114.974 13.7708 115.362 13.8984 115.836 13.8984ZM125.805 7.84375C125.586 7.80729 125.349 7.78906 125.094 7.78906C124.146 7.78906 123.503 8.19271 123.164 9V15H121.719V6.54688H123.125L123.148 7.52344C123.622 6.76823 124.294 6.39062 125.164 6.39062C125.445 6.39062 125.659 6.42708 125.805 6.5V7.84375Z" fill="#EEA46B"/>
</svg>
